<svg width="500" height="422" viewBox="0 0 500 422" fill="none" xmlns="http://www.w3.org/2000/svg">
<g clip-path="url(#clip0)">
<path opacity="0.1" d="M170.012 16.18C185.984 1.98586 211.041 -0.908561 233.854 0.223392C305.503 3.77316 370.186 38.2878 426.112 77.3253C446.368 91.4548 466.305 106.687 479.451 126.148C506.21 165.767 498.273 220.651 461.041 253.289C448.383 264.39 433.033 272.905 417.255 280.451C389.238 293.856 359.011 304.639 327.197 307.707C304.523 309.892 281.57 308.115 259.031 305.066C196.049 296.542 134.227 277.696 82.3962 245.455C59.6676 231.311 38.2475 213.731 28.8834 190.843C19.5193 167.956 25.5896 139.012 48.7958 125.443C58.3938 119.843 69.8676 117.311 81.1025 114.938C97.6365 111.463 114.439 107.987 129.366 100.888C144.79 93.5499 163.031 79.3509 159.981 63.1014C156.702 45.6753 154.09 30.3592 170.012 16.18Z" fill="#00B0FF"/>
<path d="M263.484 422C394.108 422 500 405.763 500 385.733C500 365.703 394.108 349.466 263.484 349.466C132.86 349.466 26.9678 365.703 26.9678 385.733C26.9678 405.763 132.86 422 263.484 422Z" fill="#00B0FF"/>
<path d="M390.258 264.371C390.258 264.371 387.223 263.452 383.187 262.295C381.424 261.367 379.484 260.822 377.495 260.697C372.734 259.391 367.843 258.15 365.196 257.763C358.931 256.844 347.87 253.359 347.87 253.359C343.631 253.726 339.208 250.603 339.208 250.603C339.208 250.603 334.635 242.342 331.978 240.525C331.874 240.447 331.762 240.378 331.645 240.322C331.271 240.105 330.921 239.85 330.6 239.562C327.868 230.675 321.903 230.129 321.594 230.099C320.44 228.794 319.395 227.592 318.609 226.659C321.684 210.067 330.884 191.543 352.025 175.885C352.025 175.885 364.584 161.219 357.284 144.25C349.985 127.28 347.94 126.997 335.392 130.16L307.026 143.679C307.026 143.679 299.025 145.575 283.491 146.449C282.197 143.862 280.187 141.722 277.426 141.057C271.604 139.657 266.529 145.739 260.941 144.066C256.677 142.79 251.527 137.771 247.338 142.631C246.746 143.316 246.343 144.155 245.786 144.86C245.392 145.341 244.93 145.761 244.412 146.106C234.889 145.481 224.316 144.438 212.718 142.815L187.611 127.861C187.611 127.861 172.136 120.672 171.554 139.652C170.972 158.632 169.509 167.544 176.221 172.722C181.088 176.47 196.98 202.103 202.931 224.142C202.055 225.393 201.513 226.182 201.513 226.182C201.513 226.182 184.551 249.134 183.262 249.685C183.177 249.72 183.143 249.844 183.148 250.033C182.899 250.569 182.152 251.596 179.759 252.257C176.44 253.175 161.698 257.579 159.668 257.579C157.638 257.579 148.428 258.13 147.502 261.804C148.084 261.776 148.668 261.787 149.249 261.839L148.806 262.4C146.288 265.627 142.049 271.639 141.79 275.755C141.417 281.628 143.079 299.804 152.667 299.62C162.255 299.436 157.827 272.453 157.827 272.453L158.951 269.157L158.981 269.077L159.757 274.504C159.926 274.409 160.091 274.315 160.255 274.235C161.125 276.877 164.285 279.463 173.221 279.642C173.221 279.642 187.043 280.928 197.368 301.487C206.737 320.154 237.835 337.456 260.588 337.327V367.577L257.458 368.495L216.823 369.19C216.146 369.2 215.498 369.467 215.012 369.936C214.525 370.406 214.237 371.043 214.205 371.717L213.957 376.94L225.739 378.047L189.069 386.86C189.069 386.86 182.6 386.309 183.72 395.488H192.755L192.94 393.652L266.3 388.513L270.544 389.566C269.952 392.659 269.355 395.181 269.201 395.841L269.156 396.01C269.156 396.01 269.156 396.129 269.096 396.347C268.664 396.198 268.42 396.099 268.42 396.099C267.425 397.231 266.852 409.042 266.763 410.239C266.673 411.435 271.37 412.875 271.37 412.875C273.5 413.654 281.764 412.875 281.764 412.875C284.496 412.716 291.825 410.154 291.825 410.154L291.178 397.211C290.86 397.315 290.541 397.41 290.223 397.499C290.243 397.317 290.263 397.128 290.283 396.933C290.347 396.174 290.402 395.359 290.452 394.52L323.261 402.638H324.181V404.291H334.322C334.322 404.291 335.242 397.315 331.555 395.111C327.868 392.907 308.513 385.38 308.513 385.38L313.151 384.943L331.635 383.191C331.635 383.519 331.635 383.687 331.635 383.687H334.396L334.337 382.918L339.467 382.421L345.547 382.605C345.547 382.605 345.363 374.895 340.755 374.344C339.959 374.245 337.342 373.981 333.57 373.604L332.371 359.072C335.312 354.108 342.88 369.166 342.88 369.166C342.88 369.166 342.91 369.28 342.954 369.468C343.318 371.012 345.014 377.908 346.164 378.698H346.199C346.84 379.046 347.505 379.349 348.189 379.606C351.168 380.707 354.268 381.449 357.424 381.816C363.325 382.555 376.226 378.698 378.655 377.412C379.059 377.207 379.412 376.916 379.689 376.558C380.51 375.396 379.545 374.14 379.545 374.14L376.953 373.877C379.232 372.849 379.67 369.032 375.415 368.307C375.251 368.277 375.082 368.257 374.918 368.237C375.138 367.861 375.395 367.507 375.684 367.18C373.47 367.602 367.569 364.931 367.569 364.931C366.717 364.564 365.83 364.284 364.922 364.097L364.857 363.982C364.768 363.819 364.683 363.65 364.603 363.486C363.33 360.82 362.847 357.528 362.409 355.046C361.489 349.719 350.706 329.16 350.706 329.16C350.706 329.16 346.95 320.601 343.741 311.515C347.557 308.264 350.502 304.629 352.199 300.593L355.364 295.738C357.475 293.043 359.348 290.171 360.961 287.154L364.18 282.219C370.181 281.782 380.048 281.097 385.118 280.933C386.571 288.792 388.332 297.897 389.128 300.37C390.621 304.962 398.164 299.635 401.11 287.888C404.055 276.142 390.258 264.371 390.258 264.371ZM276.62 361.227V335.411C278.197 335.162 279.933 334.869 281.799 334.537C280.685 341.125 279.311 347.152 279.311 347.152C279.431 350.374 277.62 357.543 276.62 361.227ZM335.665 353.1L336.621 353.418C338.159 353.958 339.55 354.851 340.681 356.024C339.099 354.903 337.421 353.924 335.665 353.1V353.1ZM329.799 329.364C329.799 329.364 332.013 333.589 327.59 340.564C324.271 345.797 326.241 348.865 331.018 351.233C329.446 350.693 327.841 350.257 326.212 349.927L326.445 350.061C322.554 349.212 324.455 352.678 324.455 352.678C328.321 356.421 330.112 365.879 330.923 373.381C320.773 372.388 304.821 370.834 291.93 369.593C292.15 368.31 292.296 367.015 292.367 365.715C292.367 363.511 294.766 354.882 294.766 354.882C294.766 354.882 301.657 338.871 305.458 329.23C312.649 327.272 319.69 324.807 326.53 321.852C328.306 325.739 329.799 329.364 329.799 329.364V329.364Z" fill="url(#paint0_linear)"/>
<path d="M276.863 330.962H261.016V376.225H276.863V330.962Z" fill="#00B0FF"/>
<path opacity="0.3" d="M276.863 330.962H261.016V376.225H276.863V330.962Z" fill="black"/>
<path d="M215.171 371.052L214.922 376.225L226.585 377.318L190.327 386.046C190.327 386.046 183.954 385.499 185.048 394.59H193.975L194.154 392.773L266.663 387.679L322.958 401.679H323.868V403.313H333.889C333.889 403.313 334.799 396.407 331.152 394.227C327.505 392.048 308.384 384.591 308.384 384.591L338.989 381.682L345 381.865C345 381.865 344.82 374.23 340.263 373.683C335.705 373.137 271.37 366.956 271.37 366.956H261.016L257.916 367.885L217.778 368.545C217.105 368.552 216.46 368.815 215.975 369.282C215.49 369.748 215.202 370.381 215.171 371.052V371.052Z" fill="#00B0FF"/>
<path opacity="0.1" d="M276.863 330.962V336.21C271.156 337.118 267.574 337.506 267.574 337.506C265.41 337.898 263.215 338.096 261.016 338.096V330.962H276.863Z" fill="black"/>
<path d="M399.93 288.032C397.015 299.665 389.546 304.937 388.083 300.39C386.76 296.244 382.69 273.307 381.998 269.345C381.933 268.968 381.894 268.759 381.894 268.759L381.167 264.038L387.337 264.594L389.178 264.763C389.178 264.763 402.841 276.395 399.93 288.032Z" fill="#C37098"/>
<path d="M162.638 268.794C162.638 268.794 156.264 279.518 174.664 279.88C174.664 279.88 188.327 281.151 198.547 301.512C208.767 321.872 245.005 340.594 267.594 336.413C267.594 336.413 343.223 328.271 352.264 298.791L358.503 282.79C358.503 282.79 384.377 280.804 387.103 281.151C389.83 281.499 388.014 273.704 388.014 273.704L381.272 268.799L365.24 271.525L347.025 288.246L290.163 314.966L235.327 307.146C235.327 307.146 191.969 279.344 191.606 278.063C191.243 276.782 174.117 265.155 174.117 265.155L162.638 268.794Z" fill="#00B0FF"/>
<path d="M162.006 262.578V265.309L160.558 269.499L159.444 272.761C159.444 272.761 163.812 299.486 154.344 299.665C144.875 299.843 143.238 281.846 143.601 276.038C143.86 271.962 148.05 266.009 150.537 262.817C151.597 261.446 152.349 260.583 152.349 260.583L162.006 262.578Z" fill="#C37098"/>
<path opacity="0.3" d="M215.171 371.052L214.922 376.225L226.585 377.318L190.327 386.046C190.327 386.046 183.954 385.499 185.048 394.59H193.975L194.154 392.773L266.663 387.679L322.958 401.679H323.868V403.313H333.889C333.889 403.313 334.799 396.407 331.152 394.227C327.505 392.048 308.384 384.591 308.384 384.591L338.989 381.682L345 381.865C345 381.865 344.82 374.23 340.263 373.683C335.705 373.137 271.37 366.956 271.37 366.956H261.016L257.916 367.885L217.778 368.545C217.105 368.552 216.46 368.815 215.975 369.282C215.49 369.748 215.202 370.381 215.171 371.052V371.052Z" fill="black"/>
<path opacity="0.4" d="M162.638 268.794C162.638 268.794 156.264 279.518 174.664 279.88C174.664 279.88 188.327 281.151 198.547 301.512C208.767 321.872 245.005 340.594 267.594 336.413C267.594 336.413 343.223 328.271 352.264 298.791L358.503 282.79C358.503 282.79 384.377 280.804 387.103 281.151C389.83 281.499 388.014 273.704 388.014 273.704L381.272 268.799L365.24 271.525L347.025 288.246L290.163 314.966L235.327 307.146C235.327 307.146 191.969 279.344 191.606 278.063C191.243 276.782 174.117 265.155 174.117 265.155L162.638 268.794Z" fill="black"/>
<path d="M370.689 265.989L355.105 283.366C317.877 326.36 247.756 310.413 223.251 306.998C198.746 303.582 186.213 266.287 186.213 266.287C187.142 266.387 188.081 266.349 188.999 266.173C193.124 265.468 200.856 262.062 205.359 246.925C211.708 225.576 184.292 179.156 177.654 174.033C171.017 168.909 172.46 160.082 173.037 141.266C173.614 122.45 188.889 129.579 188.889 129.579L213.708 144.384C274.594 152.928 306.916 145.238 306.916 145.238L334.904 131.858C347.313 128.725 349.333 129.008 356.548 145.808C363.763 162.609 351.353 177.131 351.353 177.131C309.513 208.165 314.996 250.608 321.629 266.252C326.107 276.802 346.796 273.014 359.837 269.415C366.161 267.692 370.689 265.989 370.689 265.989Z" fill="#00B0FF"/>
<path opacity="0.1" d="M370.689 265.989L355.105 283.366C317.877 326.36 247.756 310.413 223.251 306.998C198.746 303.582 186.213 266.287 186.213 266.287C187.142 266.387 188.081 266.349 188.999 266.173C193.124 265.468 200.856 262.062 205.359 246.925C211.708 225.576 184.292 179.156 177.654 174.033C171.017 168.909 172.46 160.082 173.037 141.266C173.614 122.45 188.889 129.579 188.889 129.579L213.708 144.384C274.594 152.928 306.916 145.238 306.916 145.238L334.904 131.858C347.313 128.725 349.333 129.008 356.548 145.808C363.763 162.609 351.353 177.131 351.353 177.131C309.513 208.165 314.996 250.608 321.629 266.252C326.107 276.802 346.796 273.014 359.837 269.415C366.161 267.692 370.689 265.989 370.689 265.989Z" fill="black"/>
<path d="M365.22 264.882L350.468 281.499C315.215 322.671 248.811 307.4 225.58 304.128C202.348 300.856 190.512 265.135 190.512 265.135C191.389 265.229 192.277 265.193 193.144 265.026C197.054 264.351 204.374 261.089 208.638 246.597C214.648 226.142 188.69 181.698 182.406 176.793C176.122 171.888 177.475 163.448 178.033 145.466C178.59 127.484 193.064 134.285 193.064 134.285L216.564 148.445C274.221 156.622 304.831 149.264 304.831 149.264L331.336 136.445C343.089 133.466 345 133.719 351.831 149.805C358.663 165.891 346.915 179.802 346.915 179.802C307.289 209.511 312.479 250.162 318.783 265.155C323.012 275.258 342.611 271.609 354.961 268.183C360.936 266.515 365.22 264.882 365.22 264.882Z" fill="#00B0FF"/>
<path d="M389.178 264.763C389.178 264.763 382.62 264.217 381.894 268.759L336.531 272.562L325.251 273.486L313.31 231.658L311.036 223.68L316.683 225.497C316.683 225.497 318.773 227.979 321.385 230.918C325.057 235.069 329.769 240.207 331.257 240.947C331.372 241.005 331.482 241.073 331.585 241.151C334.207 242.948 338.725 251.13 338.725 251.13C338.725 251.13 343.099 254.223 347.293 253.855C347.293 253.855 358.24 257.306 364.414 258.219C370.589 259.133 389.178 264.763 389.178 264.763Z" fill="#3F3D56"/>
<path opacity="0.1" d="M365.22 264.882L350.468 281.499C315.215 322.671 248.811 307.4 225.58 304.128C202.348 300.856 190.511 265.135 190.511 265.135C191.389 265.229 192.277 265.193 193.144 265.026C196.358 267.693 199.318 270.651 201.985 273.863C227.674 304.222 266.668 302.222 266.668 302.222C266.668 302.222 323.142 308.944 343.91 277.314C347.339 273.974 351.031 270.914 354.951 268.164C360.936 266.515 365.22 264.882 365.22 264.882Z" fill="black"/>
<path opacity="0.1" d="M389.178 264.763C389.178 264.763 382.62 264.217 381.894 268.759L336.531 272.562L325.251 273.486L313.31 231.658L311.036 223.68L316.683 225.497C316.683 225.497 318.773 227.979 321.385 230.918C325.057 235.069 329.769 240.207 331.257 240.947C331.372 241.005 331.482 241.073 331.585 241.151C334.207 242.948 338.725 251.13 338.725 251.13C338.725 251.13 343.099 254.223 347.293 253.855C347.293 253.855 358.24 257.306 364.414 258.219C370.589 259.133 389.178 264.763 389.178 264.763Z" fill="black"/>
<path opacity="0.1" d="M389.725 265.309C389.725 265.309 383.167 264.763 382.441 269.306L381.998 269.345C381.933 268.968 381.894 268.759 381.894 268.759L381.167 264.038L387.337 264.594L389.725 265.309Z" fill="black"/>
<path opacity="0.1" d="M351.587 300.613C340.641 312.657 319.793 326.578 282.148 325.322C282.148 325.322 214.38 333.872 189.417 282.427C189.417 282.427 179.754 264.753 161.852 274.523L161.354 274.791L160.26 267.156C160.26 267.156 176.291 245.703 201.975 276.062C227.66 306.422 266.658 304.421 266.658 304.421C266.658 304.421 323.137 311.143 343.905 279.513C343.905 279.513 373.261 249.888 387.083 268.064L387.835 273.58L387.999 274.791C387.999 274.791 373.599 270.06 363.429 282.422L351.587 300.613Z" fill="black"/>
<path d="M160.27 266.064C160.27 266.064 176.301 244.616 201.99 274.97C204.917 278.433 208.151 281.625 211.653 284.507C236.417 304.883 266.663 303.344 266.663 303.344C266.663 303.344 323.137 310.071 343.905 278.441C343.905 278.441 373.261 248.811 387.083 266.987L387.994 273.714C387.994 273.714 372.52 268.591 362.31 282.79C362.31 282.79 347.552 326.415 282.148 324.235C282.148 324.235 214.38 332.779 189.417 281.335C189.417 281.335 179.58 263.338 161.364 273.699L160.27 266.064Z" fill="#00B0FF"/>
<path opacity="0.1" d="M307.931 175.557L306.618 175.661C305.219 172.911 304.866 160.767 305.374 149.294L304.284 149.249C304.045 154.646 303.533 170.687 305.563 175.741C292.696 176.694 235.546 180.571 215.156 175.711C222.211 160.847 217.121 148.37 217.066 148.241L216.071 148.663C216.121 148.787 220.972 160.653 214.325 174.976C211.006 169.793 193.467 143.793 177.854 147.174L178.087 148.241C192.517 145.103 209.459 169.535 213.18 175.209L212.514 175.041L213.957 176.431L214.454 177.21L214.549 177.022C217.176 179.841 228.883 193.599 228.247 214.058C228.067 219.842 231.899 225.03 239.327 229.071C247.666 233.609 259.016 235.972 269.221 235.972C277.406 235.972 284.859 234.453 289.422 231.316C293.099 228.789 294.746 225.308 294.193 221.242C291.173 199.055 308.364 176.793 308.653 176.426C332.187 148.321 351.597 150.336 351.791 150.356L351.926 149.274C351.09 149.175 331.824 147.124 307.931 175.557ZM293.084 221.386C293.581 225.07 292.139 228.108 288.78 230.417C278.988 237.144 254.284 235.982 239.825 228.118C234.914 225.442 229.107 220.845 229.316 214.093C229.918 194.671 219.614 181.152 215.992 177.022C237.715 181.599 294.507 177.662 306.145 176.788C306.288 176.976 306.476 177.124 306.692 177.22C302.886 182.617 290.422 201.989 293.084 221.386Z" fill="black"/>
<path opacity="0.1" d="M289.984 377.496L312.966 384.149L308.384 384.586L289.984 377.496Z" fill="black"/>
<path opacity="0.1" d="M226.585 377.313L243.163 373.316L222.017 376.886L226.585 377.313Z" fill="black"/>
<path opacity="0.1" d="M162.006 262.578V265.309L160.558 269.499C158.628 264.217 153.349 263.045 150.527 262.812C151.587 261.441 152.338 260.578 152.338 260.578L162.006 262.578Z" fill="black"/>
<path d="M188.601 251.13L184.595 250.221C184.595 250.221 184.411 251.855 181.113 252.763C177.814 253.672 163.26 258.036 161.255 258.036C159.25 258.036 150.139 258.582 149.229 262.216C149.229 262.216 159.981 261.491 161.618 270.944L192.77 269.489L188.601 251.13Z" fill="#3F3D56"/>
<path opacity="0.1" d="M188.601 251.13L184.595 250.221C184.595 250.221 184.411 251.855 181.113 252.763C177.814 253.672 163.26 258.036 161.255 258.036C159.25 258.036 150.139 258.582 149.229 262.216C149.229 262.216 159.981 261.491 161.618 270.944L192.77 269.489L188.601 251.13Z" fill="black"/>
<path d="M325.878 349.471C325.878 349.471 335.028 354.684 338.516 359.728C340.926 363.356 343.087 367.143 344.985 371.062C344.985 371.062 351.816 374.041 346.83 363.208C341.845 352.375 325.878 349.471 325.878 349.471Z" fill="#3F3D56"/>
<path d="M325.878 349.471C325.878 349.471 335.028 354.684 338.516 359.728C340.926 363.356 343.087 367.143 344.985 371.062C344.985 371.062 351.816 374.041 346.83 363.208C341.845 352.375 325.878 349.471 325.878 349.471Z" fill="#3F3D56"/>
<path opacity="0.1" d="M325.878 349.471C325.878 349.471 335.028 354.684 338.516 359.728C340.926 363.356 343.087 367.143 344.985 371.062C344.985 371.062 351.816 374.041 346.83 363.208C341.845 352.375 325.878 349.471 325.878 349.471Z" fill="black"/>
<path d="M247.92 144.225C247.338 144.905 246.925 145.714 246.393 146.429C244.074 149.304 239.705 149.179 236.382 150.793C231.834 153.002 229.635 158.463 229.764 163.513C229.894 168.562 231.899 173.343 233.779 178.034C235.66 182.726 237.471 187.621 237.203 192.66C237.043 195.639 236.158 198.539 235.277 201.393C234.705 203.24 234.013 205.251 232.351 206.244C237.329 207.133 242.371 207.618 247.428 207.693C261.937 207.917 276.45 204.789 290.89 206.229C289.151 204.655 287.853 202.656 287.127 200.428C286.4 198.201 286.268 195.823 286.745 193.529C287.148 191.722 287.919 190.024 288.521 188.272C290.522 182.382 290.541 176.002 288.576 170.101C287.989 168.358 287.233 166.67 286.735 164.903C285.591 160.792 285.894 156.418 285.078 152.233C284.262 148.047 281.814 143.669 277.659 142.666C271.908 141.281 266.892 147.298 261.364 145.645C257.15 144.384 252.065 139.409 247.92 144.225Z" fill="#3F3D56"/>
<g opacity="0.1">
<path opacity="0.1" d="M288.666 188.336C289.721 185.211 290.226 181.927 290.158 178.63C290.106 181.561 289.603 184.466 288.666 187.244C288.064 188.996 287.287 190.719 286.889 192.502C286.654 193.582 286.562 194.689 286.616 195.793C286.642 195.053 286.734 194.317 286.889 193.594C287.287 191.787 288.064 190.089 288.666 188.336Z" fill="black"/>
<path opacity="0.1" d="M237.362 191.141C237.496 186.271 235.74 181.535 233.919 176.997C232.053 172.34 230.068 167.589 229.913 162.599C229.913 162.927 229.913 163.259 229.913 163.592C230.043 168.636 232.048 173.422 233.924 178.109C235.606 182.294 237.233 186.673 237.362 191.141Z" fill="black"/>
<path opacity="0.1" d="M289.865 205.107C275.809 203.94 261.688 206.884 247.572 206.671C242.878 206.595 238.196 206.171 233.566 205.4C233.26 205.758 232.899 206.065 232.496 206.308C237.474 207.198 242.516 207.683 247.572 207.758C262.081 207.982 276.59 204.849 291.029 206.269C290.616 205.907 290.227 205.519 289.865 205.107V205.107Z" fill="black"/>
</g>
<path d="M270.778 408.158L282.789 410.367L281.963 411.797C281.963 411.797 273.793 412.572 271.689 411.797C269.584 411.023 270.778 408.158 270.778 408.158Z" fill="#3F3D56"/>
<path d="M283.153 306.456C283.153 306.456 332.959 290.788 331.137 280.789C329.316 270.79 285.088 268.377 283.153 270.944C281.217 273.511 283.153 306.456 283.153 306.456Z" fill="#3F3D56"/>
<path opacity="0.2" d="M283.153 306.456C283.153 306.456 332.959 290.788 331.137 280.789C329.316 270.79 285.088 268.377 283.153 270.944C281.217 273.511 283.153 306.456 283.153 306.456Z" fill="black"/>
<path d="M283.152 209.317L273.699 217.683L261.673 219.862L239.994 217.136L227.789 208.771C227.789 208.771 229.943 208.299 235.989 206.954L240.905 205.867C250.746 203.682 246.736 187.497 246.736 187.497C246.736 187.497 273.699 173.139 270.241 191.315C268.355 201.22 272.36 205.673 276.401 207.699C278.511 208.71 280.812 209.261 283.152 209.317Z" fill="#C37098"/>
<path opacity="0.1" d="M259.996 198.514C271.57 198.514 280.953 189.151 280.953 177.602C280.953 166.053 271.57 156.691 259.996 156.691C248.422 156.691 239.039 166.053 239.039 177.602C239.039 189.151 248.422 198.514 259.996 198.514Z" fill="black"/>
<path d="M259.996 197.968C271.57 197.968 280.953 188.605 280.953 177.056C280.953 165.507 271.57 156.145 259.996 156.145C248.422 156.145 239.039 165.507 239.039 177.056C239.039 188.605 248.422 197.968 259.996 197.968Z" fill="#C37098"/>
<path opacity="0.1" d="M283.152 209.317L273.699 217.682L261.673 219.862L239.994 217.136L227.789 208.771C227.789 208.771 229.943 208.299 235.989 206.954L237.262 207.684H276.401C278.51 208.7 280.811 209.257 283.152 209.317V209.317Z" fill="black"/>
<path d="M256.19 208.23H277.635C277.635 208.23 284.974 205.499 287.342 207.138C289.71 208.776 296.452 208.955 297.363 208.23C298.273 207.505 311.752 214.972 316.673 225.497L299.184 239.299L223.216 269.489C223.216 269.489 219.733 263.487 221.027 261.491C222.321 259.495 218.659 255.682 218.659 255.682C218.659 255.682 217.385 248.955 218.659 246.959L202.627 226.962C202.627 226.962 213.743 210.782 216.295 209.148C216.295 209.148 217.206 206.467 218.116 206.626C219.027 206.785 235.272 207.123 235.272 207.123L237.262 208.245L256.19 208.23Z" fill="#3F3D56"/>
<path opacity="0.1" d="M256.19 208.23H277.635C277.635 208.23 284.974 205.499 287.342 207.138C289.71 208.776 296.452 208.955 297.363 208.23C298.273 207.505 311.752 214.972 316.673 225.497L314.857 226.932L299.184 239.299L223.216 269.489C223.216 269.489 219.733 263.487 221.027 261.491C222.321 259.495 218.659 255.682 218.659 255.682C218.659 255.682 217.385 248.955 218.659 246.959L202.627 226.962C202.627 226.962 213.743 210.782 216.295 209.148C216.295 209.148 217.206 206.467 218.116 206.626C219.027 206.785 235.272 207.123 235.272 207.123L237.262 208.245L256.19 208.23Z" fill="black"/>
<path d="M209.369 224.951L202.627 226.937C202.627 226.937 185.869 249.675 184.596 250.221C183.322 250.767 192.79 269.489 192.79 269.489C192.79 269.489 196.069 266.942 197.711 265.309C199.353 263.676 218.659 246.939 218.659 246.939L209.369 224.951Z" fill="#3F3D56"/>
<path opacity="0.1" d="M209.369 224.951L202.627 226.937C202.627 226.937 185.869 249.675 184.596 250.221C183.322 250.767 192.79 269.489 192.79 269.489C192.79 269.489 196.069 266.942 197.711 265.309C199.353 263.676 218.659 246.939 218.659 246.939L209.369 224.951Z" fill="black"/>
<path opacity="0.1" d="M336.531 272.562L325.251 273.486L313.31 231.658L321.385 230.918C325.057 235.069 329.769 240.207 331.257 240.947C331.372 241.005 331.482 241.073 331.585 241.151C332.089 243.147 332.404 245.187 332.526 247.242C333.62 263.129 335.073 266.242 335.073 266.242C335.073 266.242 335.7 268.804 336.531 272.562Z" fill="black"/>
<path d="M374.42 373.465C374.112 373.42 373.684 373.376 373.161 373.326L372.664 373.281C366.031 372.705 347.85 371.827 347.85 371.827C347.5 370.222 347.063 368.638 346.542 367.08C346.472 366.857 346.393 366.624 346.313 366.39C344.601 361.426 341.372 354.614 336.188 352.926C327.809 350.2 322.893 347.107 327.266 340.197C331.64 333.286 329.451 329.11 329.451 329.11C329.451 329.11 323.395 314.39 321.325 312.573C320.101 311.496 317.071 305.454 314.753 299.809C314.529 299.263 314.305 298.711 314.101 298.17C312.797 294.849 311.842 291.87 311.782 290.391C311.613 286.563 304.732 254.739 303.563 249.357C303.458 248.861 303.398 248.583 303.398 248.583C303.398 248.583 303.398 248.493 303.354 248.33C303.035 246.383 301.294 233.54 310.14 231.852L321.325 230.824C321.699 230.854 330.376 231.653 331.446 247.208C332.541 263.095 333.993 266.208 333.993 266.208C333.993 266.208 338.551 284.577 338.914 294.382C339.278 304.188 350.114 328.922 350.114 328.922C350.114 328.922 360.772 349.277 361.688 354.554C362.121 357.037 362.593 360.294 363.852 362.935C363.932 363.104 364.016 363.268 364.101 363.431C365.519 366.087 367.838 367.999 371.893 367.641C372.512 367.593 373.134 367.593 373.754 367.641C374.019 367.659 374.283 367.69 374.545 367.736C379.62 368.595 377.928 373.947 374.42 373.465Z" fill="#C37098"/>
<path opacity="0.1" d="M317.788 263.283C317.604 278.575 316.877 291.85 316.877 291.85C316.877 291.85 315.962 295.251 314.748 299.794C313.126 295.822 311.847 292.094 311.762 290.361C311.568 286.21 303.359 248.583 303.359 248.583C303.359 248.583 303.359 248.493 303.314 248.33L304.448 248.583C304.448 248.583 317.947 247.992 317.788 263.283Z" fill="black"/>
<path d="M316.673 263.283C316.489 278.575 315.763 291.85 315.763 291.85C315.763 291.85 315.061 294.462 314.076 298.17C311.917 306.278 308.374 319.638 307.747 322.388C306.836 326.36 294.81 354.376 294.81 354.376C294.81 354.376 292.437 362.925 292.437 365.104C292.437 367.284 290.795 376.027 290.795 376.027V383.841C290.795 383.841 290.795 391.144 290.367 396.02C290.327 396.412 290.288 396.789 290.253 397.142C290.069 398.691 289.835 399.847 289.521 400.2C288.253 401.66 282.784 410.383 282.784 410.383C282.784 410.383 282.078 410.383 280.993 410.358C278.505 410.283 273.987 409.985 271.365 408.794C270.595 408.52 269.94 407.995 269.504 407.304C268.171 404.648 269.007 398.279 269.365 395.98C269.445 395.444 269.504 395.126 269.504 395.126C269.504 395.126 269.504 395.066 269.549 394.957C269.972 393.185 273.584 377.829 271.694 374.403C269.703 370.769 276.251 362.955 276.251 362.955C276.251 362.955 279.709 351.134 279.53 346.775C279.53 346.775 284.451 325.322 283.172 319.325C282.789 317.513 283.098 312.786 283.715 307.057C284.516 299.754 285.815 290.823 286.825 284.269C287.646 278.922 288.277 275.154 288.277 275.154C288.277 275.154 287.974 275.06 287.491 274.95C286.227 274.662 283.715 274.28 282.262 275.333C280.272 276.787 280.983 259.882 280.983 259.882L297.179 247.242L303.359 248.583C303.777 248.571 304.196 248.586 304.612 248.627C307.971 248.925 316.823 250.876 316.673 263.283Z" fill="#C37098"/>
<path d="M378.759 375.893C378.486 376.248 378.136 376.537 377.734 376.737C375.336 378.013 362.583 381.831 356.752 381.101C353.639 380.735 350.58 380 347.642 378.911C346.958 378.659 346.293 378.358 345.651 378.013H345.621C344.482 377.253 342.805 370.402 342.442 368.878C342.402 368.684 342.372 368.575 342.372 368.575C342.372 368.575 334.909 353.681 331.988 358.581L333.978 382.943H331.247C331.247 382.943 330.884 358.76 324.142 352.216C324.142 352.216 322.191 348.651 326.326 349.674C330.461 350.697 340.357 357.31 341.452 361.128C342.216 363.459 343.216 365.706 344.437 367.835C345.213 369.245 345.81 370.213 345.81 370.213L372.599 372.914L378.605 373.515C378.605 373.515 379.57 374.741 378.759 375.893Z" fill="#3F3D56"/>
<path opacity="0.1" d="M378.759 375.893C378.486 376.249 378.136 376.537 377.734 376.737C375.336 378.013 362.583 381.831 356.752 381.101C353.639 380.735 350.58 380 347.642 378.911C346.958 378.659 346.293 378.358 345.651 378.013H345.621C351.478 376.97 364.414 374.865 372.734 375.034C375.286 375.054 377.411 375.332 378.759 375.893Z" fill="black"/>
<path opacity="0.1" d="M372.609 372.353C372.609 372.651 372.609 372.964 372.639 373.286C366.007 372.71 347.826 371.832 347.826 371.832C347.423 369.982 346.91 368.159 346.288 366.37C351.075 364.181 357.931 361.823 363.837 362.925C365.225 365.839 367.574 368.014 371.878 367.631C372.497 367.583 373.119 367.583 373.739 367.631C372.99 369.093 372.603 370.712 372.609 372.353V372.353Z" fill="black"/>
<path opacity="0.1" d="M373.157 372.894C373.157 373.033 373.157 373.182 373.157 373.326L372.659 373.281C366.027 372.705 347.846 371.827 347.846 371.827C347.495 370.222 347.058 368.638 346.537 367.08C351.254 364.886 358.14 362.443 364.106 363.441C365.524 366.097 367.843 368.009 371.898 367.651C372.517 367.603 373.139 367.603 373.759 367.651C374.024 367.669 374.288 367.7 374.55 367.746C373.637 369.309 373.156 371.085 373.157 372.894V372.894Z" fill="black"/>
<path d="M372.609 372.894C372.607 373.6 372.665 374.304 372.783 374.999H372.724L347.642 378.911C346.958 378.659 346.293 378.358 345.651 378.013H345.621C344.482 377.253 342.805 370.402 342.442 368.878C343.019 368.565 343.696 368.212 344.457 367.835C349.9 365.119 359.598 361.267 366.783 364.4C366.783 364.4 372.614 367.046 374.798 366.629C374.788 366.609 372.629 368.838 372.609 372.894Z" fill="#3F3D56"/>
<path opacity="0.1" d="M290.258 397.127C290.074 398.676 289.84 399.833 289.526 400.185C288.257 401.645 282.789 410.368 282.789 410.368C282.789 410.368 282.073 410.368 280.973 410.343C280.829 407.995 279.933 404.122 275.684 404.038C272.326 403.973 271.45 406.495 271.345 408.779C270.575 408.505 269.92 407.98 269.484 407.29C268.151 404.633 268.987 398.264 269.345 395.965C271.738 396.794 281.088 399.684 290.258 397.127Z" fill="black"/>
<path opacity="0.1" d="M290.372 396.005C290.332 396.397 290.292 396.774 290.258 397.127C290.074 398.676 289.84 399.833 289.526 400.185C288.257 401.645 282.789 410.368 282.789 410.368C282.789 410.368 282.083 410.368 280.998 410.343C281.033 408.427 280.695 403.05 275.684 402.945C271.773 402.871 271.206 406.307 271.345 408.779C270.575 408.505 269.92 407.98 269.484 407.29C268.151 404.633 268.987 398.264 269.345 395.965C269.425 395.429 269.484 395.111 269.484 395.111C269.484 395.111 269.484 395.052 269.529 394.942C272.196 395.841 281.391 398.557 290.372 396.005Z" fill="black"/>
<path d="M268.758 395.191C268.758 395.191 280.326 399.823 291.258 396.278L291.915 409.092C291.915 409.092 281.416 412.766 280.968 411.574C280.968 411.574 281.784 403.631 275.684 403.517C269.584 403.402 271.674 411.822 271.674 411.822C271.674 411.822 267.032 410.393 267.121 409.211C267.211 408.029 267.788 396.308 268.758 395.191Z" fill="#3F3D56"/>
<path opacity="0.1" d="M322.39 231.355C312.031 228.267 305.702 245.435 304.627 248.613C304.518 248.93 304.463 249.109 304.463 249.109C304.15 249.179 303.836 249.253 303.538 249.338C285.685 254.009 286.76 270.189 287.471 274.901C286.208 274.613 283.695 274.231 282.242 275.283C280.252 276.738 280.963 259.833 280.963 259.833L297.179 247.242L303.359 248.583C303.359 248.583 303.359 248.494 303.314 248.33C302.995 246.384 301.254 233.54 310.101 231.852L321.286 230.824L322.39 231.355Z" fill="black"/>
<path d="M226.858 260.582L223.216 269.489C223.216 269.489 208.095 290.396 221.942 299.665C235.79 308.934 283.143 306.456 283.143 306.456L286.626 275.675C286.626 275.675 281.331 253.696 303.359 248.583C303.359 248.583 309.872 227.428 321.271 230.829L299.522 219.862L269.669 230.953L244.343 244.586L226.858 260.582Z" fill="#3F3D56"/>
<path opacity="0.1" d="M226.858 260.582L223.216 269.489C223.216 269.489 208.095 290.396 221.942 299.665C235.79 308.934 283.143 306.456 283.143 306.456L286.626 275.675C286.626 275.675 281.331 253.696 303.359 248.583C303.359 248.583 309.872 227.428 321.271 230.829L299.522 219.862L269.669 230.953L244.343 244.586L226.858 260.582Z" fill="black"/>
<path opacity="0.1" d="M227.769 277.125C227.769 277.125 232.327 266.357 237.974 263.283C243.621 260.21 227.769 277.125 227.769 277.125Z" fill="black"/>
<path opacity="0.1" d="M247.263 257.668C247.263 257.668 287.889 231.311 302.647 231.852L247.263 257.668Z" fill="black"/>
<path opacity="0.1" d="M260.165 165.265C267.708 166.01 273.167 173.407 280.645 174.614C281.275 174.762 281.935 174.725 282.546 174.509C284.456 173.67 283.824 170.835 282.884 168.979C281.471 166.192 280.056 163.407 278.64 160.623C277.595 158.568 276.5 156.453 274.734 154.963C273.241 153.722 271.425 152.977 269.594 152.407C262.399 150.078 254.289 149.492 247.458 152.724C243.616 154.546 233.267 163.885 238.686 168.378C243.542 172.409 254.468 164.699 260.165 165.265Z" fill="black"/>
<path d="M260.165 164.719C267.708 165.464 273.167 172.866 280.645 174.068C281.275 174.216 281.935 174.179 282.546 173.963C284.456 173.124 283.824 170.289 282.884 168.433C281.471 165.646 280.056 162.861 278.64 160.077C277.595 158.022 276.5 155.907 274.734 154.417C273.241 153.176 271.425 152.431 269.594 151.86C262.399 149.537 254.289 148.946 247.458 152.178C243.616 154 233.267 163.339 238.686 167.832C243.542 171.863 254.468 164.153 260.165 164.719Z" fill="#3F3D56"/>
<path opacity="0.1" d="M224.933 258.165C229.545 258.682 234.214 258.173 238.606 256.675Z" fill="black"/>
<path opacity="0.1" d="M181.749 254.794C181.749 254.794 185.232 255.29 185.232 257.673C185.232 260.056 181.749 254.794 181.749 254.794Z" fill="black"/>
<path opacity="0.1" d="M183.481 264.033C183.481 264.033 184.118 262.926 185.212 265.026C186.307 267.126 183.481 264.033 183.481 264.033Z" fill="black"/>
<path opacity="0.1" d="M282.546 172.871C281.935 173.086 281.276 173.124 280.645 172.98C273.181 171.774 267.708 164.376 260.165 163.627C254.463 163.061 243.542 170.771 238.68 166.74C238.269 166.417 237.926 166.017 237.67 165.562C237.414 165.107 237.25 164.607 237.188 164.089C237.085 164.788 237.169 165.503 237.431 166.16C237.693 166.817 238.124 167.394 238.68 167.832C243.542 171.863 254.463 164.153 260.165 164.719C267.703 165.464 273.166 172.866 280.645 174.068C281.275 174.215 281.935 174.179 282.546 173.963C283.625 173.467 283.889 172.37 283.745 171.153C283.718 171.521 283.593 171.875 283.382 172.177C283.171 172.479 282.882 172.719 282.546 172.871V172.871Z" fill="black"/>
<path opacity="0.1" d="M275.082 253.111C275.082 253.111 297.343 247.302 303.374 248.583L275.082 253.111Z" fill="black"/>
<path opacity="0.5" d="M161.862 393.234L162.927 380.048L173.44 367.929C173.44 367.929 161.966 371.007 147.93 367.165L158.971 380.073L159.394 393.234C156.035 393.607 153.488 395.404 153.488 397.569C153.488 400.001 156.712 401.977 160.683 401.977C164.653 401.977 167.882 399.991 167.882 397.569C167.882 395.389 165.275 393.577 161.862 393.234Z" fill="#D4DFEC"/>
<path opacity="0.5" d="M149.214 367.577L158.07 377.352C158.447 377.77 158.907 378.103 159.422 378.33C159.936 378.556 160.493 378.672 161.056 378.668V378.668C161.62 378.669 162.178 378.549 162.693 378.318C163.208 378.087 163.667 377.749 164.041 377.328L172.45 367.895C172.45 367.895 161.996 370.978 149.214 367.577Z" fill="#00B0FF"/>
<path opacity="0.5" d="M161.076 370.561C169.122 370.561 175.644 368.062 175.644 364.981C175.644 361.899 169.122 359.4 161.076 359.4C153.03 359.4 146.507 361.899 146.507 364.981C146.507 368.062 153.03 370.561 161.076 370.561Z" fill="#D4DFEC"/>
<path d="M160.862 369.831C168.004 369.831 173.793 367.846 173.793 365.397C173.793 362.949 168.004 360.964 160.862 360.964C153.72 360.964 147.93 362.949 147.93 365.397C147.93 367.846 153.72 369.831 160.862 369.831Z" fill="#00B0FF"/>
<path opacity="0.5" d="M164.564 370.402L162.354 376.186L164.385 370.417" fill="#00B0FF"/>
<path opacity="0.5" d="M164.658 369.637L170.44 353.224C170.455 353.183 170.478 353.145 170.508 353.113C170.537 353.081 170.573 353.055 170.613 353.037C170.653 353.019 170.696 353.009 170.74 353.008C170.783 353.007 170.827 353.015 170.868 353.03V353.03C170.945 353.062 171.008 353.123 171.041 353.2C171.074 353.277 171.077 353.364 171.047 353.442L164.862 369.618" fill="#3F3D56"/>
<path d="M167.106 362.692L170.44 353.224C170.455 353.183 170.478 353.145 170.508 353.113C170.537 353.081 170.573 353.055 170.613 353.037C170.653 353.019 170.696 353.009 170.74 353.008C170.783 353.007 170.827 353.015 170.868 353.03C170.945 353.062 171.008 353.123 171.041 353.2C171.074 353.277 171.077 353.364 171.047 353.442L167.489 362.751" fill="#3F3D56"/>
<path d="M168.081 363.585C169.645 363.585 170.913 362.321 170.913 360.76C170.913 359.2 169.645 357.936 168.081 357.936C166.518 357.936 165.25 359.2 165.25 360.76C165.25 362.321 166.518 363.585 168.081 363.585Z" fill="#00B0FF"/>
<path opacity="0.5" d="M168.081 363.585C169.645 363.585 170.913 362.321 170.913 360.76C170.913 359.2 169.645 357.936 168.081 357.936C166.518 357.936 165.25 359.2 165.25 360.76C165.25 362.321 166.518 363.585 168.081 363.585Z" fill="white"/>
<path d="M168.39 361.59C169.049 361.59 169.584 361.056 169.584 360.398C169.584 359.74 169.049 359.207 168.39 359.207C167.73 359.207 167.196 359.74 167.196 360.398C167.196 361.056 167.73 361.59 168.39 361.59Z" fill="#00B0FF"/>
<path opacity="0.25" d="M168.39 361.59C169.049 361.59 169.584 361.056 169.584 360.398C169.584 359.74 169.049 359.207 168.39 359.207C167.73 359.207 167.196 359.74 167.196 360.398C167.196 361.056 167.73 361.59 168.39 361.59Z" fill="black"/>
<path opacity="0.3" d="M165.315 361.321C165.407 361.873 165.661 362.385 166.045 362.792C166.43 363.199 166.926 363.484 167.472 363.609C168.018 363.735 168.59 363.696 169.113 363.497C169.637 363.298 170.09 362.949 170.415 362.493C168.765 361.911 167.054 361.518 165.315 361.321V361.321Z" fill="#00B0FF"/>
<path d="M61.2699 258.785H58.4437V322.284H61.2699V258.785Z" fill="#535461"/>
<path d="M79.0327 322.09L78.8536 324.95L78.6048 328.986L78.5003 330.669L78.2515 334.711L78.1421 336.394L77.8933 340.43L75.0373 386.343C74.9144 388.318 74.0416 390.172 72.5967 391.527C71.1517 392.882 69.2434 393.637 67.2604 393.637H52.448C50.465 393.637 48.5566 392.882 47.1117 391.527C45.6667 390.172 44.7939 388.318 44.6711 386.343L41.8151 340.43L41.5663 336.394L41.4618 334.711L41.208 330.669L41.1035 328.986L40.8548 324.95L40.6756 322.09C40.6417 321.541 40.7207 320.991 40.9079 320.474C41.0951 319.957 41.3865 319.484 41.7641 319.083C42.1418 318.683 42.5976 318.364 43.1035 318.146C43.6095 317.928 44.1548 317.815 44.7059 317.816H75.0074C75.5581 317.816 76.1029 317.929 76.6082 318.147C77.1136 318.365 77.5688 318.685 77.9459 319.085C78.323 319.485 78.6139 319.959 78.8008 320.475C78.9877 320.992 79.0666 321.542 79.0327 322.09Z" fill="#3F3D56"/>
<path d="M78.8537 324.95L78.6049 328.986H41.1036L40.8549 324.95H78.8537Z" fill="#9D9CB5"/>
<path d="M78.5004 330.669L78.2516 334.71H41.4619L41.2081 330.669H78.5004Z" fill="#9D9CB5"/>
<path d="M78.1421 336.394L77.8933 340.43H41.82L41.5663 336.394H78.1421Z" fill="#9D9CB5"/>
<path d="M36.536 282.586C53.0004 294.472 59.8518 313.054 59.8518 313.054C59.8518 313.054 40.019 312.374 23.5546 300.494C7.09032 288.613 0.238892 270.025 0.238892 270.025C0.238892 270.025 20.0767 270.706 36.536 282.586Z" fill="#00B0FF"/>
<path d="M0.238892 270.025C0.238892 270.025 20.828 281.444 27.4356 290.877C34.0432 300.31 59.8518 313.059 59.8518 313.059" stroke="#535461" stroke-width="2" stroke-miterlimit="10"/>
<path d="M47.164 258.661C56.1201 265.115 59.8518 275.243 59.8518 275.243C59.8518 275.243 49.0597 274.876 40.0986 268.407C31.1375 261.938 27.4058 251.825 27.4058 251.825C27.4058 251.825 38.2029 252.207 47.164 258.661Z" fill="#00B0FF"/>
<path d="M27.4058 251.81C27.4058 251.81 38.6109 258.016 42.2082 263.154C45.8056 268.293 59.8518 275.228 59.8518 275.228" stroke="#535461" stroke-width="2" stroke-miterlimit="10"/>
<path d="M72.873 274.717C62.5834 286.002 60.4041 300.752 60.4041 300.752C60.4041 300.752 74.913 297.197 85.2075 285.912C95.5021 274.628 97.6764 259.878 97.6764 259.878C97.6764 259.878 83.1675 263.427 72.873 274.717Z" fill="#00B0FF"/>
<path d="M97.6764 259.878C97.6764 259.878 84.2671 271.445 80.8638 279.419C77.4605 287.392 60.4041 300.767 60.4041 300.767" stroke="#535461" stroke-width="2" stroke-miterlimit="10"/>
<path opacity="0.1" d="M430.889 318.789C430.889 318.789 433.765 322.537 429.56 328.222C425.356 333.906 421.893 338.648 423.296 342.197C423.296 342.197 429.635 331.682 434.795 331.533C439.954 331.384 436.566 325.114 430.889 318.789Z" fill="black"/>
<path opacity="0.1" d="M430.889 318.789C431.14 319.151 431.338 319.547 431.476 319.965C436.511 325.868 439.193 331.384 434.352 331.513C429.844 331.642 424.435 339.685 423.142 341.716C423.183 341.873 423.234 342.027 423.296 342.178C423.296 342.178 429.635 331.662 434.794 331.513C439.954 331.364 436.566 325.114 430.889 318.789Z" fill="black"/>
<path d="M436.233 323.57C436.233 324.89 436.083 325.958 435.899 325.958C435.715 325.958 435.571 324.89 435.571 323.57C435.571 322.249 435.755 322.87 435.939 322.87C436.123 322.87 436.233 322.249 436.233 323.57Z" fill="#3F3D56"/>
<path d="M438.069 325.143C436.904 325.779 435.894 326.161 435.805 325.997C435.715 325.834 436.586 325.193 437.75 324.563C438.914 323.932 438.452 324.394 438.541 324.563C438.631 324.731 439.228 324.513 438.069 325.143Z" fill="#3F3D56"/>
<path d="M415.703 318.789C415.703 318.789 412.827 322.537 417.027 328.222C421.226 333.906 424.694 338.648 423.296 342.197C423.296 342.197 416.957 331.682 411.792 331.533C406.628 331.384 410.026 325.114 415.703 318.789Z" fill="#3F3D56"/>
<path d="M430.889 318.789C430.889 318.789 433.765 322.537 429.56 328.222C425.356 333.906 421.893 338.648 423.296 342.197C423.296 342.197 429.635 331.682 434.795 331.533C439.954 331.384 436.566 325.114 430.889 318.789Z" fill="#D4DFEC"/>
<path opacity="0.1" d="M415.703 318.789C415.703 318.789 412.827 322.537 417.027 328.222C421.226 333.906 424.694 338.648 423.296 342.197C423.296 342.197 416.957 331.682 411.792 331.533C406.628 331.384 410.026 325.114 415.703 318.789Z" fill="black"/>
<path opacity="0.1" d="M415.703 318.789C415.451 319.151 415.253 319.547 415.116 319.965C410.081 325.868 407.399 331.384 412.235 331.513C416.743 331.642 422.151 339.685 423.45 341.716C423.407 341.872 423.355 342.026 423.296 342.178C423.296 342.178 416.957 331.642 411.792 331.513C406.628 331.384 410.026 325.114 415.703 318.789Z" fill="black"/>
<path d="M410.334 323.57C410.334 324.89 410.484 325.958 410.668 325.958C410.852 325.958 411.001 324.89 411.001 323.57C411.001 322.249 410.817 322.87 410.633 322.87C410.449 322.87 410.334 322.249 410.334 323.57Z" fill="#D4DFEC"/>
<path d="M408.523 325.143C409.682 325.779 410.697 326.161 410.787 325.997C410.877 325.834 410.001 325.193 408.842 324.563C407.682 323.932 408.135 324.394 408.05 324.563C407.966 324.731 407.349 324.513 408.523 325.143Z" fill="#D4DFEC"/>
<path d="M438.765 337.104L438.621 338.275L438.422 339.929L438.337 340.619L438.133 342.277L438.049 342.967L437.845 344.62L435.546 363.436C435.342 365.114 432.59 366.415 429.272 366.415H417.3C413.977 366.415 411.23 365.105 411.026 363.436L408.722 344.62L408.523 342.967L408.439 342.277L408.23 340.619L408.15 339.929L407.946 338.275L407.847 337.104C407.732 336.155 409.22 335.351 411.101 335.351H435.546C437.392 335.371 438.885 336.175 438.765 337.104Z" fill="#3F3D56"/>
<path d="M438.626 338.295L438.422 339.948H408.17L407.966 338.295H438.626Z" fill="#9D9CB5"/>
<path d="M438.337 340.638L438.138 342.297H408.459L408.255 340.638H438.337Z" fill="#9D9CB5"/>
<path d="M438.048 342.987L437.849 344.64H408.742L408.543 342.987H438.048Z" fill="#9D9CB5"/>
</g>
<defs>
<linearGradient id="paint0_linear" x1="271.644" y1="413.222" x2="271.644" y2="126.526" gradientUnits="userSpaceOnUse">
<stop stop-color="#808080" stop-opacity="0.25"/>
<stop offset="0.54" stop-color="#808080" stop-opacity="0.12"/>
<stop offset="1" stop-color="#808080" stop-opacity="0.1"/>
</linearGradient>
<clipPath id="clip0">
<rect width="500" height="422" fill="white"/>
</clipPath>
</defs>
</svg>
