<svg width="350" height="250" viewBox="0 0 350 250" fill="none" xmlns="http://www.w3.org/2000/svg">
<g clip-path="url(#clip0)">
<path opacity="0.1" d="M343.692 168.183C335.593 184.873 319.146 196.033 302.102 203.393C279.156 213.304 253.888 217.235 228.967 215.573C224.599 215.282 220.245 214.819 215.904 214.181C200.828 211.984 186.129 207.709 172.229 201.477C168.217 199.673 164.286 197.702 160.437 195.567C154.008 192.007 147.848 187.983 142.006 183.527C140.537 182.406 139.088 181.257 137.659 180.08C136.668 179.264 135.687 178.429 134.69 177.619C132.587 175.911 130.422 174.288 128.008 173.073C127.279 172.706 126.532 172.377 125.77 172.086C118.125 169.181 109.309 170.278 101.349 172.543C95.2948 174.267 89.393 176.627 83.3448 178.31C80.6546 179.082 77.9134 179.664 75.1414 180.052C68.9527 180.835 62.6679 180.283 56.7105 178.435L56.2014 178.277C55.3478 178.009 54.5013 177.716 53.662 177.397L53.1529 177.202C52.34 176.889 51.5443 176.553 50.766 176.194L50.2569 175.963C49.444 175.585 48.6483 175.186 47.8699 174.766C47.5895 174.62 47.3121 174.462 47.0377 174.312C42.6091 171.842 38.5836 168.711 35.0999 165.028C34.9993 164.928 34.9048 164.824 34.7951 164.723C34.3104 164.2 33.8348 163.667 33.3745 163.122C33.2038 162.921 33.0331 162.72 32.8654 162.513C32.3187 161.847 31.7913 161.166 31.2833 160.47C31.2071 160.369 31.1339 160.266 31.0607 160.165C28.9791 157.288 27.2534 154.171 25.921 150.881C25.8784 150.78 25.8387 150.677 25.8021 150.576C25.3957 149.531 25.0248 148.468 24.6895 147.388C24.5523 146.937 24.4212 146.474 24.3053 146.024C24.2657 145.89 24.2291 145.753 24.1956 145.619C22.5129 139.002 22.3208 132.123 22.3208 125.284C22.3208 124.486 22.3208 123.689 22.3208 122.894C22.3696 111.831 22.5403 100.58 24.1743 89.6691C24.1743 89.593 24.1956 89.5168 24.2078 89.4438C24.7547 85.7708 25.4986 82.1297 26.4362 78.5364C27.4176 74.766 28.6718 71.0718 30.1889 67.4829C33.9476 58.6522 39.4135 50.6163 45.483 43.1681C60.771 24.4259 80.8207 8.69209 104.288 2.80296C129.575 -3.53988 157.678 2.53804 178.076 18.759C184.295 23.7042 189.882 29.5598 196.866 33.3509C202.963 36.6517 210.1 38.019 216.63 35.4215C222.025 33.2748 225.537 32.209 231.597 32.5348C244.144 33.2438 256.512 35.8315 268.289 40.2114C268.764 40.385 269.24 40.5646 269.712 40.7443C300.413 52.4769 326.804 75.7867 340.522 105.741C340.886 106.533 341.238 107.33 341.58 108.134C349.759 127.218 352.716 149.583 343.692 168.183Z" fill="#00B0FF"/>
<path opacity="0.1" d="M36.673 226.578C51.536 226.578 63.5848 224.644 63.5848 222.26C63.5848 219.875 51.536 217.942 36.673 217.942C21.81 217.942 9.76123 219.875 9.76123 222.26C9.76123 224.644 21.81 226.578 36.673 226.578Z" fill="#00B0FF"/>
<path opacity="0.1" d="M278.099 250C304.452 250 325.816 247.928 325.816 245.372C325.816 242.815 304.452 240.743 278.099 240.743C251.745 240.743 230.381 242.815 230.381 245.372C230.381 247.928 251.745 250 278.099 250Z" fill="#00B0FF"/>
<path d="M321.301 33.1438H39.2123C37.1095 33.1438 35.4048 34.8466 35.4048 36.9471V193.265C35.4048 195.365 37.1095 197.068 39.2123 197.068H321.301C323.404 197.068 325.109 195.365 325.109 193.265V36.9471C325.109 34.8466 323.404 33.1438 321.301 33.1438Z" fill="url(#paint0_linear)"/>
<path d="M320.875 35.4489H39.6726C37.5698 35.4489 35.8651 37.1516 35.8651 39.2521V192.72C35.8651 194.82 37.5698 196.523 39.6726 196.523H320.875C322.977 196.523 324.682 194.82 324.682 192.72V39.2521C324.682 37.1516 322.977 35.4489 320.875 35.4489Z" fill="white"/>
<path d="M320.875 35.4489H39.6726C37.5698 35.4489 35.8651 37.1516 35.8651 39.2521V192.72C35.8651 194.82 37.5698 196.523 39.6726 196.523H320.875C322.977 196.523 324.682 194.82 324.682 192.72V39.2521C324.682 37.1516 322.977 35.4489 320.875 35.4489Z" fill="white"/>
<path opacity="0.04" d="M320.875 35.4489H39.6726C37.5698 35.4489 35.8651 37.1516 35.8651 39.2521V192.72C35.8651 194.82 37.5698 196.523 39.6726 196.523H320.875C322.977 196.523 324.682 194.82 324.682 192.72V39.2521C324.682 37.1516 322.977 35.4489 320.875 35.4489Z" fill="white"/>
<path d="M323.216 33.6006H37.3314C36.9425 33.6006 36.5696 33.7549 36.2946 34.0296C36.0196 34.3043 35.8651 34.6768 35.8651 35.0653V41.2558H324.67V35.0653C324.67 34.6789 324.517 34.3082 324.245 34.0339C323.972 33.7595 323.603 33.6038 323.216 33.6006Z" fill="#5A5773"/>
<path d="M41.6329 39.4074C42.7272 39.4074 43.6144 38.5213 43.6144 37.4281C43.6144 36.335 42.7272 35.4489 41.6329 35.4489C40.5385 35.4489 39.6514 36.335 39.6514 37.4281C39.6514 38.5213 40.5385 39.4074 41.6329 39.4074Z" fill="white"/>
<path d="M46.9677 39.4074C48.0621 39.4074 48.9492 38.5213 48.9492 37.4281C48.9492 36.335 48.0621 35.4489 46.9677 35.4489C45.8734 35.4489 44.9862 36.335 44.9862 37.4281C44.9862 38.5213 45.8734 39.4074 46.9677 39.4074Z" fill="white"/>
<path d="M52.3024 39.4074C53.3968 39.4074 54.2839 38.5213 54.2839 37.4281C54.2839 36.335 53.3968 35.4489 52.3024 35.4489C51.2081 35.4489 50.3209 36.335 50.3209 37.4281C50.3209 38.5213 51.2081 39.4074 52.3024 39.4074Z" fill="white"/>
<path opacity="0.2" d="M137.159 55.6528H59.6522V62.2241H137.159V55.6528Z" fill="#00B0FF"/>
<path opacity="0.1" d="M300.895 82.0017H59.6522V183.085H300.895V82.0017Z" fill="#5A5773"/>
<path opacity="0.1" d="M200.903 88.5942H196.772V80.5796C196.772 71.5358 189.553 64.0176 180.499 63.8806C178.316 63.8576 176.15 64.2665 174.126 65.0837C172.101 65.9008 170.259 67.11 168.705 68.6416C167.15 70.1732 165.915 71.997 165.069 74.0077C164.224 76.0184 163.785 78.1764 163.778 80.3573V88.5942H159.657C157.836 88.5998 156.09 89.325 154.802 90.6116C153.514 91.8981 152.788 93.6414 152.783 95.4608V128.414C152.788 130.234 153.514 131.977 154.802 133.263C156.09 134.55 157.836 135.275 159.657 135.281H200.903C202.724 135.275 204.469 134.55 205.756 133.263C207.044 131.977 207.769 130.233 207.774 128.414V95.4608C207.769 93.6416 207.044 91.8983 205.756 90.6117C204.469 89.3251 202.724 88.5998 200.903 88.5942ZM182.688 110.016V121.819C182.692 122.444 182.458 123.047 182.034 123.506C181.609 123.965 181.026 124.246 180.402 124.291C180.076 124.307 179.75 124.256 179.445 124.142C179.139 124.028 178.86 123.853 178.624 123.628C178.388 123.403 178.201 123.133 178.072 122.833C177.944 122.534 177.878 122.211 177.878 121.886V110.01C176.762 109.467 175.864 108.562 175.33 107.443C174.796 106.325 174.657 105.058 174.936 103.851C175.215 102.643 175.896 101.566 176.867 100.794C177.838 100.022 179.042 99.6024 180.283 99.6024C181.524 99.6024 182.728 100.022 183.699 100.794C184.67 101.566 185.35 102.643 185.629 103.851C185.909 105.058 185.77 106.325 185.235 107.443C184.701 108.562 183.803 109.467 182.688 110.01V110.016ZM191.968 88.5942H168.589V80.3573C168.589 77.2618 169.82 74.2931 172.011 72.1042C174.203 69.9153 177.175 68.6856 180.274 68.6856C183.373 68.6856 186.345 69.9153 188.536 72.1042C190.727 74.2931 191.958 77.2618 191.958 80.3573L191.968 88.5942Z" fill="black"/>
<path d="M200.903 87.9852H196.772V79.9706C196.772 70.9268 189.553 63.4086 180.499 63.2715C178.316 63.2486 176.15 63.6575 174.126 64.4747C172.101 65.2918 170.259 66.501 168.705 68.0326C167.15 69.5642 165.915 71.388 165.069 73.3987C164.224 75.4094 163.785 77.5674 163.778 79.7483V87.9852H159.657C157.836 87.9908 156.09 88.716 154.802 90.0026C153.514 91.2891 152.788 93.0324 152.783 94.8518V127.805C152.788 129.625 153.514 131.368 154.802 132.655C156.09 133.941 157.836 134.666 159.657 134.672H200.903C202.724 134.666 204.469 133.941 205.756 132.654C207.044 131.368 207.769 129.624 207.774 127.805V94.8518C207.769 93.0326 207.044 91.2894 205.756 90.0028C204.469 88.7161 202.724 87.9908 200.903 87.9852V87.9852ZM182.688 109.407V121.21C182.692 121.835 182.458 122.438 182.034 122.897C181.609 123.356 181.026 123.637 180.402 123.682C180.076 123.698 179.75 123.647 179.445 123.533C179.139 123.419 178.86 123.244 178.624 123.019C178.388 122.794 178.201 122.524 178.072 122.224C177.944 121.925 177.878 121.602 177.878 121.277V109.401C176.762 108.858 175.864 107.953 175.33 106.834C174.796 105.716 174.657 104.449 174.936 103.242C175.215 102.034 175.896 100.957 176.867 100.185C177.838 99.4135 179.042 98.9935 180.283 98.9935C181.524 98.9935 182.728 99.4135 183.699 100.185C184.67 100.957 185.35 102.034 185.629 103.242C185.909 104.449 185.77 105.716 185.235 106.834C184.701 107.953 183.803 108.858 182.688 109.401V109.407ZM191.968 87.9852H168.589V79.7483C168.589 76.6528 169.82 73.6841 172.011 71.4952C174.203 69.3063 177.175 68.0766 180.274 68.0766C183.373 68.0766 186.345 69.3063 188.536 71.4952C190.727 73.6841 191.958 76.6528 191.958 79.7483L191.968 87.9852Z" fill="#00B0FF"/>
<path opacity="0.1" d="M300.895 72.2727H276.477V78.0309H300.895V72.2727Z" fill="#5A5773"/>
<path d="M309.205 246.766C309.044 245.959 308.769 245.179 308.388 244.449L304.73 238.992H304.751C304.751 238.992 304.175 236.252 304.751 234.906C305.328 233.56 302.697 230.25 302.697 230.25C302.697 230.25 302.377 229.419 303.212 228.395C304.047 227.372 302.697 224.376 302.697 224.376C302.697 224.376 302.057 218.118 301.992 217.162C301.928 216.206 301.413 210.908 301.413 210.908L300.194 199.674L298.023 169.903L297.984 169.346C298.252 169.215 298.395 169.133 298.395 169.133L297.962 152.671L298.337 152.333C301.611 149.373 309.162 142.522 309.086 142.373C309.01 142.224 308.172 130.932 308.074 128.107C307.99 126.098 307.551 124.121 306.776 122.266C306.587 121.892 306.041 119.422 305.815 118.378C305.754 118.091 305.715 117.912 305.715 117.912C305.715 117.912 303.501 113.697 303.694 111.782C303.886 109.867 304.27 108.433 299.551 107.763C299.551 107.763 295.588 107.172 293.228 105.561C291.833 104.596 290.308 103.834 288.698 103.296C288.698 103.296 287.375 100.86 286.454 101.685C286.065 100.816 285.773 99.9055 285.586 98.9716L285.558 98.8011C287.306 97.5839 288.563 95.7859 289.107 93.7281C289.137 93.6123 289.162 93.4936 289.189 93.3779C289.28 93.4088 289.376 93.4263 289.472 93.4296C290.274 93.4296 290.768 92.5374 291.518 92.2542C291.823 92.1355 292.198 92.1172 292.433 91.8767C292.51 91.7839 292.568 91.6765 292.602 91.5608C292.637 91.4451 292.648 91.3236 292.634 91.2037C292.641 91.1206 292.641 91.0371 292.634 90.954C292.635 90.9246 292.635 90.8951 292.634 90.8657V90.8962C292.429 89.7878 291.57 88.8042 291.664 87.6775C291.756 86.6179 292.689 85.6861 292.612 84.6538C292.611 84.5722 292.604 84.4908 292.591 84.4102V84.4467C292.477 84.0437 292.268 83.674 291.981 83.3688C291.653 82.9222 291.222 82.5609 290.725 82.3152C290.302 82.1295 289.811 82.0868 289.415 81.8645C288.25 81.2312 288.253 79.5807 287.561 78.4541C287.265 77.9837 286.844 77.6043 286.345 77.3577C285.847 77.1111 285.289 77.0068 284.735 77.0564C283.869 77.1417 283.086 77.6015 282.229 77.7507C281.059 77.9577 279.867 77.5771 278.757 77.1417C277.648 76.7062 276.523 76.2281 275.331 76.2281C274.139 76.2281 272.849 76.8372 272.49 77.9608C272.297 78.5698 272.392 79.2245 272.246 79.8426C271.983 80.9328 271.026 81.7123 270.036 82.2543C269.426 82.5923 268.7 82.979 268.511 83.6185C268.511 83.6002 268.511 83.585 268.511 83.5698C268.498 83.6208 268.487 83.6727 268.481 83.7251C268.475 83.7929 268.475 83.8612 268.481 83.9291C268.481 84.3676 268.712 84.7847 268.868 85.2019C269.158 85.9956 269.151 86.867 268.85 87.6562C268.624 88.2348 268.24 88.7433 268.02 89.3188C267.917 89.5869 267.849 89.8674 267.819 90.1532V90.1044C267.812 90.2343 267.812 90.3644 267.819 90.4942C267.815 90.9389 267.92 91.3778 268.124 91.7731C268.264 92.0461 268.457 92.2883 268.692 92.4855C268.927 92.6826 269.2 92.8308 269.493 92.9211C270.103 93.0612 270.484 92.4644 271.127 92.6166C271.242 92.6443 271.355 92.6799 271.465 92.7232C271.487 92.8602 271.508 92.9972 271.532 93.1312C271.921 95.1806 273.015 97.0299 274.623 98.3596C274.623 98.4327 274.648 98.5057 274.657 98.5819C274.852 99.7959 274.936 101.025 274.91 102.254C274.91 102.254 273.95 100.85 272.633 103.561C272.633 103.561 269.197 105.54 268.011 105.765C266.825 105.99 262.616 107.455 262.616 107.455C261.981 107.914 261.217 108.16 260.433 108.159C259.119 108.159 258.028 111.03 258.186 112.592C258.345 114.154 258.092 115.305 256.869 115.369C255.647 115.433 256.314 117.909 256.324 117.951L256.211 118.484C255.973 119.574 255.455 121.913 255.272 122.278C254.497 124.133 254.056 126.111 253.97 128.119C253.876 130.945 253.056 142.193 252.961 142.385C252.897 142.51 258.07 147.233 261.707 150.533L262.234 151.008L260.561 166.624C260.61 167.225 260.789 167.809 261.086 168.335C261.382 168.86 261.79 169.316 262.28 169.669C262.28 169.851 262.28 170.037 262.262 170.229C262.189 172.056 262.042 174.267 261.75 174.845C261.238 175.868 261.366 181.355 261.366 181.355C261.366 181.355 260.85 192.525 260.21 193.74C259.57 194.955 259.439 197.503 259.631 198.003C259.823 198.502 258.988 211.916 258.988 211.916L258.348 217.917C258.348 217.917 258.54 223.66 257.961 223.788C257.381 223.916 257.061 227.875 257.061 227.875C257.061 227.875 255.01 230.682 255.906 231.702C256.802 232.722 255.775 233.173 255.68 233.426C255.586 233.679 253.723 234.644 255.071 238.213C255.083 238.248 255.097 238.282 255.113 238.316C253.851 240.067 249.852 245.716 250.096 246.574C250.276 247.121 250.657 247.578 251.162 247.853C252.104 248.417 253.72 248.678 256.29 247.853C260.558 246.48 260.253 245.49 260.253 245.49C260.275 245.028 260.474 244.591 260.808 244.27C261.143 243.95 261.588 243.769 262.052 243.767C263.817 243.639 265.134 242.013 265.134 242.013L264.926 241.242L264.643 240.177C264.676 239.872 264.893 239.339 265.862 239.044C267.341 238.596 266.953 235.789 266.953 235.789C266.953 235.789 266.825 232.853 267.466 232.47C268.106 232.086 267.853 227.235 267.853 227.235C267.853 227.235 268.56 223.724 269.584 221.361C270.609 218.998 271.834 204.961 271.834 204.961C271.834 204.961 272.666 198.067 273.438 196.087C274.209 194.108 274.916 188.557 274.916 188.557C274.916 188.557 279.669 179.364 279.73 177.321C279.73 177.321 280.339 175.405 280.949 177.513C281.559 179.62 283.272 184.662 283.272 184.662L284.939 190.853L286.93 200.107L288.216 207.896C288.216 207.896 288.021 210.832 288.521 211.855C289.021 212.878 289.741 215.235 289.357 215.682C288.973 216.13 290.125 218.237 290.448 218.682C290.771 219.126 290.448 228.575 290.448 228.575C290.448 228.575 291.923 236.617 294.042 238.015C294.19 238.112 294.347 238.193 294.512 238.258C294.481 239.129 294.451 240.295 294.49 240.904C294.486 241.041 294.508 241.176 294.557 241.303C294.749 241.559 296.932 243.283 297.383 243.283C297.834 243.283 299.435 244.4 299.502 244.942C299.569 245.484 304.193 247.78 304.849 247.847C305.504 247.914 308.681 248.484 309.117 247.591C309.225 247.33 309.255 247.044 309.205 246.766ZM297.844 131.749L298.173 132.032C298.173 132.032 298.511 134.666 298.752 135.454C298.993 136.243 298.703 137.778 298.703 137.778C298.725 138.351 298.84 138.916 299.042 139.453C299.328 140.028 298.462 141.28 298.462 141.28H297.691L297.45 131.42L297.844 131.749ZM274.91 102.309V102.251C274.904 102.269 274.901 102.291 274.901 102.309H274.91ZM263.067 140.266C262.948 140.01 262.931 139.72 263.018 139.453C263.086 139.308 263.141 139.157 263.18 139.002C263.274 138.602 263.333 138.194 263.356 137.784C263.357 137.779 263.357 137.774 263.356 137.769C263.329 137.622 263.082 136.21 263.311 135.46C263.539 134.711 263.887 132.038 263.887 132.038L264.106 131.852L264.615 131.411C264.615 131.411 264.615 131.246 264.652 130.975C264.759 133.289 264.844 135.847 264.707 135.975C264.451 136.228 263.518 138.716 263.743 138.813C263.817 138.847 263.716 139.842 263.545 141.182C263.354 140.894 263.193 140.587 263.067 140.266V140.266Z" fill="url(#paint1_linear)"/>
<path d="M287.637 104.742V108.53L279.858 112.437C279.858 112.437 272.133 107.769 274.038 105.911C275.257 104.736 275.023 101.508 274.694 99.2884C274.501 97.9973 274.279 97.0503 274.279 97.0503C274.279 97.0503 288.156 93.0917 286.058 96.0972C285.357 97.102 285.302 98.4023 285.537 99.6903C286.012 102.245 287.637 104.742 287.637 104.742Z" fill="#C37098"/>
<path d="M266.326 141.785L265.323 154.124C265.323 154.124 263.82 152.762 261.875 150.99C258.268 147.705 253.147 143.006 253.208 142.881C253.303 142.689 254.123 131.496 254.211 128.682C254.294 126.685 254.73 124.718 255.497 122.872C255.68 122.507 256.196 120.18 256.412 119.093C256.485 118.755 256.531 118.536 256.531 118.536L258.214 117.86C258.214 117.86 265.225 125.674 265.225 125.817C265.225 125.96 264.746 131.962 264.746 131.962L264.25 132.394L264.033 132.58C264.033 132.58 263.698 135.202 263.46 135.987C263.222 136.773 263.478 138.137 263.506 138.283C263.483 138.694 263.425 139.101 263.332 139.501C263.292 139.655 263.238 139.805 263.17 139.949C263.084 140.215 263.102 140.505 263.219 140.759C263.355 141.112 263.531 141.448 263.744 141.761L266.326 141.785Z" fill="#3F3D56"/>
<path d="M308.818 142.881C308.891 143.031 301.413 149.848 298.173 152.793L296.703 154.124L295.71 141.785H298.286C298.286 141.785 299.145 140.546 298.859 139.973C298.659 139.44 298.547 138.877 298.526 138.308C298.526 138.308 298.81 136.785 298.572 135.996C298.334 135.208 297.999 132.589 297.999 132.589L297.673 132.309L297.286 131.971C297.286 131.971 296.807 125.969 296.807 125.826C296.807 125.683 303.818 117.869 303.818 117.869L305.489 118.536C305.489 118.536 305.526 118.716 305.587 119.002C305.812 120.04 306.352 122.498 306.538 122.872C307.305 124.718 307.741 126.685 307.824 128.682C307.903 131.496 308.72 142.689 308.818 142.881Z" fill="#3F3D56"/>
<path d="M308.848 247.613C308.4 248.502 305.254 247.917 304.605 247.869C303.956 247.82 299.371 245.515 299.307 244.976C299.243 244.437 297.655 243.325 297.209 243.325C296.764 243.325 294.603 241.608 294.411 241.355C294.362 241.229 294.341 241.094 294.347 240.959C294.28 239.915 294.411 237.226 294.411 237.226L303.633 237.735L308.114 244.467C308.491 245.194 308.764 245.97 308.925 246.772C308.979 247.054 308.953 247.345 308.848 247.613V247.613Z" fill="#3F3D56"/>
<path opacity="0.1" d="M308.848 247.613C308.4 248.502 305.254 247.917 304.605 247.869C303.956 247.82 299.371 245.515 299.307 244.976C299.243 244.437 297.655 243.325 297.209 243.325C296.764 243.325 294.603 241.608 294.411 241.355C294.362 241.229 294.341 241.094 294.347 240.959C294.28 239.915 294.411 237.226 294.411 237.226L303.633 237.735L308.114 244.467C308.491 245.194 308.764 245.97 308.925 246.772C308.979 247.054 308.953 247.345 308.848 247.613V247.613Z" fill="black"/>
<path opacity="0.1" d="M308.848 247.613C308.4 248.502 305.254 247.917 304.605 247.868C303.956 247.82 299.371 245.515 299.307 244.976C299.243 244.437 297.654 243.325 297.209 243.325C296.764 243.325 294.603 241.608 294.411 241.355C294.362 241.229 294.34 241.094 294.347 240.959L297.334 242.847C297.334 242.847 299.243 244.065 299.752 244.787C300.261 245.509 304.273 247.01 304.605 247.04C304.852 247.065 307.486 246.559 308.925 246.772C308.979 247.054 308.953 247.345 308.848 247.613V247.613Z" fill="black"/>
<path d="M265.255 242.056C265.255 242.056 263.951 243.676 262.207 243.8C261.747 243.804 261.306 243.984 260.974 244.303C260.643 244.622 260.447 245.056 260.427 245.515C260.427 245.515 260.732 246.501 256.516 247.869C253.97 248.688 252.37 248.429 251.437 247.869C250.936 247.593 250.558 247.138 250.379 246.596C250.092 245.582 255.72 237.863 255.72 237.863L260.841 237.558L264.499 239.209L265.06 241.3L265.255 242.056Z" fill="#3F3D56"/>
<path opacity="0.1" d="M265.255 242.056C265.255 242.056 263.951 243.676 262.207 243.8C261.747 243.804 261.306 243.984 260.974 244.303C260.643 244.622 260.447 245.056 260.427 245.515C260.427 245.515 260.732 246.501 256.516 247.869C253.97 248.688 252.37 248.429 251.437 247.869C250.936 247.593 250.558 247.138 250.379 246.596C250.092 245.582 255.72 237.863 255.72 237.863L260.841 237.558L264.499 239.209L265.06 241.3L265.255 242.056Z" fill="black"/>
<path opacity="0.1" d="M265.256 242.056C265.256 242.056 263.951 243.676 262.207 243.8C261.747 243.804 261.306 243.984 260.974 244.303C260.643 244.622 260.447 245.056 260.427 245.515C260.427 245.515 260.732 246.501 256.516 247.869C253.97 248.688 252.37 248.429 251.437 247.869C253.836 247.619 259.137 246.106 259.668 245.582C260.305 244.945 261.1 243.198 261.64 243.167C262.015 243.143 263.92 241.998 265.063 241.288L265.256 242.056Z" fill="black"/>
<path d="M304.523 234.973C303.95 236.306 304.523 239.038 304.523 239.038C304.523 239.038 295.987 239.482 293.902 238.085C291.817 236.687 290.341 228.682 290.341 228.682C290.341 228.682 290.646 219.282 290.341 218.837C290.036 218.392 288.878 216.297 289.259 215.853C289.64 215.408 288.954 213.058 288.433 212.04C287.912 211.023 288.128 208.103 288.128 208.103L286.854 200.351L284.885 191.142L283.211 184.979C283.211 184.979 281.495 179.961 280.912 177.866C280.33 175.771 279.714 177.674 279.714 177.674C279.653 179.708 274.947 188.855 274.947 188.855C274.947 188.855 274.245 194.382 273.483 196.349C272.721 198.316 271.892 205.18 271.892 205.18C271.892 205.18 270.673 219.154 269.667 221.505C268.661 223.855 267.969 227.348 267.969 227.348C267.969 227.348 268.225 232.177 267.588 232.558C266.951 232.939 267.054 235.862 267.054 235.862C267.054 235.862 267.435 238.654 265.972 239.102C264.509 239.549 264.753 240.5 264.753 240.5C264.753 240.5 256.613 241.833 255.278 238.274C253.943 234.714 255.787 233.767 255.888 233.511C255.988 233.255 257.003 232.814 256.113 231.794C255.223 230.774 257.256 227.984 257.256 227.984C257.256 227.984 257.577 224.047 258.147 223.919C258.717 223.791 258.531 218.076 258.531 218.076L259.165 212.104C259.165 212.104 259.994 198.764 259.802 198.256C259.61 197.747 259.738 195.211 260.375 193.992C261.012 192.774 261.518 181.666 261.518 181.666C261.518 181.666 261.39 176.206 261.899 175.189C262.204 174.614 262.332 172.4 262.405 170.594C262.46 169.215 262.472 168.073 262.472 168.073L269.594 165.406L278.739 162.485L286.433 166.17L297.691 168.329L297.831 170.268L299.981 199.9L301.2 211.078C301.2 211.078 301.709 216.349 301.773 217.302C301.837 218.255 302.471 224.483 302.471 224.483C302.471 224.483 303.806 227.467 302.98 228.484C302.154 229.501 302.471 230.311 302.471 230.311C302.471 230.311 305.096 233.639 304.523 234.973Z" fill="#3F3D56"/>
<path opacity="0.1" d="M286.064 96.0971C285.363 97.102 285.308 98.4022 285.543 99.6903C283.941 100.819 282.012 101.391 280.053 101.318C278.094 101.245 276.213 100.531 274.7 99.2853V99.2853C274.508 97.9942 274.285 97.0472 274.285 97.0472C274.285 97.0472 288.162 93.0947 286.064 96.0971Z" fill="black"/>
<path d="M289.308 92.2116C289.308 93.9763 288.784 95.7012 287.803 97.1684C286.821 98.6357 285.426 99.7792 283.794 100.454C282.162 101.13 280.366 101.306 278.633 100.962C276.901 100.618 275.309 99.7682 274.06 98.5205C272.811 97.2727 271.96 95.6829 271.616 93.9522C271.271 92.2215 271.448 90.4276 272.124 88.7973C272.8 87.1671 273.945 85.7736 275.414 84.7933C276.882 83.8129 278.609 83.2897 280.376 83.2897C281.551 83.284 282.715 83.5109 283.801 83.9573C284.887 84.4037 285.874 85.0606 286.704 85.8903C287.535 86.7199 288.193 87.7057 288.64 88.7907C289.086 89.8757 289.314 91.0384 289.308 92.2116Z" fill="#C37098"/>
<path opacity="0.1" d="M291.167 107.038L288.241 159.093L272.343 155.759L269.194 134.891L272.313 106.877L274.66 107.178L278.8 107.705L282.9 107.958L287.345 107.464L291.167 107.038Z" fill="black"/>
<path d="M291.167 107.419L288.241 159.474L272.343 156.139L269.194 135.272L272.313 107.26L274.66 107.559L278.8 108.085L282.9 108.338L287.345 107.845L291.167 107.419Z" fill="#00B0FF"/>
<path d="M278.099 108.816L283.824 109.008L282.214 111.258C282.214 111.258 282.327 115.805 283.092 117.108C283.857 118.411 283.632 138.545 283.632 138.545L282.107 141.435L279.501 138.195L279.534 111.612L278.099 108.816Z" fill="#3F3D56"/>
<path opacity="0.1" d="M278.099 108.816L283.824 109.008L282.214 111.258C282.214 111.258 282.327 115.805 283.092 117.108C283.857 118.411 283.632 138.545 283.632 138.545L282.107 141.435L279.501 138.195L279.534 111.612L278.099 108.816Z" fill="black"/>
<path opacity="0.1" d="M287.064 102.909L281.723 108.816L284.775 111.992L289.832 107.068L287.064 102.909Z" fill="black"/>
<path d="M287.064 102.528L281.723 108.436L284.775 111.612L289.832 106.688L287.064 102.528Z" fill="#00B0FF"/>
<path opacity="0.1" d="M279.467 108.53L274.059 103.131L273.55 105.957L276.032 112.151L279.467 108.53Z" fill="black"/>
<path d="M279.656 108.149L274.252 102.751L273.742 105.576L276.224 111.77L279.656 108.149Z" fill="#00B0FF"/>
<path opacity="0.1" d="M297.859 170.278C295.263 171.513 292.483 172.316 289.628 172.656C284.382 173.323 280.949 166.654 280.949 166.654L278.946 169.257C278.309 172.022 268.612 172.72 264.67 171.672C263.852 171.47 263.083 171.107 262.408 170.603C262.463 169.224 262.475 168.082 262.475 168.082L269.597 165.415L278.742 162.494L286.436 166.179L297.694 168.338L297.859 170.278Z" fill="black"/>
<path opacity="0.1" d="M291.167 107.422L288.244 159.474L272.343 156.139L269.188 135.275L272.304 107.26L274.651 107.565C274.591 108.585 274.476 109.602 274.306 110.61C273.925 112.391 276.279 125.031 276.279 125.031C276.279 125.031 280.751 139.206 282.763 137.163C284.775 135.119 287.64 124.331 287.64 124.331C289.582 120.33 287.674 109.106 287.531 108.88C287.431 108.548 287.369 108.206 287.348 107.86L291.167 107.422Z" fill="black"/>
<path opacity="0.1" d="M298.036 147.702L298.17 152.802L296.7 154.133L295.71 141.785H297.904L298.036 147.702Z" fill="black"/>
<path opacity="0.1" d="M263.509 138.292C263.486 138.703 263.428 139.11 263.335 139.511C263.335 139.398 263.335 139.334 263.311 139.325C263.219 139.3 263.329 138.835 263.509 138.292Z" fill="black"/>
<path opacity="0.1" d="M266.326 141.785L265.323 154.124C265.323 154.124 263.82 152.763 261.875 150.99L262.106 148.804C262.106 148.804 262.926 143.433 263.225 140.783C263.361 141.136 263.537 141.473 263.75 141.785H266.326Z" fill="black"/>
<path d="M274.95 102.939C274.95 102.939 273.998 101.542 272.694 104.24C272.694 104.24 269.292 106.21 268.121 106.432C266.95 106.654 262.786 108.116 262.786 108.116C262.157 108.57 261.401 108.814 260.625 108.813C259.32 108.813 258.238 111.673 258.396 113.229C258.555 114.785 258.302 115.93 257.095 115.993C255.888 116.057 256.552 118.564 256.552 118.564L264.597 127.775C264.597 127.775 265.106 136.255 264.853 136.511C264.6 136.767 263.676 139.252 263.899 139.337C264.121 139.422 262.68 148.801 262.68 148.801L260.741 167.001C260.741 167.001 260.741 170.046 264.685 171.097C268.63 172.147 278.333 171.453 278.958 168.688L280.961 166.081C280.961 166.081 284.394 172.753 289.64 172.086C294.887 171.419 298.228 169.513 298.228 169.513L297.655 147.702L297.273 131.98L305.465 118.536C305.465 118.536 303.27 114.343 303.462 112.446C303.654 110.549 304.032 109.112 299.359 108.445C299.359 108.445 295.417 107.857 293.094 106.252C291.714 105.295 290.205 104.536 288.613 103.999C288.613 103.999 287.302 101.563 286.39 102.397C286.39 102.397 287.305 105.841 287.229 106.356C287.153 106.871 287.372 109.197 287.515 109.437C287.659 109.678 289.567 120.887 287.625 124.888C287.625 124.888 284.775 135.677 282.748 137.72C280.72 139.763 276.263 125.588 276.263 125.588C276.263 125.588 273.91 112.945 274.291 111.167C274.672 109.389 274.95 102.939 274.95 102.939Z" fill="#3F3D56"/>
<path d="M281.754 144.58C282.527 144.58 283.153 143.955 283.153 143.183C283.153 142.411 282.527 141.785 281.754 141.785C280.981 141.785 280.354 142.411 280.354 143.183C280.354 143.955 280.981 144.58 281.754 144.58Z" fill="#3F3D56"/>
<path d="M281.754 151.17C282.527 151.17 283.153 150.544 283.153 149.772C283.153 149 282.527 148.375 281.754 148.375C280.981 148.375 280.354 149 280.354 149.772C280.354 150.544 280.981 151.17 281.754 151.17Z" fill="#3F3D56"/>
<path opacity="0.1" d="M281.754 144.58C282.527 144.58 283.153 143.955 283.153 143.183C283.153 142.411 282.527 141.785 281.754 141.785C280.981 141.785 280.354 142.411 280.354 143.183C280.354 143.955 280.981 144.58 281.754 144.58Z" fill="black"/>
<path opacity="0.1" d="M281.754 151.17C282.527 151.17 283.153 150.544 283.153 149.772C283.153 149 282.527 148.375 281.754 148.375C280.981 148.375 280.354 149 280.354 149.772C280.354 150.544 280.981 151.17 281.754 151.17Z" fill="black"/>
<path opacity="0.1" d="M294.329 233.067C294.329 233.067 300.072 233.511 300.642 233.956C301.212 234.4 294.329 233.067 294.329 233.067Z" fill="black" stroke="#00B0FF" stroke-miterlimit="10"/>
<path opacity="0.1" d="M260.134 228.557C260.134 228.557 261.353 230.079 260.835 230.78C260.317 231.48 260.134 228.557 260.134 228.557Z" fill="black" stroke="#00B0FF" stroke-miterlimit="10"/>
<path opacity="0.1" d="M261.597 234.047C261.597 234.047 263.823 232.585 264.713 233.557C265.603 234.528 261.597 234.047 261.597 234.047Z" fill="black" stroke="#00B0FF" stroke-miterlimit="10"/>
<path opacity="0.1" d="M289.308 92.2116C289.31 92.9729 289.213 93.7312 289.021 94.468C288.833 94.3823 288.676 94.2414 288.57 94.064C288.465 93.8866 288.416 93.6812 288.43 93.4753C288.469 93.113 288.71 92.781 288.658 92.4217C288.582 91.8675 287.912 91.6422 287.558 91.2037C287.122 90.6739 287.217 89.9035 287.253 89.2183C287.29 88.5332 287.116 87.6958 286.473 87.4613C286.281 87.3913 286.07 87.3852 285.884 87.306C285.378 87.0929 285.223 86.4656 284.884 86.0332C284.208 85.1623 282.863 85.1806 281.836 85.5947C281.389 85.8089 280.931 85.9999 280.464 86.1672C280.231 86.2495 279.982 86.2826 279.735 86.2642C279.488 86.2459 279.247 86.1765 279.028 86.0606C278.827 85.9327 278.666 85.7561 278.458 85.6282C277.769 85.2141 276.867 85.6282 276.27 86.1611C275.672 86.694 275.193 87.4096 274.44 87.7354C274.102 87.8876 273.684 87.979 273.526 88.3079C273.447 88.4869 273.414 88.6824 273.428 88.8773C273.428 90.0618 273.569 91.2646 273.322 92.4248C273.163 93.1708 272.639 94.0173 271.88 93.926C271.785 93.912 271.692 93.8885 271.602 93.8559C271.374 92.6364 271.403 91.3826 271.687 90.1747C271.971 88.9668 272.504 87.8314 273.252 86.841C274 85.8505 274.947 85.0268 276.032 84.4225C277.116 83.8182 278.316 83.4465 279.552 83.3313C280.789 83.216 282.036 83.3597 283.214 83.7532C284.392 84.1466 285.475 84.7812 286.394 85.6163C287.313 86.4515 288.047 87.4688 288.549 88.6034C289.052 89.7379 289.313 90.9648 289.314 92.2055L289.308 92.2116Z" fill="black"/>
<path d="M271.203 93.3505C271.432 93.4022 271.648 93.521 271.883 93.5515C272.642 93.6428 273.166 92.7963 273.325 92.0502C273.572 90.8901 273.444 89.6873 273.435 88.5028C273.418 88.308 273.45 88.1122 273.529 87.9333C273.703 87.6045 274.12 87.5131 274.444 87.3609C275.181 87.032 275.663 86.3316 276.273 85.7866C276.882 85.2415 277.769 84.8396 278.458 85.2537C278.663 85.3755 278.827 85.5582 279.028 85.6861C279.249 85.8004 279.49 85.8688 279.737 85.8871C279.984 85.9054 280.233 85.8733 280.467 85.7927C280.94 85.6526 281.382 85.4059 281.836 85.2202C282.854 84.8061 284.202 84.7908 284.885 85.6556C285.223 86.0911 285.378 86.7153 285.884 86.9285C286.07 87.0076 286.281 87.0168 286.473 87.0868C287.116 87.3274 287.281 88.1587 287.253 88.8438C287.226 89.5289 287.134 90.2993 287.558 90.8292C287.912 91.2616 288.582 91.4869 288.659 92.0472C288.707 92.4065 288.47 92.7415 288.43 93.1008C288.421 93.2343 288.438 93.3684 288.482 93.4951C288.525 93.6218 288.593 93.7387 288.681 93.839C288.77 93.9392 288.878 94.0209 288.999 94.0792C289.119 94.1376 289.25 94.1714 289.384 94.1787C290.177 94.1787 290.667 93.2926 291.408 93.0094C291.713 92.8907 292.082 92.8724 292.323 92.6318C292.412 92.5162 292.476 92.3825 292.508 92.24C292.541 92.0975 292.542 91.9496 292.512 91.8066C292.362 90.6404 291.427 89.6264 291.527 88.4571C291.622 87.3365 292.661 86.359 292.442 85.2567C292.33 84.8503 292.121 84.4772 291.832 84.1696C291.505 83.7273 291.079 83.3675 290.588 83.1191C290.164 82.9364 289.674 82.8938 289.287 82.6715C288.134 82.0412 288.137 80.3968 287.457 79.2763C287.166 78.8132 286.752 78.4392 286.262 78.1953C285.771 77.9515 285.223 77.8472 284.677 77.8938C283.821 77.9791 283.043 78.4328 282.196 78.585C281.034 78.7921 279.858 78.4115 278.757 77.976C277.657 77.5406 276.544 77.0625 275.364 77.0625C274.184 77.0625 272.907 77.6715 272.547 78.786C272.358 79.395 272.453 80.0466 272.307 80.6587C272.051 81.7458 271.087 82.5192 270.118 83.0582C269.45 83.4297 268.648 83.856 268.569 84.6142C268.517 85.0953 268.783 85.5277 268.95 85.9936C269.235 86.7818 269.229 87.6459 268.932 88.4297C268.709 89.0052 268.337 89.5107 268.112 90.0831C267.952 90.4717 267.876 90.8897 267.89 91.3097C267.903 91.7296 268.006 92.1419 268.191 92.5192C268.333 92.7943 268.53 93.0375 268.77 93.2339C269.009 93.4302 269.286 93.5756 269.584 93.6611C270.185 93.8042 270.563 93.2104 271.203 93.3505Z" fill="#3F3D56"/>
<g opacity="0.1">
<path opacity="0.1" d="M273.325 91.3864C273.166 92.1324 272.639 92.9789 271.88 92.8876C271.645 92.8571 271.432 92.7384 271.2 92.6866C270.563 92.5465 270.185 93.1434 269.584 92.9911C269.286 92.9057 269.008 92.7603 268.768 92.564C268.528 92.3677 268.331 92.1244 268.188 91.8492C268.029 91.5393 267.932 91.2009 267.905 90.8535C267.844 91.3927 267.942 91.9378 268.188 92.4217C268.331 92.6969 268.528 92.9401 268.768 93.1365C269.008 93.3328 269.286 93.4782 269.584 93.5636C270.194 93.7037 270.563 93.1068 271.2 93.2591C271.423 93.3366 271.65 93.4027 271.88 93.457C272.639 93.5514 273.166 92.7049 273.325 91.9589C273.45 91.2997 273.499 90.6285 273.471 89.9583C273.468 90.4379 273.419 90.9161 273.325 91.3864V91.3864Z" fill="black"/>
<path opacity="0.1" d="M269.148 86.8005C269.187 86.3016 269.119 85.8001 268.947 85.3298C268.809 85.0171 268.692 84.6956 268.597 84.3676C268.583 84.4187 268.573 84.4705 268.566 84.5228C268.514 85.0009 268.783 85.4364 268.947 85.9023C269.054 86.1915 269.121 86.4936 269.148 86.8005V86.8005Z" fill="black"/>
<path opacity="0.1" d="M292.439 85.1958C292.295 86.0606 291.594 86.8736 291.524 87.7841C291.507 87.94 291.507 88.0972 291.524 88.253C291.677 87.1903 292.619 86.2494 292.439 85.1958Z" fill="black"/>
<path opacity="0.1" d="M292.49 91.6208C292.465 91.7482 292.405 91.8661 292.317 91.9619C292.091 92.2025 291.707 92.2207 291.402 92.3395C290.661 92.6227 290.183 93.5179 289.378 93.5088C289.172 93.4971 288.974 93.4234 288.811 93.2973C288.648 93.1712 288.527 92.9986 288.463 92.8023C288.445 92.8683 288.431 92.9355 288.421 93.0033C288.412 93.1366 288.43 93.2703 288.473 93.3967C288.517 93.523 288.585 93.6395 288.673 93.7395C288.762 93.8394 288.87 93.9208 288.99 93.979C289.111 94.0371 289.241 94.0708 289.375 94.0782C290.171 94.0782 290.658 93.1921 291.399 92.912C291.704 92.7932 292.076 92.7749 292.314 92.5344C292.403 92.4187 292.466 92.285 292.499 92.1425C292.532 92 292.533 91.8522 292.503 91.7092C292.5 91.6726 292.494 91.6483 292.49 91.6208Z" fill="black"/>
<path opacity="0.1" d="M288.668 91.3682C288.591 90.814 287.921 90.5886 287.567 90.1501C287.35 89.8621 287.233 89.5117 287.232 89.1514C287.207 89.7177 287.217 90.2963 287.567 90.7226C287.918 91.1489 288.451 91.3316 288.622 91.7701C288.665 91.6408 288.681 91.5039 288.668 91.3682V91.3682Z" fill="black"/>
<path opacity="0.1" d="M287.25 88.18C287.275 87.4948 287.11 86.6575 286.467 86.423C286.278 86.353 286.067 86.3438 285.881 86.2677C285.375 86.0545 285.217 85.4273 284.882 84.9949C284.202 84.127 282.857 84.1422 281.833 84.5564C281.376 84.7421 280.94 84.9888 280.464 85.1288C280.231 85.2112 279.982 85.2442 279.735 85.2259C279.488 85.2075 279.247 85.1382 279.028 85.0223C278.827 84.8944 278.663 84.7178 278.458 84.5899C277.766 84.1757 276.864 84.5899 276.27 85.1227C275.675 85.6556 275.193 86.3682 274.441 86.697C274.099 86.8493 273.685 86.9407 273.508 87.2695C273.43 87.4488 273.398 87.6443 273.413 87.8389C273.413 87.9577 273.413 88.0764 273.413 88.1952C273.417 88.0725 273.447 87.9521 273.502 87.842C273.678 87.5131 274.093 87.4218 274.434 87.2695C275.172 86.9407 275.654 86.2403 276.264 85.6952C276.873 85.1502 277.76 84.7482 278.452 85.1623C278.657 85.2841 278.821 85.4668 279.022 85.5917C279.241 85.7083 279.482 85.7781 279.729 85.7964C279.976 85.8148 280.225 85.7814 280.458 85.6983C280.924 85.5326 281.381 85.3425 281.827 85.1288C282.848 84.7147 284.193 84.6964 284.875 85.5643C285.211 85.9967 285.369 86.624 285.875 86.8371C286.061 86.9163 286.272 86.9254 286.461 86.9955C286.982 87.1903 287.189 87.775 287.235 88.3536L287.25 88.18Z" fill="black"/>
</g>
<g opacity="0.1">
<path opacity="0.1" d="M272.236 91.3681C272.254 90.8627 272.435 90.3766 272.753 89.9829C273.071 89.5892 273.508 89.3092 273.998 89.1848C275.358 88.8529 276.784 88.9174 278.108 89.3706C281.001 90.3267 277.742 93.7676 277.742 93.7676C277.742 93.7676 275.575 95.8992 273.553 94.4101C272.956 93.9595 272.538 93.3122 272.374 92.5831C272.275 92.1859 272.229 91.7774 272.236 91.3681V91.3681Z" fill="black"/>
<path opacity="0.1" d="M288.14 91.3681C288.123 90.8623 287.941 90.3759 287.623 89.9821C287.304 89.5883 286.867 89.3085 286.375 89.1848C285.017 88.8535 283.592 88.9179 282.269 89.3705C279.376 90.3267 282.635 93.7676 282.635 93.7676C282.635 93.7676 284.799 95.8991 286.823 94.4101C287.42 93.9594 287.838 93.3121 288.003 92.5831C288.102 92.1858 288.148 91.7773 288.14 91.3681Z" fill="black"/>
<path opacity="0.1" d="M277.562 89.0905V89.2336H282.845V89.0631L277.562 89.0905Z" fill="black"/>
<path opacity="0.1" d="M279.248 90.616H279.416V90.1318C279.416 90.1318 279.952 89.7147 280.842 90.1318V90.5642H281.147V90.281H280.998C280.998 90.281 281.059 89.6933 280.065 89.7877C280.065 89.7877 279.266 89.7116 279.284 90.2171H279.102L279.248 90.616Z" fill="black"/>
</g>
<path d="M272.237 91.1702C272.254 90.6648 272.435 90.1787 272.753 89.785C273.071 89.3913 273.508 89.1113 273.999 88.9869C275.358 88.6572 276.784 88.7217 278.108 89.1727C281.001 90.1319 277.742 93.5698 277.742 93.5698C277.742 93.5698 275.575 95.7013 273.553 94.2123C272.955 93.7627 272.537 93.1149 272.374 92.3852C272.274 91.9881 272.228 91.5795 272.237 91.1702V91.1702Z" fill="#00B0FF"/>
<path d="M288.14 91.1703C288.123 90.6645 287.941 90.1781 287.623 89.7843C287.304 89.3906 286.866 89.1108 286.375 88.987C285.017 88.6572 283.592 88.7217 282.269 89.1728C279.376 90.1319 282.635 93.5698 282.635 93.5698C282.635 93.5698 284.799 95.7013 286.823 94.2123C287.421 93.7627 287.84 93.115 288.003 92.3853C288.102 91.9881 288.148 91.5796 288.14 91.1703Z" fill="#00B0FF"/>
<path d="M277.562 88.8986V89.0448H282.845V88.8712L277.562 88.8986Z" fill="#00B0FF"/>
<path d="M279.248 90.4242H279.416V89.9401C279.416 89.9401 279.952 89.526 280.842 89.9401V90.3755H281.147V90.0893H280.998C280.998 90.0893 281.059 89.5046 280.065 89.596C280.065 89.596 279.266 89.5229 279.284 90.0253H279.102L279.248 90.4242Z" fill="#00B0FF"/>
<path d="M37.5387 139.55H35.8071V178.496H37.5387V139.55Z" fill="#535461"/>
<path d="M48.4218 178.377L48.312 180.131L48.1596 182.607L48.0956 183.639L47.9432 186.118L47.8761 187.15L47.7237 189.626L45.9769 217.783C45.9024 218.995 45.368 220.133 44.4826 220.965C43.5972 221.796 42.4276 222.26 41.2122 222.26H32.1339C30.9188 222.26 29.7495 221.796 28.8646 220.964C27.9797 220.133 27.4459 218.995 27.3722 217.783L25.6163 189.626L25.4638 187.15L25.3998 186.118L25.2504 183.633L25.1864 182.601L25.034 180.125L24.9243 178.371C24.9034 178.035 24.9519 177.697 25.0666 177.38C25.1813 177.063 25.3598 176.773 25.5912 176.527C25.8225 176.281 26.1018 176.086 26.4118 175.952C26.7218 175.818 27.0559 175.749 27.3935 175.75H45.9556C46.2936 175.749 46.6282 175.818 46.9384 175.952C47.2487 176.086 47.5281 176.283 47.7593 176.529C47.9905 176.776 48.1686 177.067 48.2826 177.385C48.3965 177.703 48.4439 178.04 48.4218 178.377V178.377Z" fill="#3F3D56"/>
<path d="M48.312 180.131L48.1595 182.607H25.1833L25.0309 180.131H48.312Z" fill="#9D9CB5"/>
<path d="M48.0955 183.639L47.9431 186.118H25.4028L25.2473 183.639H48.0955Z" fill="#9D9CB5"/>
<path d="M47.876 187.15L47.7236 189.626H25.6223L25.4668 187.15H47.876Z" fill="#9D9CB5"/>
<path d="M22.3879 154.148C32.4722 161.435 36.673 172.835 36.673 172.835C36.673 172.835 24.5188 172.418 14.4192 165.132C4.31969 157.845 0.134155 146.444 0.134155 146.444C0.134155 146.444 12.3006 146.861 22.3879 154.148Z" fill="#00B0FF"/>
<path d="M0.149414 146.444C0.149414 146.444 12.7639 153.448 16.8092 159.233C20.8545 165.019 36.673 172.839 36.673 172.839" stroke="#535461" stroke-width="2" stroke-miterlimit="10"/>
<path d="M28.8963 139.48C34.3836 143.439 36.6729 149.65 36.6729 149.65C36.6729 149.65 30.0578 149.425 24.5675 145.457C19.0772 141.49 16.7939 135.287 16.7939 135.287C16.7939 135.287 23.4091 135.497 28.8963 139.48Z" fill="#00B0FF"/>
<path d="M16.7939 135.272C16.7939 135.272 23.6591 139.078 25.8601 142.23C28.061 145.381 36.6729 149.635 36.6729 149.635" stroke="#535461" stroke-width="2" stroke-miterlimit="10"/>
<path d="M44.6508 149.322C38.3435 156.243 37.0114 165.287 37.0114 165.287C37.0114 165.287 45.9007 163.11 52.2049 156.188C58.5091 149.267 59.8443 140.22 59.8443 140.22C59.8443 140.22 50.955 142.397 44.6508 149.322Z" fill="#00B0FF"/>
<path d="M59.8443 140.22C59.8443 140.22 51.6318 147.315 49.5436 152.205C47.4554 157.096 37.0114 165.299 37.0114 165.299" stroke="#535461" stroke-width="2" stroke-miterlimit="10"/>
</g>
<defs>
<linearGradient id="paint0_linear" x1="180.255" y1="197.068" x2="180.255" y2="33.1438" gradientUnits="userSpaceOnUse">
<stop stop-color="#808080" stop-opacity="0.25"/>
<stop offset="0.54" stop-color="#808080" stop-opacity="0.12"/>
<stop offset="1" stop-color="#808080" stop-opacity="0.1"/>
</linearGradient>
<linearGradient id="paint1_linear" x1="56101.9" y1="147208" x2="56101.9" y2="49877.6" gradientUnits="userSpaceOnUse">
<stop stop-color="#808080" stop-opacity="0.25"/>
<stop offset="0.54" stop-color="#808080" stop-opacity="0.12"/>
<stop offset="1" stop-color="#808080" stop-opacity="0.1"/>
</linearGradient>
<clipPath id="clip0">
<rect y="0.333374" width="349.222" height="249.667" fill="white"/>
</clipPath>
</defs>
</svg>
