<svg width="348" height="225" viewBox="0 0 348 225" fill="none" xmlns="http://www.w3.org/2000/svg">
<g clip-path="url(#clip0)">
<path d="M348 222.457H0V225H348V222.457Z" fill="#85848B"/>
<path d="M275.706 177.552C275.706 179.509 264.304 185.212 250.76 185.212C237.215 185.212 226.662 179.509 226.662 177.552C226.662 175.596 237.64 176.226 251.197 176.226C264.755 176.226 275.706 175.593 275.706 177.552Z" fill="#504F60"/>
<path opacity="0.2" d="M275.706 177.552C275.706 179.509 264.304 185.212 250.76 185.212C237.215 185.212 226.662 179.509 226.662 177.552" fill="black"/>
<path d="M139.305 141.657C141.504 141.938 143.785 142.117 145.89 141.434C146.222 141.332 146.587 141.103 146.553 140.771C146.53 140.651 146.479 140.537 146.404 140.44C145.611 139.249 144.944 137.979 144.415 136.65C144.394 136.581 144.351 136.52 144.292 136.477C144.224 136.453 144.148 136.453 144.08 136.477C143.108 136.733 142.27 137.359 141.305 137.628C140.813 137.763 140.299 137.801 139.793 137.741C139.355 137.691 138.758 137.33 138.36 137.376C138.586 138.825 139.136 140.178 139.305 141.657Z" fill="#00B0FF"/>
<path d="M180.88 137.986C182.329 136.991 183.831 135.947 184.686 134.412C184.747 134.32 184.783 134.213 184.789 134.103C184.774 133.995 184.732 133.892 184.666 133.805C183.851 132.51 182.802 131.377 181.573 130.466C180.931 130.919 180.352 131.454 179.849 132.058C179.484 132.442 178.476 133.052 178.466 133.639C178.466 133.971 178.851 134.355 179.03 134.634C179.272 134.992 179.501 135.357 179.719 135.728C179.845 135.91 180.996 137.913 180.88 137.986Z" fill="#00B0FF"/>
<path d="M147.923 146.096C147.949 146.438 147.855 146.778 147.657 147.058C147.503 147.214 147.311 147.328 147.1 147.389C144.027 148.49 140.469 147.118 137.402 148.202C136.772 148.424 136.175 148.746 135.542 148.958C134.787 149.185 134.008 149.323 133.221 149.369C132.137 149.472 131.046 149.538 129.959 149.568C129.132 149.626 128.302 149.554 127.499 149.352C127.097 149.249 126.721 149.063 126.396 148.806C126.071 148.548 125.804 148.225 125.612 147.857C125.445 147.527 125.412 147.146 125.519 146.793C125.567 146.671 125.636 146.559 125.721 146.461C125.929 146.228 126.173 146.03 126.444 145.874L127.575 145.145C128.105 144.77 128.681 144.464 129.289 144.236C129.737 144.09 130.211 144.027 130.665 143.905C132.253 143.44 133.467 142.18 134.594 140.97L136.132 139.329C136.276 139.148 136.459 139.002 136.666 138.901C136.88 138.83 137.106 138.809 137.329 138.838C138.824 138.945 140.267 139.429 141.524 140.244C141.845 140.485 142.192 140.69 142.558 140.854C143.46 141.206 144.617 140.94 145.449 140.496C145.844 140.284 145.758 140.165 145.923 139.787C146.089 139.409 146.494 139.167 146.845 139.511C146.951 139.631 147.026 139.774 147.064 139.929C147.396 141.023 147.27 142.2 147.27 143.348C147.26 143.527 147.282 143.707 147.336 143.878C147.42 144.051 147.521 144.215 147.638 144.369C147.661 144.409 147.682 144.452 147.701 144.495C147.903 145.003 147.98 145.552 147.923 146.096V146.096Z" fill="#514E7F"/>
<path d="M147.923 146.096C147.949 146.438 147.855 146.778 147.657 147.058C147.503 147.214 147.311 147.328 147.1 147.389C144.027 148.49 140.469 147.118 137.402 148.202C136.772 148.424 136.175 148.746 135.542 148.958C134.787 149.185 134.008 149.323 133.221 149.369C132.137 149.472 131.046 149.538 129.959 149.568C129.132 149.626 128.302 149.554 127.499 149.352C127.097 149.249 126.721 149.063 126.396 148.806C126.071 148.548 125.804 148.225 125.612 147.857C125.445 147.527 125.412 147.146 125.519 146.793C125.567 146.671 125.636 146.559 125.721 146.461C125.9 146.836 126.03 147.333 126.142 147.512C126.295 147.777 126.502 148.007 126.75 148.186C126.998 148.365 127.282 148.489 127.581 148.55C128.03 148.577 128.48 148.52 128.908 148.381C131.693 147.691 134.654 147.681 137.329 146.637C138.248 146.275 139.123 145.795 140.088 145.576C141.053 145.357 142.077 145.417 143.072 145.334C144.644 145.208 146.165 144.734 147.714 144.485C147.914 144.997 147.985 145.55 147.923 146.096V146.096Z" fill="#464353"/>
<path d="M187.919 137.784C187.773 138.951 187.034 139.956 186.221 140.808C185.409 141.66 184.491 142.426 183.844 143.407C183.048 144.624 182.69 146.133 181.656 147.161C181.259 147.534 180.812 147.852 180.33 148.106C179.789 148.425 179.216 148.688 178.622 148.891C177.077 149.386 175.412 149.273 173.798 149.153C173.274 149.148 172.755 149.048 172.266 148.858C172.044 148.745 171.831 148.614 171.629 148.467C171.225 148.218 170.884 147.877 170.635 147.472C170.512 147.252 170.478 146.994 170.539 146.75C170.631 146.48 170.789 146.239 170.999 146.047C171.363 145.669 171.753 145.317 172.166 144.996C172.734 144.629 173.246 144.182 173.685 143.669C173.955 143.264 174.153 142.815 174.272 142.343C174.507 141.516 174.65 140.665 174.7 139.806C174.698 139.236 174.757 138.667 174.875 138.109C175.121 137.233 175.771 136.451 175.698 135.546C175.668 135.416 175.68 135.281 175.731 135.158C175.808 135.062 175.916 134.995 176.036 134.969C176.542 134.767 177.077 134.643 177.621 134.601C177.893 134.582 178.167 134.624 178.422 134.724C178.676 134.824 178.905 134.979 179.093 135.178C179.318 135.45 179.467 135.841 179.799 135.947C179.963 135.992 180.136 135.999 180.303 135.967C181.119 135.884 181.981 135.781 182.624 135.254C182.921 134.987 183.16 134.662 183.326 134.299C183.491 133.935 183.58 133.541 183.585 133.142C183.585 132.84 183.45 132.525 183.917 132.479C184.268 132.432 184.547 132.81 184.726 133.042C185.373 133.908 186.036 134.813 186.278 135.867C186.372 135.831 186.472 135.812 186.573 135.811C186.78 135.809 186.984 135.857 187.168 135.952C187.352 136.046 187.511 136.183 187.631 136.351C187.895 136.779 187.997 137.287 187.919 137.784Z" fill="#514E7F"/>
<path d="M187.919 137.784C187.773 138.951 187.034 139.956 186.221 140.808C185.409 141.66 184.491 142.426 183.844 143.407C183.048 144.624 182.69 146.133 181.656 147.161C181.259 147.534 180.813 147.852 180.33 148.106C179.789 148.425 179.216 148.688 178.622 148.891C177.077 149.385 175.413 149.273 173.798 149.153C173.274 149.148 172.755 149.048 172.266 148.858C172.044 148.745 171.831 148.614 171.629 148.467C171.225 148.218 170.884 147.877 170.635 147.472C170.946 147.323 171.285 147.241 171.629 147.234C172.346 147.273 172.869 147.95 173.556 148.159C174.534 148.454 175.509 147.764 176.5 147.529C177.147 147.376 177.826 147.416 178.466 147.197C178.999 146.991 179.492 146.692 179.922 146.315C180.51 145.894 181.034 145.389 181.477 144.816C181.844 144.244 182.15 143.633 182.389 142.996C182.912 141.775 183.528 140.595 184.232 139.468C184.336 139.29 184.462 139.125 184.607 138.978C184.763 138.835 184.938 138.735 185.114 138.609C185.777 138.109 186.052 137.283 186.284 136.474C186.347 136.228 186.435 135.989 186.546 135.761C186.753 135.759 186.957 135.808 187.141 135.902C187.326 135.996 187.484 136.133 187.604 136.302C187.889 136.74 188.002 137.268 187.919 137.784V137.784Z" fill="#464353"/>
<path d="M118.394 34.4071C119.219 35.0255 119.898 35.8179 120.383 36.7281C120.847 37.6366 123.523 44.6857 123.367 45.7103C124.239 44.8316 127.678 44.6891 128.56 43.8104C128.928 43.4424 130.914 41.6055 131.212 41.1777C131.51 40.75 133.725 39.8515 133.967 39.4005C134.872 37.7791 127.548 31.6352 128.487 30.0337C128.539 29.9601 128.565 29.8717 128.563 29.7817C128.542 29.7061 128.499 29.6382 128.44 29.5861C127.84 28.9727 127.044 28.5913 126.322 28.1371C125.599 27.6828 124.902 27.0495 124.707 26.214C124.018 26.5313 123.385 26.9591 122.833 27.4806C121.49 28.6322 120.169 29.8071 118.871 31.0052C118.364 31.476 117.383 32.1027 117.147 32.7758C116.869 33.4986 117.91 34.0125 118.394 34.4071Z" fill="#A1616A"/>
<path d="M130.25 31.7976C129.127 32.5528 128.077 33.412 127.114 34.364C126.205 35.2625 125.343 36.3036 125.125 37.5603C125.032 38.0543 125.045 38.555 124.969 39.0557C124.637 41.2275 122.761 42.819 121.932 44.8515C121.691 45.4788 121.515 46.1286 121.404 46.7912C121.172 48.0472 121.044 49.3204 121.023 50.5976C121.003 51.8344 122.217 52.6865 122.661 53.8404C123.105 54.9942 123.225 56.1813 123.45 57.365C123.875 59.5997 124.654 61.7549 125.44 63.8969C127.074 68.4129 132.372 80.8965 134.007 85.4158C139.017 84.1591 152.352 81.2711 156.789 78.6219C158.267 77.7399 146.527 67.7895 148.108 67.1032C148.199 67.0891 148.285 67.0542 148.359 67.0012C148.434 66.9483 148.495 66.8787 148.538 66.798C148.581 66.7172 148.605 66.6276 148.608 66.5361C148.61 66.4447 148.591 66.3539 148.553 66.2709C146.971 59.3544 142.024 53.6713 139.78 46.9371C139 44.5995 137.601 42.6035 136.54 40.382C135.579 38.3693 135.065 36.1445 133.914 34.2313C133.697 33.8372 133.413 33.4838 133.075 33.1869C132.788 32.9669 132.478 32.7789 132.15 32.6265C131.494 32.3082 130.884 32.1192 130.25 31.7976Z" fill="#514E7F"/>
<path d="M118.659 33.6212C122.99 33.6212 126.501 30.1104 126.501 25.7796C126.501 21.4488 122.99 17.938 118.659 17.938C114.328 17.938 110.818 21.4488 110.818 25.7796C110.818 30.1104 114.328 33.6212 118.659 33.6212Z" fill="#A1616A"/>
<path d="M126.636 29.4633C127.027 29.1029 127.518 28.8693 128.044 28.7936C128.571 28.7178 129.107 28.8033 129.584 29.0389C130.115 29.3141 130.579 29.8711 130.459 30.4547L134.349 30.5144C134.968 30.4975 135.586 30.5542 136.192 30.6835C136.802 30.8162 137.346 31.1574 137.731 31.6484C137.777 31.7114 137.83 31.7876 137.91 31.7976C137.974 31.7986 138.037 31.7775 138.089 31.7379C138.687 31.4378 139.361 31.3224 140.025 31.4063C142.127 31.5423 144.07 32.5933 145.718 33.9063C146.015 34.1106 146.246 34.3977 146.381 34.732C146.517 35.1729 146.354 35.7267 146.713 36.0417C146.713 39.6889 147.966 43.0975 148.801 46.6519C148.951 47.2852 149.557 47.8455 149.978 48.3429C150.499 48.8943 150.923 49.5285 151.235 50.2196C151.945 52.0631 150.966 54.2316 151.656 56.0817C151.948 56.8642 152.512 57.5075 152.982 58.1872C153.603 58.9721 153.995 59.9128 154.116 60.9061C154.146 61.3504 154.09 61.798 154.116 62.2324C154.161 62.8298 154.272 63.4203 154.448 63.993C154.731 65.0629 155.027 66.1316 155.336 67.1993C155.84 68.9234 156.497 70.7835 158.042 71.702C154.312 72.3353 150.38 72.9553 146.825 71.6589C146.329 71.4898 145.859 71.2544 145.426 70.9593C144.143 70.0441 143.523 68.4791 142.969 67.0003C142.352 65.3425 141.726 63.6548 141.6 61.8908C141.601 61.3298 141.522 60.7715 141.364 60.233C141.003 59.2714 140.038 58.6912 139.163 58.1574C138.174 57.6157 137.279 56.9195 136.51 56.095C136.129 55.6797 135.837 55.1906 135.652 54.658C135.467 54.1253 135.394 53.5604 135.436 52.9981C135.502 52.451 135.718 51.9239 135.738 51.3735C135.758 50.823 135.512 50.1931 134.985 50.0472C132.27 49.2249 130.973 46.0086 130.37 43.2367C130.109 41.8041 129.993 40.349 130.022 38.8932L129.985 36.0649C129.611 35.7239 129.309 35.3103 129.099 34.8491C128.89 34.388 128.776 33.889 128.765 33.3825C128.801 33.0869 128.796 32.7878 128.749 32.4939C128.617 32.1345 128.404 31.8109 128.125 31.5489C127.526 30.9336 127.024 30.2303 126.636 29.4633V29.4633Z" fill="#464353"/>
<path d="M118.284 38.4289C118.195 39.3043 118.394 40.2028 118.198 41.0616C118.122 41.3932 117.989 41.7247 117.893 42.0331C117.599 43.2691 117.726 44.568 118.255 45.7235C118.782 46.8676 119.414 47.9609 120.141 48.9894C120.387 49.3406 120.59 49.7202 120.745 50.1201C120.87 50.54 120.948 50.9726 120.977 51.4099C121.169 53.1657 121.477 54.907 121.898 56.6222C122.27 58.1076 126.487 70.8067 127.469 71.9838C127.647 72.2444 127.917 72.428 128.225 72.4977C128.447 72.5061 128.667 72.4606 128.868 72.3651L130.857 71.6025C131.026 71.5507 131.183 71.465 131.318 71.3505C131.505 71.1327 131.606 70.8547 131.603 70.568C131.746 68.9499 127.518 56.1613 126.981 54.6328C125.357 50.0173 123.195 45.5676 122.137 40.7897C121.842 39.4634 121.686 37.421 120.715 36.3633C120.314 35.9256 120.45 36.1113 119.969 36.3401C119.726 36.4455 119.491 36.5685 119.266 36.7081C118.984 36.9037 118.75 37.1598 118.581 37.4575C118.411 37.7552 118.31 38.0871 118.284 38.4289Z" fill="#464353"/>
<path d="M124.322 47.1857C124.856 50.0073 125.406 52.8223 125.953 55.644L133.739 53.6049C133.802 52.7892 133.367 52.0332 133.075 51.2839C132.366 49.5033 132.349 47.5205 131.776 45.6903C131.341 44.2977 130.585 43.0178 130.178 41.6153C129.942 40.7996 129.823 39.9574 129.591 39.1318C129.342 38.3211 129.036 37.5288 128.676 36.7611C128.239 35.6477 127.669 34.5911 126.978 33.6145C125.983 33.9859 124.922 34.4169 124.355 35.3155C124.065 35.8218 123.899 36.3901 123.871 36.9733C123.735 38.7207 124.369 40.478 124.16 42.2154C123.945 43.87 123.999 45.5486 124.322 47.1857V47.1857Z" fill="#00B0FF"/>
<path d="M133.868 84.7194C134.306 86.3772 133.672 88.1213 133.155 89.7625C132.376 92.2347 131.845 94.7782 131.57 97.3555C131.536 98.0114 131.405 98.6585 131.179 99.2753C130.934 99.829 130.516 100.297 130.231 100.824C129.448 102.21 129.468 103.901 129.637 105.486C129.75 106.53 129.919 107.571 130.128 108.599C130.383 109.856 130.698 111.169 130.33 112.395C130.947 112.26 131.365 113.059 131.325 113.685C131.285 114.312 131.083 115.012 131.385 115.552C132.147 115.831 132.154 116.878 132.131 117.691C132.143 119.099 132.321 120.501 132.661 121.868C133.815 127.417 135.039 132.95 136.335 138.467C139.136 139.336 142.409 140.241 145.081 139.037C145.579 138.815 146.076 138.46 146.189 137.923C146.218 137.634 146.182 137.341 146.083 137.068L144.816 132.459C144.508 131.345 144.199 130.194 144.362 129.05C144.484 128.198 144.856 127.28 144.438 126.527C144.296 126.268 144.07 126.066 143.904 125.821C143.241 124.849 143.589 123.55 143.642 122.372C143.663 122.108 143.645 121.842 143.589 121.583C143.498 121.281 143.372 120.99 143.211 120.718C142.165 118.686 141.662 116.417 141.752 114.133C141.792 113.841 141.752 113.545 141.636 113.274C141.556 113.162 141.484 113.045 141.421 112.923C141.371 112.71 141.396 112.486 141.49 112.289C141.11 112.001 140.768 111.667 140.469 111.295C140.653 111.18 140.809 111.026 140.924 110.843C141.039 110.659 141.112 110.452 141.135 110.237C141.159 110.022 141.133 109.804 141.061 109.6C140.988 109.396 140.869 109.211 140.715 109.06C140.85 109.033 140.975 108.968 141.076 108.874C141.177 108.78 141.25 108.66 141.286 108.527C141.323 108.394 141.322 108.254 141.284 108.121C141.246 107.989 141.171 107.87 141.069 107.777C140.907 107.664 140.691 107.614 140.575 107.445C140.396 107.2 140.542 106.858 140.688 106.596L141.461 105.2C142.038 104.163 142.167 102.879 142.787 101.885C143.675 100.436 144.256 98.821 144.829 97.2229L147.061 91.0656L148.563 92.3687C149.063 92.7509 149.482 93.2288 149.796 93.7745C150.01 94.3139 150.145 94.8812 150.197 95.4589C150.748 98.8011 152.85 101.699 153.629 104.992C153.801 105.724 153.917 106.494 154.338 107.12C154.489 107.313 154.624 107.517 154.743 107.73C154.853 108.056 154.91 108.398 154.912 108.742C154.982 109.415 155.195 110.066 155.539 110.649C155.882 111.233 156.347 111.736 156.901 112.124C157.641 112.631 158.559 112.979 158.96 113.781C159.041 114.03 159.152 114.267 159.292 114.488C159.65 114.919 160.423 114.968 160.575 115.509C160.661 115.811 160.502 116.172 160.671 116.437C160.767 116.56 160.894 116.655 161.039 116.713L163.198 117.79C165.612 118.997 166.845 121.769 168.625 123.788C169.24 124.446 169.785 125.166 170.25 125.937C171.019 127.313 171.374 129.04 172.674 129.916C173.023 130.097 173.341 130.333 173.615 130.615C174.023 131.152 173.874 131.905 173.911 132.581C173.947 133.258 174.464 134.064 175.107 133.858C174.882 134.677 174.882 135.542 175.107 136.361C177.931 136.216 180.624 135.126 182.753 133.265C183.383 132.714 183.99 132.011 183.997 131.176C184.006 131.031 183.974 130.887 183.904 130.761C183.776 130.598 183.608 130.471 183.416 130.393C181.397 129.299 180.79 126.762 179.769 124.703C178.877 122.886 177.558 121.321 176.454 119.634C174.053 116.003 172.415 111.61 168.785 109.212C167.986 108.685 167.057 108.218 166.656 107.346C166.434 106.858 166.407 106.301 166.232 105.797C166.056 105.293 165.635 104.803 165.098 104.803C165.396 104.073 165.336 103.184 165.356 102.395C165.377 102.045 165.336 101.694 165.237 101.358C165.099 100.996 164.92 100.651 164.703 100.33C163.756 98.7258 163.282 96.8865 163.337 95.0246C163.364 94.0663 163.533 93.0782 163.244 92.1631C163.098 91.7022 162.843 91.2811 162.667 90.8368C162.402 90.0318 162.263 89.1909 162.253 88.3434L162.054 85.157C162.024 84.0959 161.886 83.0405 161.643 82.0071C160.98 79.5336 160.317 69.172 158.045 68.0049C155.774 66.8378 151.872 74.8121 149.315 74.9679C148.184 75.015 147.067 75.2307 146 75.6078C144.299 76.2444 142.873 77.4315 141.484 78.592L136.782 82.541C135.788 83.3599 134.965 84.1424 133.868 84.7194Z" fill="#464353"/>
<path d="M111.302 17.0725C112.336 15.66 114.113 14.9107 115.864 14.8477C117.615 14.7847 119.339 15.3351 120.907 16.1143C121.37 16.3775 121.865 16.5803 122.379 16.7177C123.208 16.8868 124.13 16.6614 124.879 17.0493C125.874 17.5765 126.066 18.9194 125.98 20.0334C125.894 21.1475 125.685 22.3843 126.278 23.3491C126.489 23.6243 126.681 23.9134 126.852 24.2145C127.107 24.7881 126.958 25.4513 126.806 26.0581C126.418 25.7265 126.199 25.2258 125.854 24.8412C125.509 24.4566 124.909 24.1979 124.481 24.4864C124.054 24.7749 124.06 25.2988 124.037 25.7696C124.014 26.2404 123.894 26.8041 123.45 26.9566C123.265 26.9988 123.071 26.9844 122.893 26.9153C122.716 26.8461 122.563 26.7254 122.456 26.5687C121.696 25.6403 122.001 24.1582 121.249 23.2231C120.821 22.6926 120.108 22.434 119.713 21.877C119.402 21.4393 119.322 20.8822 119.05 20.4114C118.778 19.9406 118.145 19.5958 117.724 19.9207C117.58 20.058 117.461 20.2182 117.369 20.3948C117.107 20.771 116.725 21.0475 116.286 21.1799C115.847 21.3123 115.376 21.2927 114.949 21.1243C114.623 20.9241 114.27 20.7712 113.901 20.67C113.66 20.658 113.42 20.7136 113.208 20.8308C112.997 20.948 112.822 21.122 112.704 21.3332C112.466 21.7551 112.351 22.2352 112.373 22.7191C112.373 23.3823 112.492 24.0885 112.114 24.619C111.97 24.8188 111.79 24.9897 111.584 25.123C111.03 25.4778 110.257 25.7165 109.747 25.312C109.574 25.1508 109.445 24.9478 109.373 24.7225C109.301 24.4972 109.288 24.2572 109.336 24.0255C109.435 23.564 109.566 23.1098 109.727 22.6661C110.019 21.6382 109.637 20.4811 109.956 19.5129C110.289 18.6409 110.742 17.8196 111.302 17.0725V17.0725Z" fill="#464353"/>
<path d="M115.503 40.4648C115.453 40.7064 115.478 40.9576 115.576 41.1843C115.674 41.3387 115.808 41.4672 115.967 41.559C117.082 42.2536 118.35 42.6645 119.66 42.7559C119.839 42.759 120.014 42.8045 120.171 42.8886C120.483 43.0941 120.503 43.5517 120.387 43.9164C120.232 44.2605 120.152 44.6334 120.151 45.0106C120.247 45.7036 121.07 46.0053 121.763 46.1081C122.734 46.2308 123.798 46.1678 124.568 45.561C125.089 45.0858 125.486 44.4905 125.725 43.8269C127.628 39.4535 128.294 34.6192 130.221 30.2591C130.367 29.9744 130.464 29.6673 130.509 29.3506C130.529 29.192 130.507 29.0309 130.444 28.8839C130.381 28.737 130.28 28.6096 130.151 28.515C129.793 28.2929 129.236 28.4188 128.994 28.0707C128.875 27.895 128.888 27.6562 128.782 27.4706C128.56 27.076 127.976 27.139 127.578 26.9102C127.266 26.7444 127.051 26.4029 126.703 26.3366C126.532 26.3269 126.361 26.3573 126.204 26.4252C126.047 26.4931 125.908 26.5967 125.798 26.7278C124.667 27.7822 124.073 29.2776 123.444 30.6901C122.482 32.8552 121.355 34.9436 120.075 36.9369C120.224 36.7048 119.359 34.9475 119.02 34.8712C118.427 34.7518 117.668 35.793 117.346 36.1809C116.337 37.4046 115.697 38.8906 115.503 40.4648V40.4648Z" fill="#00B0FF"/>
<path opacity="0.1" d="M127.548 27.2186C127.31 27.2226 127.076 27.2801 126.863 27.3868C126.65 27.4936 126.464 27.6469 126.318 27.8353C125.963 28.2962 125.894 28.9063 125.804 29.4932C125.502 31.3525 124.839 33.1346 123.851 34.7386" fill="black"/>
<path opacity="0.1" d="M129.239 28.5415C128.911 28.5488 128.589 28.6417 128.307 28.8108C128.025 28.98 127.792 29.2197 127.631 29.5064C127.412 30.0279 127.275 30.5806 127.227 31.1443C126.942 32.3942 126.394 33.5688 125.619 34.5893" fill="black"/>
<path d="M208.038 93.3635V89.2454C208.037 86.2139 206.832 83.3068 204.688 81.1635C202.545 79.0202 199.637 77.8162 196.606 77.8162H33.9784C30.9469 77.8162 28.0396 79.0202 25.8957 81.1635C23.7519 83.3068 22.547 86.2139 22.5461 89.2454V96.8383L208.038 93.3635Z" fill="#33323D"/>
<path d="M79.2199 72.9885C79.2199 72.9885 78.7557 101.789 83.8618 111.265C88.9678 120.741 91.1561 161.965 91.1561 161.965C91.1561 161.965 144.683 167.503 181.984 155.334C219.285 143.165 298.654 138.188 298.654 138.188L285.279 48.0379C285.279 48.0379 219.202 43.8004 181.613 61.7284C144.024 79.6564 79.2199 72.9885 79.2199 72.9885Z" fill="#8DD070"/>
<path opacity="0.1" d="M79.2199 72.9885C79.2199 72.9885 78.7557 101.789 83.8618 111.265C88.9678 120.741 91.1561 161.965 91.1561 161.965C91.1561 161.965 144.683 167.503 181.984 155.334C219.285 143.165 298.654 138.188 298.654 138.188L285.279 48.0379C285.279 48.0379 219.202 43.8004 181.613 61.7284C144.024 79.6564 79.2199 72.9885 79.2199 72.9885Z" fill="black"/>
<path d="M91.0666 83.5092C91.0666 83.5092 89.3922 107.273 93.5931 114.866C97.794 122.459 97.9896 156.355 97.9896 156.355C97.9896 156.355 146.162 158.59 180.429 146.925C214.696 135.261 286.704 127.694 286.704 127.694L278.521 53.9696C278.521 53.9696 218.94 53.3562 184.166 69.7756C149.392 86.1949 91.0666 83.5092 91.0666 83.5092Z" fill="#8DD070"/>
<path opacity="0.1" d="M183.637 133.427C190.491 132.573 194.563 119.964 192.732 105.263C190.901 90.5618 183.86 79.3365 177.006 80.1902C170.152 81.044 166.08 93.6535 167.911 108.354C169.742 123.055 176.782 134.281 183.637 133.427Z" fill="black"/>
<path opacity="0.2" d="M249.052 4.12134C249.052 4.12134 184.859 20.3683 154.587 48.9662C124.316 77.5641 60.5895 91.1054 60.5895 91.1054C60.5895 91.1054 68.9846 118.656 76.7498 126.109C84.5149 133.563 99.2429 172.131 99.2429 172.131C99.2429 172.131 151.885 160.97 183.648 137.933C215.412 114.895 289.44 85.8002 289.44 85.8002L249.052 4.12134Z" fill="black"/>
<path d="M59.6246 86.9807C59.6246 86.9807 68.0164 114.534 75.775 121.988C83.5335 129.442 98.2681 168.006 98.2681 168.006C98.2681 168.006 150.917 156.849 182.684 133.812C214.45 110.774 288.472 81.6889 288.472 81.6889L248.084 0C248.084 0 183.894 16.2469 153.622 44.8448C123.351 73.4427 59.6246 86.9807 59.6246 86.9807Z" fill="#8DD070"/>
<path opacity="0.1" d="M59.6246 86.9807C59.6246 86.9807 68.0164 114.534 75.775 121.988C83.5335 129.442 98.2681 168.006 98.2681 168.006C98.2681 168.006 150.917 156.849 182.684 133.812C214.45 110.774 288.472 81.6889 288.472 81.6889L248.084 0C248.084 0 183.894 16.2469 153.622 44.8448C123.351 73.4427 59.6246 86.9807 59.6246 86.9807Z" fill="black"/>
<path d="M74.1172 93.3601C74.1172 93.3601 79.8167 116.494 86.1462 122.429C92.4757 128.364 103.056 160.559 103.056 160.559C103.056 160.559 149.587 147.9 178.622 126.282C207.657 104.663 273.876 75.3956 273.876 75.3956L243.469 7.71558C243.469 7.71558 186.576 25.4115 158.516 51.7116C130.456 78.0117 74.1172 93.3601 74.1172 93.3601Z" fill="#8DD070"/>
<path opacity="0.1" d="M177.549 112.461C183.81 109.545 183.817 96.2947 177.563 82.8649C171.309 69.4352 161.164 60.912 154.902 63.8279C148.64 66.7438 148.634 79.9945 154.888 93.4243C161.142 106.854 171.287 115.377 177.549 112.461Z" fill="black"/>
<path opacity="0.1" d="M212.428 97.4053V211.797C212.428 213.096 212.172 214.382 211.675 215.583C211.177 216.783 210.449 217.873 209.53 218.792C208.611 219.71 207.52 220.439 206.32 220.936C205.12 221.433 203.833 221.688 202.534 221.688H32.4432C29.8207 221.687 27.3059 220.644 25.4518 218.79C23.5977 216.935 22.5561 214.419 22.5561 211.797V85.8733C27.43 87.6837 27.43 87.6837 32.4432 87.5311H202.534C205.155 87.5311 207.668 88.5708 209.523 90.422C211.378 92.2732 212.423 94.7847 212.428 97.4053V97.4053Z" fill="black"/>
<path d="M212.428 98.8609V213.252C212.427 215.876 211.384 218.392 209.529 220.246C207.674 222.101 205.158 223.143 202.534 223.143H32.4432C29.8207 223.142 27.3059 222.1 25.4518 220.245C23.5977 218.39 22.5561 215.875 22.5561 213.252V87.3256C27.43 89.1326 27.43 89.1326 32.4432 88.9834H202.534C205.155 88.9834 207.669 90.0235 209.524 91.8754C211.379 93.7273 212.424 96.2397 212.428 98.8609V98.8609Z" fill="#504F60"/>
<path opacity="0.1" d="M211.944 141.153V177.735H176.467C171.659 177.67 167.069 175.714 163.692 172.291C160.314 168.868 158.421 164.253 158.421 159.444C158.421 154.635 160.314 150.019 163.692 146.596C167.069 143.173 171.659 141.217 176.467 141.153H211.944Z" fill="black"/>
<path d="M212.428 140.178V176.766H176.951C172.143 176.702 167.553 174.746 164.176 171.323C160.798 167.9 158.905 163.284 158.905 158.475C158.905 153.667 160.798 149.051 164.176 145.628C167.553 142.205 172.143 140.249 176.951 140.184L212.428 140.178Z" fill="#33323D"/>
<path opacity="0.1" d="M178.652 166.577C182.591 166.577 185.784 163.384 185.784 159.445C185.784 155.506 182.591 152.313 178.652 152.313C174.713 152.313 171.52 155.506 171.52 159.445C171.52 163.384 174.713 166.577 178.652 166.577Z" fill="black"/>
<path d="M179.136 165.609C183.075 165.609 186.268 162.416 186.268 158.477C186.268 154.538 183.075 151.345 179.136 151.345C175.197 151.345 172.004 154.538 172.004 158.477C172.004 162.416 175.197 165.609 179.136 165.609Z" fill="#00B0FF"/>
<path d="M274.009 139.863C274.291 142.917 271.98 145.881 272.653 148.872C272.799 149.512 273.074 150.115 273.173 150.762C273.452 152.539 272.394 154.22 271.383 155.705L262.696 168.451C262.348 169.011 261.931 169.526 261.456 169.983C259.798 171.461 257.305 171.309 255.123 171.75C253.589 172.061 252.141 172.702 250.879 173.627C250.826 173.672 250.793 173.735 250.785 173.804C250.778 173.873 250.797 173.943 250.839 173.998C251.2 174.489 251.678 174.882 252.229 175.141C252.78 175.4 253.388 175.516 253.996 175.48C254.225 175.782 253.996 176.223 253.664 176.438C253.197 176.77 252.557 176.849 252.464 177.639C252.431 177.914 252.487 178.193 252.623 178.434C252.973 178.97 253.518 179.35 254.142 179.492C257.149 180.411 260.398 178.796 262.65 176.598C264.901 174.399 266.516 171.624 268.724 169.386C269.947 168.149 271.336 167.088 272.596 165.888C275.11 163.494 277.063 160.583 278.949 157.668C279.516 156.79 280.086 155.888 280.325 154.87C280.564 153.852 280.451 152.824 280.72 151.839C281.071 150.546 282.016 149.518 282.802 148.434C284.344 146.312 285.371 143.716 285.169 141.103C284.967 138.49 283.346 135.907 280.879 135.019C280.114 134.712 279.271 134.66 278.475 134.873C277.464 135.184 276.718 136.02 276.028 136.819L274.37 138.726C273.957 139.144 273.63 139.64 273.409 140.184C273.303 140.458 273.277 140.756 273.336 141.044C273.395 141.331 273.535 141.596 273.74 141.806" fill="#FBBEBE"/>
<path opacity="0.05" d="M274.009 139.863C274.291 142.917 271.98 145.881 272.653 148.872C272.799 149.512 273.074 150.115 273.173 150.762C273.452 152.539 272.394 154.22 271.383 155.705L262.696 168.451C262.348 169.011 261.931 169.526 261.456 169.983C259.798 171.461 257.305 171.309 255.123 171.75C253.589 172.061 252.141 172.702 250.879 173.627C250.826 173.672 250.793 173.735 250.785 173.804C250.778 173.873 250.797 173.943 250.839 173.998C251.2 174.489 251.678 174.882 252.229 175.141C252.78 175.4 253.388 175.516 253.996 175.48C254.225 175.782 253.996 176.223 253.664 176.438C253.197 176.77 252.557 176.849 252.464 177.639C252.431 177.914 252.487 178.193 252.623 178.434C252.973 178.97 253.518 179.35 254.142 179.492C257.149 180.411 260.398 178.796 262.65 176.598C264.901 174.399 266.516 171.624 268.724 169.386C269.947 168.149 271.336 167.088 272.596 165.888C275.11 163.494 277.063 160.583 278.949 157.668C279.516 156.79 280.086 155.888 280.325 154.87C280.564 153.852 280.451 152.824 280.72 151.839C281.071 150.546 282.016 149.518 282.802 148.434C284.344 146.312 285.371 143.716 285.169 141.103C284.967 138.49 283.346 135.907 280.879 135.019C280.114 134.712 279.271 134.66 278.475 134.873C277.464 135.184 276.718 136.02 276.028 136.819L274.37 138.726C273.957 139.144 273.63 139.64 273.409 140.184C273.303 140.458 273.277 140.756 273.336 141.044C273.395 141.331 273.535 141.596 273.74 141.806" fill="black"/>
<path d="M280.584 218.478C278.687 219.635 276.323 219.705 274.118 219.436C273.763 219.393 273.342 219.367 273.124 219.642C272.792 220.04 273.183 220.636 273.588 220.945C274.888 221.921 276.416 222.55 278.027 222.772C279.466 222.976 280.918 223.072 282.371 223.06C286.35 223.13 290.328 223.196 294.244 222.626C294.476 222.608 294.702 222.543 294.907 222.434C295.16 222.256 295.335 221.99 295.398 221.688C295.666 220.666 295.149 219.572 294.367 218.863C293.584 218.153 292.58 217.758 291.598 217.377L288.15 216.034C287.341 215.719 286.044 214.884 285.166 214.95C283.515 215.069 281.953 217.676 280.584 218.478Z" fill="#3F3D56"/>
<path opacity="0.05" d="M280.584 218.478C278.687 219.635 276.323 219.705 274.118 219.436C273.763 219.393 273.342 219.367 273.124 219.642C272.792 220.04 273.183 220.636 273.588 220.945C274.888 221.921 276.416 222.55 278.027 222.772C279.466 222.976 280.918 223.072 282.371 223.06C286.35 223.13 290.328 223.196 294.244 222.626C294.476 222.608 294.702 222.543 294.907 222.434C295.16 222.256 295.335 221.99 295.398 221.688C295.666 220.666 295.149 219.572 294.367 218.863C293.584 218.153 292.58 217.758 291.598 217.377L288.15 216.034C287.341 215.719 286.044 214.884 285.166 214.95C283.515 215.069 281.953 217.676 280.584 218.478Z" fill="black"/>
<path d="M283.001 172.701C281.565 174.611 280.08 176.816 280.434 179.18C280.627 180.454 281.34 181.578 281.864 182.755C282.573 184.353 282.944 186.07 283.309 187.781C283.846 190.281 284.387 192.788 284.715 195.328C285.09 198.196 283.329 206.495 283.167 209.383C283.127 210.079 283.044 210.832 282.56 211.333C282.371 211.532 282.119 211.691 282.033 211.949C281.982 212.199 282.023 212.458 282.149 212.679C282.958 214.502 284.612 215.862 286.459 216.638C288.306 217.414 292.759 218.753 294.771 218.823C295.036 218.852 295.305 218.817 295.554 218.72C295.821 218.557 296.032 218.315 296.157 218.027C297.599 215.268 296.213 205.461 296.233 202.347C296.253 199.751 296.867 197.171 296.754 194.578C296.661 192.496 296.091 190.46 295.902 188.385C295.57 184.983 296.194 181.564 296.82 178.202C297.298 175.623 297.778 173.043 298.392 170.496C298.766 168.941 299.201 167.373 300.05 166.024C300.713 164.953 301.644 164.057 302.417 163.039C304.561 160.228 305.514 156.686 305.069 153.179C305.023 152.847 300.096 154.429 299.662 154.618C297.889 155.368 296.259 156.417 294.841 157.718C293.7 158.805 292.802 160.258 291.804 161.474C290.391 163.196 288.996 164.931 287.619 166.677C286.048 168.673 284.508 170.681 283.001 172.701Z" fill="#464353"/>
<path opacity="0.05" d="M283.001 172.585C281.565 174.495 280.08 176.704 280.434 179.064C280.627 180.341 281.34 181.465 281.864 182.642C282.573 184.237 282.944 185.958 283.309 187.665C283.846 190.169 284.387 192.675 284.715 195.212C285.09 198.083 283.329 206.379 283.167 209.267C283.127 209.963 283.044 210.719 282.56 211.22C282.371 211.416 282.119 211.575 282.033 211.833C281.982 212.083 282.023 212.342 282.149 212.563C282.958 214.39 284.612 215.746 286.459 216.542C288.306 217.337 292.759 218.03 294.771 218.097C295.036 218.126 295.305 218.091 295.554 217.994C295.822 217.833 296.033 217.592 296.157 217.304C297.599 214.546 296.213 205.368 296.233 202.251C296.253 199.652 296.867 197.075 296.754 194.479C296.661 192.397 296.091 190.361 295.902 188.289C295.57 184.883 296.194 181.465 296.82 178.103C297.298 175.526 297.778 172.947 298.392 170.397C298.767 168.842 299.201 167.274 300.05 165.924C300.713 164.853 301.644 163.958 302.417 162.94C304.562 160.129 305.515 156.587 305.07 153.079C305.023 152.748 300.096 154.329 299.662 154.518C297.89 155.271 296.26 156.321 294.841 157.622C293.7 158.706 292.802 160.158 291.804 161.375C290.391 163.097 288.996 164.832 287.619 166.581C286.048 168.561 284.508 170.563 283.001 172.585Z" fill="black"/>
<path d="M267.026 130.638C271.47 130.638 275.073 127.036 275.073 122.591C275.073 118.147 271.47 114.544 267.026 114.544C262.582 114.544 258.979 118.147 258.979 122.591C258.979 127.036 262.582 130.638 267.026 130.638Z" fill="#FBBEBE"/>
<path d="M274.274 122.253C275.018 123.439 275.992 124.463 277.14 125.264C278.288 126.065 279.585 126.626 280.955 126.915L280.348 129.12C279.301 132.907 278.124 136.912 275.199 139.538C275.531 138.255 275.106 136.885 274.384 135.771C273.661 134.657 272.646 133.782 271.651 132.916L267.02 128.904C266.886 128.796 266.773 128.663 266.688 128.513C266.574 128.23 266.574 127.914 266.688 127.631C267.278 125.794 268.963 124.647 270.335 123.407C271.024 122.766 271.639 122.05 272.169 121.272C273.094 119.952 273.667 121.278 274.274 122.253Z" fill="#FBBEBE"/>
<path d="M256.426 114.501L256.244 112.989C257.514 113.321 258.721 112.24 259.533 111.122C260.345 110.005 261.098 108.689 262.335 108.221C263.837 107.657 265.428 108.553 266.864 109.309C268.471 110.201 270.235 110.775 272.059 111C272.35 111.009 272.639 111.056 272.918 111.139C273.853 111.471 274.297 112.644 274.433 113.709C274.569 114.773 274.533 115.904 274.994 116.852C275.325 117.571 275.942 118.105 276.32 118.815C277.314 120.718 276.353 123.321 277.391 125.188L274.811 122.824C274.576 122.608 274.244 122.383 273.982 122.565C273.777 122.711 273.76 123.026 273.677 123.278C273.429 124.014 272.507 124.233 271.84 123.941C271.174 123.649 270.687 123.016 270.183 122.439C269.042 121.093 267.683 119.909 266.091 119.335C265.394 119.075 264.648 118.965 263.905 119.014C263.162 119.063 262.438 119.27 261.781 119.621C260.577 120.3 259.695 121.885 258.22 121.942C256.197 122.018 255.355 118.251 254.42 116.762C254.762 116.505 255.003 116.135 255.1 115.718C255.197 115.301 255.144 114.863 254.951 114.481C255.087 114.425 256.396 114.269 256.426 114.501Z" fill="#464353"/>
<path d="M156.895 67.4546C156.248 68.0297 155.65 68.6574 155.108 69.3313C154.561 70.0145 154.27 70.8671 154.285 71.7418C154.288 71.9955 154.369 72.2421 154.517 72.448C154.593 72.5466 154.698 72.6191 154.817 72.6553C154.935 72.6916 155.063 72.6898 155.181 72.6503C155.314 72.5824 155.428 72.482 155.512 72.3585C155.863 71.9374 156.234 71.5346 156.626 71.1516C156.769 71.009 156.958 70.8598 157.15 70.9129C157.236 70.9435 157.314 70.9947 157.375 71.0621C157.599 71.2549 157.761 71.5083 157.843 71.7915C157.959 72.2988 157.664 72.8061 157.329 73.204C156.994 73.6019 156.6 73.9832 156.464 74.4839C156.412 74.6161 156.412 74.7628 156.464 74.895C156.528 74.9907 156.617 75.0665 156.722 75.1139C157.197 75.3753 157.724 75.5292 158.264 75.5647C158.805 75.6002 159.347 75.5165 159.852 75.3194C160.515 75.0509 161.106 74.59 161.789 74.3513C162.084 74.2703 162.371 74.1592 162.644 74.0197C162.839 73.8896 163.007 73.7222 163.137 73.527C163.268 73.3318 163.358 73.1127 163.403 72.8824C163.489 72.4222 163.506 71.9517 163.453 71.4865C163.37 69.6853 162.985 67.9108 162.312 66.2377C162.274 66.1298 162.207 66.0339 162.12 65.9592C162.02 65.8984 161.905 65.8674 161.789 65.8697C160.94 65.7802 159.547 65.3458 158.728 65.6608C158.442 65.8179 158.195 66.0378 158.005 66.3041C157.853 66.4732 156.895 67.2325 156.895 67.4546Z" fill="#A1616A"/>
<path d="M156.626 66.7052C156.626 65.8962 155.632 63.9432 157.213 63.8139C157.213 62.9485 155.99 62.4114 156.218 61.4929C156.291 61.1879 156.55 60.9392 156.58 60.6275C156.679 59.7423 155.081 59.2615 155.346 58.4127C155.446 58.0811 155.797 57.8888 155.874 57.5605C156.053 56.7946 154.683 56.4531 154.657 55.6673C154.657 55.402 154.806 55.1533 154.793 54.8881C154.793 54.5565 154.504 54.3045 154.345 54.0161C153.931 53.2767 154.133 52.1327 153.377 51.7514C153.878 51.7945 154.04 51.0518 153.834 50.5976C153.629 50.1433 153.208 49.7487 153.204 49.2448C153.229 49.0621 153.229 48.877 153.204 48.6944C153.065 48.2103 152.273 48.1705 152.14 47.6996C152.123 47.5189 152.117 47.3373 152.124 47.1559C152.071 46.7812 151.686 46.5425 151.325 46.4364C150.949 46.3726 150.588 46.2436 150.257 46.0551C150.025 45.8793 149.756 45.5875 149.508 45.7235C149.415 45.7799 149.368 45.886 149.299 45.9655C149 46.3137 148.43 46.1612 148.055 45.9059C146.948 45.1532 146.398 43.8037 146.162 42.4874C145.927 41.171 145.933 39.8116 145.638 38.5085C145.548 38.1024 145.429 37.7035 145.28 37.3149C145.154 36.9833 144.75 36.4627 144.723 36.1279C144.663 35.3653 146.242 35.8858 146.842 35.9621C147.424 36.019 148.001 36.13 148.563 36.2936C149.163 36.5203 149.75 36.7782 150.323 37.0662C152.717 38.1239 155.608 38.2532 157.531 40.0304C158.165 40.614 158.698 41.3799 159.521 41.6452C159.898 41.7175 160.27 41.8138 160.635 41.9336C161.547 42.3614 161.689 43.5716 162.186 44.4469C162.343 44.6781 162.479 44.9221 162.594 45.1764C162.69 45.4763 162.735 45.7901 162.727 46.1048L162.797 48.4026C162.909 52.2521 163.022 56.1116 162.611 59.9379C162.478 61.2012 162.279 62.5009 162.654 63.7145C162.753 64.046 162.893 64.3577 162.986 64.6926C163.068 65.0852 163.11 65.4851 163.112 65.8862L163.165 67.375C163.183 67.4908 163.157 67.6092 163.092 67.7066C163.036 67.7516 162.971 67.7836 162.902 67.8002C162.833 67.8169 162.76 67.8177 162.69 67.8027C160.618 67.617 158.523 66.4499 156.567 67.1562" fill="#464353"/>
<path d="M251.194 181.097C264.737 181.097 275.716 179.51 275.716 177.552C275.716 175.595 264.737 174.008 251.194 174.008C237.651 174.008 226.672 175.595 226.672 177.552C226.672 179.51 237.651 181.097 251.194 181.097Z" fill="#504F60"/>
<path d="M272.291 177.725C271.86 175.878 271.592 174.257 271.592 174.257C271.592 174.257 271.691 172.247 270.789 170.739V170.235V166.521C271.046 165.847 271.36 165.196 271.728 164.575C272.391 163.408 271.728 159.13 271.728 159.13C271.728 159.13 269.251 153.099 269.851 149.273C270.451 145.446 264.765 132.283 264.765 132.283C264.8 131.014 264.979 129.752 265.299 128.523C265.359 128.265 265.384 127.999 265.372 127.734C265.372 127.701 265.372 127.671 265.372 127.638C265.372 127.605 265.372 127.658 265.372 127.668C265.285 125.144 263.289 120.416 263.289 120.416L263.558 111.404C263.558 111.404 264.831 106.099 262.756 98.9537C262.029 96.4636 261.565 94.4709 261.27 92.9324C261.237 92.76 261.204 92.6008 261.177 92.4317C265.451 91.7686 268.717 91.2381 268.717 91.2381C268.717 91.2381 266.237 80.8633 264.563 79.0463C262.888 77.2293 261.549 71.5229 261.549 71.5229C261.549 71.5229 260.677 64.1986 262.086 62.0566C263.495 59.9147 263.694 56.221 263.694 56.221C263.694 56.221 266.907 53.9 267.311 52.8489C267.716 51.7978 268.382 49.4768 268.382 48.2467C268.382 47.0166 267.981 45.9257 268.114 45.2626C268.246 44.5995 267.175 42.1492 267.712 40.982C267.851 40.6235 267.923 40.2425 267.925 39.858C267.926 39.847 267.926 39.8359 267.925 39.8248C267.925 39.8248 267.925 39.8248 267.925 39.8248C267.93 38.8035 267.835 37.7841 267.643 36.781C266.713 35.9962 265.629 35.4166 264.46 35.0801L264.39 34.8016L264.208 34.0721C264.106 34.0048 264.001 33.9429 263.893 33.8864V33.6212L263.863 32.5668L264.367 30.1994C265.362 26.0813 259.861 25.4679 259.861 25.4679C259.528 24.8362 258.973 24.3498 258.303 24.1018C257.199 23.7139 258.12 30.2955 258.634 30.7332C259.022 31.0648 260.222 33.1139 260.803 34.1285L260.896 34.2943C260.805 34.3759 260.72 34.4646 260.644 34.5595L260.852 35.9886L260.886 36.2074C260.521 36.6601 260.225 37.164 260.007 37.7028C260.007 37.7028 261.002 38.8036 260.813 40.0238C260.624 41.244 261.121 42.7924 261.144 42.8753C261.085 42.8057 260.378 42.043 259.672 42.2287C258.966 42.4144 256.993 43.0079 256.993 43.0079C256.993 43.0079 255.521 43.2665 255.667 43.5915C255.813 43.9164 254.672 45.3422 254.672 45.3422L250.713 41.5888C250.674 41.4761 250.63 41.3633 250.597 41.2572C250.436 40.7161 250.325 40.1611 250.266 39.5994C250.697 39.4968 251.12 39.3627 251.532 39.1982C251.948 39.0554 252.324 38.8142 252.626 38.4953C253.028 38.0211 253.104 37.3779 253.266 36.7877C253.578 35.6338 254.261 34.6093 254.735 33.5118C255.538 31.6572 255.797 29.6125 255.481 27.6164C255.42 27.0013 255.212 26.4099 254.874 25.8923C254.228 25.0037 253.054 24.6423 252.202 23.9327C251.35 23.2231 250.8 22.1389 249.805 21.6117C248.906 21.1309 247.815 21.1873 246.801 21.3531C244.819 21.6799 242.916 22.3725 241.188 23.3956C240.611 23.7271 239.974 24.135 239.311 24.0123C238.741 23.9095 238.316 23.4552 237.958 23.0176C237.962 22.9995 237.968 22.9817 237.975 22.9645C237.959 22.9484 237.944 22.9306 237.932 22.9115C237.512 23.8427 237.302 24.8544 237.315 25.8757C237.315 26.0349 237.315 26.2073 237.335 26.3498V26.5156C237.335 26.5621 237.335 26.6085 237.335 26.6516C237.335 26.7223 237.325 26.7926 237.305 26.8605C237.221 27.0633 237.095 27.2455 236.934 27.3943C236.812 27.5325 236.701 27.68 236.602 27.8353C236.602 27.7822 236.635 27.7292 236.655 27.6728C236.402 28.042 236.26 28.4756 236.244 28.9228C236.225 29.2484 236.332 29.5687 236.542 29.8181C236.741 30.0108 236.957 30.1841 237.189 30.3353C237.11 30.773 237.07 31.2169 237.07 31.6616C237.077 32.9801 237.425 34.2743 238.079 35.4192C238.733 36.5641 239.671 37.5208 240.803 38.1968C240.849 38.3063 240.892 38.419 240.936 38.5284C241.443 39.8547 241.824 41.4131 241.655 42.8388C241.655 42.9416 241.625 43.0477 241.609 43.1505C241.592 43.2533 241.509 43.2599 241.466 43.3163C241.466 43.3163 234.924 43.3826 233.386 41.99C231.847 40.5974 229.5 45.3952 229.5 45.3952C229.5 45.3952 227.156 45.8495 226.685 45.3952C226.214 44.941 223.472 45.3322 223.472 45.3322C222.349 44.3331 220.887 43.7996 219.384 43.8402C218.473 43.1482 217.469 42.5899 216.4 42.1823V42.1823L216.327 42.1558C215.855 41.9839 215.351 41.9204 214.852 41.9701C214.852 41.9701 211.635 39.3175 210.697 37.8852C209.759 36.4528 205.293 31.1642 205.273 31.141V30.8857L205.223 30.1165C205.09 30.1373 204.956 30.1484 204.822 30.1496C204.799 30.0734 204.766 29.9839 204.732 29.8811C204.475 29.1307 204.158 28.4023 203.784 27.7027C203.784 27.7027 203.784 26.7312 204.066 26.4858C204.348 26.2404 203.95 22.6761 203.95 22.6761C203.95 22.6761 201.052 15.9021 198.456 20.9585C198.456 20.9585 193.549 24.2311 197.667 28.0442C197.667 28.0442 199.325 28.8399 199.543 29.4699C199.696 29.8778 200.253 31.0217 200.628 31.7909L200.797 32.1225L200.75 32.1623L200.81 32.7989L200.837 33.0442C200.061 33.4852 199.534 33.9229 199.663 34.2512C199.891 34.8129 200.048 35.401 200.13 36.0018C200.13 36.0018 205.827 43.1372 206.563 46.1844C206.563 46.1844 221.838 55.2627 226.861 55.9093L225.972 60.4352C225.843 61.6634 225.776 62.8973 225.773 64.1322C225.84 65.1037 225.17 69.5136 225.17 69.5136C225.17 69.5136 224.298 75.9991 223.562 76.9076C222.826 77.8161 222.958 81.7054 222.958 81.7054C222.785 83.5673 222.452 85.411 221.964 87.2161C221.228 89.6797 221.761 92.7301 221.761 92.7301C221.761 92.7301 219.218 98.5658 225.312 94.6101C225.312 94.6101 228.296 94.4245 231.751 94.3051C231.751 94.4178 231.751 94.5339 231.751 94.6367C231.751 95.081 231.751 95.5617 231.728 96.0657C231.682 99.408 231.662 104.023 231.814 107.498C232.083 113.659 233.96 125.851 233.96 125.851V131.988C233.838 132.564 233.778 133.15 233.78 133.739C233.741 135.898 234.316 138.024 235.438 139.869L235.909 143.954C235.909 143.954 237.01 146.647 237.03 148.265C237.026 148.395 237.01 148.525 236.983 148.653C236.94 148.859 236.923 149.069 236.93 149.279C236.867 151.136 237.985 155.579 237.985 155.579C237.985 155.579 238.051 160.052 238.721 160.314C239.294 160.536 237.955 162.89 237.557 163.567C237.546 163.525 237.539 163.483 237.534 163.441L237.451 163.573C237.313 163.935 237.242 164.32 237.242 164.707C237.204 165.013 237.254 165.323 237.385 165.601C237.517 165.879 237.725 166.114 237.985 166.279C239.258 167.058 239.941 167.705 238.86 167.963C238.462 168.025 238.068 168.108 237.68 168.212C237.68 168.162 237.64 168.109 237.623 168.063C237.471 168.122 237.344 168.233 237.263 168.375C237.183 168.518 237.154 168.684 237.182 168.845C237.193 169.371 237.328 169.887 237.577 170.351C238.648 172.751 239.39 173.666 239.39 173.666L239.904 173.61C239.829 173.806 239.728 173.992 239.606 174.164C239.41 174.442 239.151 174.669 238.85 174.827C238.569 174.995 238.256 175.102 237.932 175.142C237.568 175.154 237.212 175.242 236.885 175.401C236.558 175.559 236.269 175.785 236.035 176.064C235.372 176.929 234.948 178.106 236.267 179.141L241.058 180.798C241.058 180.798 249.301 181.869 248.863 180.019C248.426 178.169 248.16 176.551 248.16 176.551C248.196 175.421 247.969 174.299 247.497 173.272C247.411 173.104 247.313 172.942 247.205 172.788L247.497 172.758C247.497 172.758 248.101 168.67 248.903 167.894C249.089 167.715 249.132 167.562 249.089 167.469C249.172 167.247 248.959 167.118 248.691 167.042L248.631 167.204C248.369 167.147 248.101 167.117 247.832 167.115C247.832 167.115 247.563 164.976 248.435 164.197C248.506 164.108 248.557 164.006 248.586 163.896C248.615 163.786 248.622 163.672 248.605 163.56C248.611 163.267 248.58 162.974 248.512 162.688C248.503 162.706 248.493 162.724 248.482 162.741C248.044 160.798 246.559 157.711 246.559 157.711C246.559 157.711 246.493 155.768 247.03 154.989C247.567 154.21 246.96 144.419 246.96 144.419C246.96 144.419 247.162 139.687 246.559 137.482C245.955 135.277 247.295 132.681 247.295 132.681C247.295 132.681 247.295 132.631 247.295 132.542V132.509L247.219 131.763C247.217 131.778 247.217 131.794 247.219 131.809C247.083 130.556 246.827 128.284 246.638 127.237C246.37 125.745 246.708 118.616 246.708 118.616L247.912 115.565L250.057 120.821L252.335 127.823C252.335 127.823 253.462 129.302 253.488 130.808C253.488 130.881 253.488 130.954 253.488 131.026C253.47 131.182 253.461 131.338 253.462 131.494C253.422 132.379 253.664 133.253 254.155 133.991C254.155 133.991 254.758 137.306 255.697 138.139C256.635 138.971 256.635 140.602 256.635 140.602C256.635 140.602 257.772 145.403 258.293 146.239C258.744 146.948 258.767 148.891 258.764 149.498C258.764 149.608 258.764 149.671 258.764 149.671C258.764 149.671 258.923 151.388 258.916 152.827C258.916 153.006 258.916 153.179 258.916 153.341C258.918 153.329 258.918 153.317 258.916 153.305C258.916 153.698 258.869 154.09 258.777 154.472L258.757 154.538C258.757 154.455 258.757 154.376 258.78 154.296C258.547 155.273 258.436 156.276 258.449 157.28C258.419 159.004 258.681 161.047 259.725 162.254C261.535 164.329 262.673 164.071 262.673 164.071C262.673 164.071 261.804 166.664 260.73 167.184C260.689 167.203 260.651 167.228 260.617 167.257C260.617 167.204 260.597 167.154 260.591 167.105C260.471 167.234 260.379 167.387 260.322 167.554C260.265 167.72 260.244 167.897 260.259 168.073C260.183 169.213 260.902 171.057 261.585 171.916C261.839 172.164 262.15 172.346 262.49 172.446C262.436 172.484 262.38 172.519 262.321 172.549C262.202 172.614 262.079 172.673 261.953 172.725C261.779 172.799 261.595 172.847 261.406 172.867C261.043 172.877 260.685 172.964 260.358 173.123C260.031 173.282 259.742 173.509 259.51 173.789C258.847 174.651 258.422 175.828 259.742 176.863L264.533 178.521C264.533 178.521 272.722 179.572 272.291 177.725Z" fill="url(#paint0_linear)"/>
<path d="M240.823 180.788L236.181 179.131C234.901 178.096 235.309 176.919 235.955 176.054C236.178 175.778 236.457 175.553 236.774 175.394C237.091 175.234 237.438 175.145 237.792 175.132C238.107 175.092 238.409 174.984 238.678 174.817C238.972 174.657 239.224 174.43 239.414 174.154C239.752 173.616 239.935 172.995 239.941 172.36C239.941 172.36 245.034 170.868 246.426 172.36C246.675 172.63 246.883 172.935 247.043 173.265C247.506 174.295 247.732 175.415 247.706 176.544C247.706 176.544 247.965 178.162 248.386 180.013C248.807 181.863 240.823 180.788 240.823 180.788Z" fill="#2D293D"/>
<path d="M263.515 178.501L258.873 176.843C257.593 175.808 258.001 174.631 258.648 173.769C258.868 173.492 259.147 173.266 259.463 173.107C259.78 172.948 260.127 172.859 260.481 172.847C260.664 172.829 260.844 172.78 261.012 172.705C261.134 172.653 261.254 172.594 261.37 172.529C262.666 171.816 262.633 170.065 262.633 170.065C262.633 170.065 267.722 168.573 269.118 170.065C269.305 170.268 269.469 170.49 269.606 170.729C270.478 172.237 270.382 174.25 270.382 174.25C270.382 174.25 270.64 175.871 271.045 177.718C271.449 179.565 263.515 178.501 263.515 178.501Z" fill="#2D293D"/>
<path opacity="0.1" d="M246.43 172.357C246.678 172.627 246.886 172.932 247.046 173.262L239.42 174.147C239.759 173.61 239.942 172.989 239.948 172.353C239.948 172.353 245.037 170.865 246.43 172.357Z" fill="black"/>
<path opacity="0.1" d="M269.612 170.735V172.164C268.425 174.117 262.686 173.689 261.018 172.711C261.141 172.66 261.26 172.601 261.376 172.536C262.673 171.823 262.64 170.072 262.64 170.072C262.64 170.072 267.729 168.58 269.125 170.072C269.312 170.274 269.475 170.497 269.612 170.735V170.735Z" fill="black"/>
<path d="M270.517 164.575C270.163 165.197 269.86 165.848 269.612 166.521V171.644C268.313 173.782 261.572 173.07 260.66 171.902C259.748 170.735 258.797 167.698 259.821 167.171C260.846 166.644 261.701 164.058 261.701 164.058C261.701 164.058 260.597 164.316 258.846 162.241C257.096 160.165 257.616 155.563 257.941 154.462C258.266 153.361 257.941 149.664 257.941 149.664C257.941 149.664 258.008 147.068 257.49 146.226C256.973 145.383 255.869 140.589 255.869 140.589C255.869 140.589 255.869 138.968 254.961 138.125C254.052 137.283 253.469 133.974 253.469 133.974C252.937 133.147 252.709 132.162 252.822 131.186C253.014 129.564 251.718 127.814 251.718 127.814L249.513 120.808L247.437 115.555L246.27 118.603C246.27 118.603 245.939 125.735 246.207 127.223C246.476 128.712 246.87 132.671 246.87 132.671C246.87 132.671 245.574 135.264 246.158 137.469C246.741 139.674 246.529 144.412 246.529 144.412C246.529 144.412 247.112 154.2 246.592 154.979C246.071 155.758 246.138 157.705 246.138 157.705C246.138 157.705 248.79 163.408 247.955 164.187C247.119 164.966 247.371 167.105 247.371 167.105C247.371 167.105 249.185 167.105 248.409 167.884C247.633 168.663 247.046 172.748 247.046 172.748L239.205 173.666C239.205 173.666 238.489 172.761 237.451 170.351C236.413 167.94 237.643 168.212 238.688 167.95C239.732 167.688 239.072 167.045 237.839 166.266C236.605 165.487 237.321 163.736 237.321 163.736C237.321 163.736 239.201 160.559 238.552 160.301C237.902 160.042 237.839 155.566 237.839 155.566C237.839 155.566 236.542 150.261 236.867 148.822C237.192 147.383 235.829 143.961 235.829 143.961L235.375 139.876C233.988 137.558 233.482 134.818 233.95 132.157V125.857C233.95 125.857 232.133 113.669 231.874 107.508C231.708 103.563 231.755 98.1779 231.808 94.8191C231.841 92.9358 231.874 91.6858 231.874 91.6858L259.884 88.7679C259.884 88.7679 259.858 90.0611 260.392 92.9291C260.68 94.4676 261.128 96.4604 261.83 98.9505C263.84 106.083 262.61 111.398 262.61 111.398L262.348 120.413C262.348 120.413 264.811 126.441 264.294 128.517C263.981 129.749 263.806 131.012 263.77 132.283C263.77 132.283 269.281 145.446 268.697 149.273C268.114 153.099 270.511 159.13 270.511 159.13C270.511 159.13 271.167 163.408 270.517 164.575Z" fill="#464353"/>
<path opacity="0.05" d="M254.503 130.794L263.031 129.657C263.031 129.657 258.2 134.588 254.503 130.794Z" fill="black"/>
<path opacity="0.1" d="M261.797 121.325C261.797 121.325 262.089 124.342 260.242 125.476C260.242 125.476 263.548 124.959 261.797 121.325Z" fill="black"/>
<path opacity="0.1" d="M261.274 111.729C261.274 111.729 254.145 117.598 251.552 117.111C248.959 116.623 261.274 111.729 261.274 111.729Z" fill="black"/>
<path opacity="0.1" d="M243.933 133.546C243.933 133.546 238.519 134.777 238.356 136.952C238.194 139.127 243.933 133.546 243.933 133.546Z" fill="black"/>
<path opacity="0.05" d="M245.123 160.589C245.123 160.589 237.474 162.015 239.646 162.986C241.818 163.958 245.385 164.737 245.385 164.737C245.385 164.737 247.855 164.866 245.123 160.589Z" fill="black"/>
<g opacity="0.05">
<path opacity="0.05" d="M238.101 164.532C237.908 164.411 237.746 164.249 237.625 164.058C237.503 163.866 237.427 163.649 237.401 163.424L237.322 163.56C237.322 163.56 236.609 165.311 237.842 166.087C237.981 166.176 238.117 166.266 238.24 166.352C238.469 166.309 238.714 166.276 238.95 166.216C239.994 165.957 239.334 165.311 238.101 164.532Z" fill="black"/>
<path opacity="0.05" d="M247.955 164.011C248.167 163.819 248.16 163.321 248.031 162.685C247.699 163.185 247.603 163.968 247.597 164.561C247.677 164.355 247.799 164.168 247.955 164.011V164.011Z" fill="black"/>
<path opacity="0.05" d="M246.778 131.753C246.496 132.52 246.322 133.322 246.26 134.137C246.408 133.574 246.607 133.025 246.854 132.499L246.778 131.753Z" fill="black"/>
<path opacity="0.05" d="M264.297 128.351C264.348 128.118 264.372 127.88 264.367 127.641C264.271 128.125 264.205 128.573 264.155 128.967C264.198 128.765 264.244 128.573 264.297 128.351Z" fill="black"/>
<path opacity="0.05" d="M246.595 154.807C246.702 154.647 246.761 154.11 246.788 153.364C246.548 153.942 246.421 154.559 246.413 155.185C246.458 155.052 246.52 154.925 246.595 154.807V154.807Z" fill="black"/>
<path opacity="0.05" d="M248.187 167.035C247.785 168.336 247.487 169.666 247.295 171.014L239.454 171.919C239.454 171.919 238.737 171.014 237.7 168.603C237.616 168.417 237.542 168.227 237.477 168.033C237.007 168.248 236.814 168.736 237.438 170.158C238.475 172.559 239.195 173.474 239.195 173.474L247.036 172.566C247.036 172.566 247.62 168.481 248.396 167.701C248.794 167.327 248.548 167.131 248.187 167.035Z" fill="black"/>
<path opacity="0.05" d="M237.842 155.39C237.842 155.39 237.905 159.863 238.555 160.122C238.887 159.382 239.102 158.679 238.81 158.563C238.147 158.305 238.097 153.828 238.097 153.828C238.097 153.828 236.801 148.523 237.126 147.084C237.451 145.645 236.088 142.224 236.088 142.224L235.634 138.139C234.247 135.821 233.74 133.08 234.208 130.42V124.12C234.208 124.12 232.391 111.931 232.133 105.771C231.967 101.825 232.013 96.4404 232.066 93.0816C232.066 92.4748 232.086 91.9376 232.096 91.4834L231.874 91.5066C231.874 91.5066 231.838 92.7533 231.808 94.6399C231.755 97.9987 231.705 103.383 231.874 107.326C232.133 113.486 233.946 125.678 233.946 125.678V131.978C233.481 134.638 233.988 137.377 235.375 139.694L235.826 143.779C235.826 143.779 237.189 147.214 236.864 148.643C236.539 150.072 237.842 155.39 237.842 155.39Z" fill="black"/>
<path opacity="0.05" d="M260.925 170.172C260.288 169.249 259.864 168.197 259.682 167.091C258.883 167.814 259.801 170.619 260.677 171.733C261.582 172.9 268.326 173.613 269.629 171.471V170.238C267.862 171.972 261.781 171.276 260.925 170.172Z" fill="black"/>
<path opacity="0.05" d="M270.779 162.844C270.424 163.467 270.12 164.118 269.871 164.79V165.709C270.02 165.377 270.229 164.933 270.534 164.409C270.739 163.898 270.836 163.351 270.819 162.801C270.819 162.801 270.789 162.831 270.779 162.844Z" fill="black"/>
<path opacity="0.05" d="M261.323 163.868C261.57 163.369 261.784 162.854 261.963 162.327C261.963 162.327 260.859 162.585 259.109 160.51C257.835 159.001 257.762 156.149 257.945 154.286C257.613 155.39 257.099 159.992 258.85 162.068C259.994 163.424 260.859 163.782 261.323 163.868Z" fill="black"/>
<path opacity="0.05" d="M257.941 149.488C258.056 150.766 258.099 152.049 258.071 153.331C258.103 153.129 258.147 152.928 258.203 152.731C258.535 151.627 258.203 147.933 258.203 147.933C258.203 147.933 258.27 145.337 257.749 144.495C257.229 143.653 256.144 138.852 256.144 138.852C256.144 138.852 256.144 137.23 255.236 136.388C254.327 135.546 253.744 132.237 253.744 132.237C253.208 131.411 252.974 130.426 253.081 129.448C253.276 127.827 251.98 126.076 251.98 126.076L249.775 119.073L247.699 113.821L246.529 116.872C246.529 116.872 246.529 117.256 246.489 117.866L247.438 115.39L249.513 120.632L251.718 127.634C251.718 127.634 253.014 129.385 252.819 131.007C252.712 131.985 252.946 132.97 253.482 133.795C253.482 133.795 254.065 137.111 254.974 137.946C255.882 138.782 255.879 140.41 255.879 140.41C255.879 140.41 256.983 145.208 257.5 146.047C258.018 146.885 257.941 149.488 257.941 149.488Z" fill="black"/>
</g>
<path d="M263.386 30.1895L262.898 32.5569L262.928 33.6113L262.948 34.3872L260.242 34.6657L259.941 34.1053C259.38 33.0907 258.217 31.0284 257.842 30.71C257.341 30.2923 256.449 23.7073 257.51 24.0985C258.163 24.3508 258.7 24.8364 259.016 25.4613C259.016 25.4613 264.344 26.0714 263.386 30.1895Z" fill="#FFCDD3"/>
<path opacity="0.1" d="M262.948 34.3871L260.242 34.6656L259.941 34.1053C260.305 33.691 260.801 33.4156 261.345 33.3262C261.889 33.2367 262.447 33.3386 262.925 33.6145L262.948 34.3871Z" fill="black"/>
<path d="M263.631 35.6703L260.063 36.4959L259.987 35.9654L259.785 34.5363C259.785 34.5363 261.197 32.653 263.24 34.0655L263.419 34.7916L263.631 35.6703Z" fill="#00B0FF"/>
<path d="M205.84 30.448L202.03 32.4905L201.699 31.7743C201.337 31.015 200.797 29.8711 200.648 29.4533C200.422 28.8233 198.834 28.0276 198.834 28.0276C194.855 24.2178 199.596 20.9419 199.596 20.9419C202.11 15.8855 204.901 22.6595 204.901 22.6595C204.901 22.6595 205.293 26.2305 205.018 26.4692C204.742 26.7079 204.742 27.6861 204.742 27.6861C205.105 28.3868 205.413 29.1152 205.661 29.8645C205.777 30.2259 205.84 30.448 205.84 30.448Z" fill="#FFCDD3"/>
<path opacity="0.1" d="M205.84 30.4481L202.03 32.4906L201.699 31.7744C202.236 31.3234 204.142 29.785 204.769 29.8479C205.068 29.8853 205.37 29.8931 205.671 29.8712C205.777 30.2259 205.84 30.4481 205.84 30.4481Z" fill="black"/>
<path d="M206.228 31.5987L201.947 33.7074L201.861 32.789L201.801 32.1524C201.801 32.1524 204.282 30.027 205.014 30.1099C205.385 30.1636 205.761 30.1636 206.132 30.1099L206.181 30.8792L206.228 31.5987Z" fill="#00B0FF"/>
<path d="M253.011 45.9158C253.011 45.9158 234.351 48.0213 237.839 46.8873C240.266 46.0948 241.231 44.5663 241.433 42.8421C241.599 41.4064 241.227 39.858 240.74 38.5317C240.301 37.3551 239.746 36.2255 239.082 35.1596C239.082 35.1596 253.339 27.3147 250.491 34.4468C250.052 35.5255 249.779 36.6648 249.682 37.8255C249.597 38.9789 249.721 40.1384 250.05 41.2473C250.588 43.0466 251.613 44.6622 253.011 45.9158V45.9158Z" fill="#FFCDD3"/>
<path opacity="0.1" d="M250.481 34.4369C250.042 35.5156 249.769 36.6549 249.672 37.8156C248.329 38.9462 246.857 38.87 244.964 38.87C243.512 38.87 241.9 39.2214 240.74 38.5218C240.301 37.3452 239.746 36.2156 239.082 35.1498C239.082 35.1498 253.336 27.3048 250.481 34.4369Z" fill="black"/>
<path d="M244.712 39.3673C248.973 39.3673 252.427 35.9129 252.427 31.6517C252.427 27.3904 248.973 23.936 244.712 23.936C240.451 23.936 236.997 27.3904 236.997 31.6517C236.997 35.9129 240.451 39.3673 244.712 39.3673Z" fill="#FFCDD3"/>
<path opacity="0.1" d="M253.011 45.9158C253.011 45.9158 234.351 48.0213 237.839 46.8874C240.266 46.0949 241.231 44.5664 241.433 42.8422C242.361 41.8475 244.228 41.1081 245.412 40.7235C246.506 40.3555 247.688 40.3358 248.794 40.6671C249.228 40.7981 249.643 40.9901 250.024 41.2374C250.567 43.0433 251.601 44.6629 253.011 45.9158V45.9158Z" fill="black"/>
<path opacity="0.1" d="M263.631 35.6702L260.063 36.4958L259.987 35.9653C260.369 35.4406 260.903 35.0464 261.517 34.8364C262.132 34.6263 262.795 34.6107 263.419 34.7916L263.631 35.6702Z" fill="black"/>
<path opacity="0.1" d="M206.228 31.5986L201.947 33.7073L201.861 32.7889C203.248 32.0434 204.688 31.4039 206.171 30.8757L206.228 31.5986Z" fill="black"/>
<path opacity="0.1" d="M260.392 92.9357C253.16 94.0896 242.882 95.5618 241.251 95.0644C239.895 94.6533 235.571 94.6964 231.808 94.8257C231.841 92.9424 231.874 91.6923 231.874 91.6923L259.884 88.7745C259.884 88.7745 259.858 90.0677 260.392 92.9357Z" fill="black"/>
<path d="M267.6 91.2381C267.6 91.2381 243.804 95.323 241.251 94.5538C238.698 93.7845 225.584 94.6168 225.584 94.6168C219.683 98.5724 222.146 92.7368 222.146 92.7368C222.146 92.7368 221.629 89.6896 222.342 87.2261C222.82 85.4174 223.148 83.5719 223.32 81.7088C223.32 81.7088 223.19 77.8161 223.903 76.9076C224.616 75.9991 225.462 69.5169 225.462 69.5169C225.462 69.5169 226.108 65.1071 226.045 64.1356C225.982 63.1641 226.238 60.4386 226.238 60.4386L227.083 55.8994C222.219 55.2528 207.435 46.1744 207.435 46.1744C206.722 43.1273 201.211 35.9952 201.211 35.9952C201.131 35.3955 200.978 34.8077 200.757 34.2445C200.369 33.2067 206.205 31.1311 206.205 31.1311C206.205 31.1311 210.548 36.4362 211.457 37.8752C212.365 39.3143 215.475 41.9602 215.475 41.9602C215.958 41.9105 216.446 41.974 216.901 42.1459L216.977 42.1691C218.019 42.5782 218.997 43.1367 219.878 43.8269C221.34 43.7922 222.759 44.3273 223.834 45.319C223.834 45.319 226.486 44.9277 226.947 45.382C227.408 45.8362 229.669 45.382 229.669 45.382C229.669 45.382 231.937 40.5842 233.429 41.9768C234.921 43.3693 241.251 43.303 241.251 43.303C242.093 42.1823 244.145 41.3799 245.428 40.982C246.523 40.6155 247.704 40.5959 248.81 40.9257C249.287 41.0681 249.736 41.2925 250.136 41.5888L253.986 45.3488C253.986 45.3488 255.087 43.9198 254.957 43.5981C254.828 43.2765 256.254 43.0146 256.254 43.0146C256.254 43.0146 258.134 42.431 258.847 42.2354C259.559 42.0398 260.213 42.8123 260.272 42.8819C260.249 42.799 259.762 41.2241 259.941 40.0304C260.12 38.8368 259.162 37.7095 259.162 37.7095C261.429 32.1324 266.552 36.8009 266.552 36.8009C266.552 36.8009 267.136 39.8481 266.618 41.0152C266.101 42.1823 267.136 44.6459 267.006 45.2958C266.877 45.9456 267.268 47.0465 267.268 48.2799C267.268 49.5133 266.605 51.8443 266.23 52.8821C265.856 53.9199 262.729 56.2542 262.729 56.2542C262.729 56.2542 262.534 59.9512 261.171 62.0898C259.808 64.2284 260.664 71.5428 260.664 71.5428C260.664 71.5428 261.96 77.2492 263.581 79.0662C265.203 80.8832 267.6 91.2381 267.6 91.2381Z" fill="#3F3D56"/>
<path opacity="0.1" d="M232.912 48.5716C232.912 48.5716 232.199 46.433 231.549 46.2506C230.904 46.0133 230.276 45.7319 229.669 45.4085L230.087 44.6094C230.087 44.6094 232.521 45.2725 232.912 45.992C233.303 46.7115 232.912 48.5716 232.912 48.5716Z" fill="black"/>
<path opacity="0.1" d="M219.878 43.8402C219.749 44.5033 213.976 45.0703 213.976 45.0703L216.894 42.1459L216.967 42.1724C218.013 42.5838 218.994 43.1456 219.878 43.8402V43.8402Z" fill="black"/>
<path d="M203.181 35.4581C203.466 35.4581 203.698 35.2265 203.698 34.9408C203.698 34.6552 203.466 34.4236 203.181 34.4236C202.895 34.4236 202.663 34.6552 202.663 34.9408C202.663 35.2265 202.895 35.4581 203.181 35.4581Z" fill="#575988"/>
<path d="M203.844 36.4959C204.129 36.4959 204.361 36.2643 204.361 35.9787C204.361 35.693 204.129 35.4614 203.844 35.4614C203.558 35.4614 203.327 35.693 203.327 35.9787C203.327 36.2643 203.558 36.4959 203.844 36.4959Z" fill="#575988"/>
<path d="M204.494 37.4542C204.779 37.4542 205.011 37.2226 205.011 36.9369C205.011 36.6513 204.779 36.4197 204.494 36.4197C204.208 36.4197 203.977 36.6513 203.977 36.9369C203.977 37.2226 204.208 37.4542 204.494 37.4542Z" fill="#575988"/>
<path d="M205.173 38.4886C205.459 38.4886 205.691 38.257 205.691 37.9713C205.691 37.6857 205.459 37.4541 205.173 37.4541C204.888 37.4541 204.656 37.6857 204.656 37.9713C204.656 38.257 204.888 38.4886 205.173 38.4886Z" fill="#575988"/>
<path d="M266.293 38.3361C266.526 38.3361 266.714 38.1476 266.714 37.915C266.714 37.6824 266.526 37.4939 266.293 37.4939C266.061 37.4939 265.872 37.6824 265.872 37.915C265.872 38.1476 266.061 38.3361 266.293 38.3361Z" fill="#575988"/>
<path d="M266.36 39.2943C266.592 39.2943 266.781 39.1058 266.781 38.8732C266.781 38.6407 266.592 38.4521 266.36 38.4521C266.127 38.4521 265.939 38.6407 265.939 38.8732C265.939 39.1058 266.127 39.2943 266.36 39.2943Z" fill="#575988"/>
<path d="M266.416 40.2493C266.649 40.2493 266.837 40.0608 266.837 39.8282C266.837 39.5956 266.649 39.4071 266.416 39.4071C266.184 39.4071 265.995 39.5956 265.995 39.8282C265.995 40.0608 266.184 40.2493 266.416 40.2493Z" fill="#575988"/>
<path opacity="0.1" d="M232.935 66.1449C232.872 66.0686 247.491 84.5271 258.837 73.8605C258.847 73.8638 240.919 76.2942 232.935 66.1449Z" fill="black"/>
<path opacity="0.1" d="M224.547 75.7405C224.547 75.7405 233.293 75.9792 234.208 78.4958V81.1152C233.959 81.2534 233.679 81.3259 233.394 81.3259C233.109 81.3259 232.829 81.2534 232.58 81.1152C231.698 80.6378 226.41 77.9521 224.547 79.2452V75.7405Z" fill="black"/>
<path d="M224.709 75.7405C224.709 75.7405 233.074 75.9693 233.95 78.3698V80.8632C233.711 80.9956 233.443 81.0651 233.17 81.0651C232.898 81.0651 232.63 80.9956 232.391 80.8632C231.549 80.4123 226.493 77.8493 224.709 79.0827V75.7405Z" fill="#3F3D56"/>
<path opacity="0.1" d="M229.321 56.7482C230.215 58.8166 231.353 60.7703 232.713 62.5672C234.191 64.5534 235.983 66.2858 238.018 67.6966C238.018 67.6966 229.467 57.9485 229.321 56.7482Z" fill="black"/>
<path opacity="0.1" d="M226.46 46.5856C226.46 46.5856 227.918 52.8854 231.678 55.024L226.46 46.5856Z" fill="black"/>
<path opacity="0.1" d="M224.222 47.2222C224.185 47.1061 222.925 52.1957 229.069 55.024C229.069 55.024 226.46 54.1387 224.222 47.2222Z" fill="black"/>
<path opacity="0.1" d="M262.414 42.998C262.318 42.998 265.445 44.9874 266.297 45.9158C266.297 45.9158 264.261 42.8653 262.414 42.998Z" fill="black"/>
<path d="M242.627 38.6445C242.628 38.8128 242.664 38.9791 242.732 39.1327C242.801 39.2864 242.901 39.4242 243.026 39.5373C243.15 39.6504 243.297 39.7364 243.457 39.7899C243.616 39.8434 243.785 39.8632 243.953 39.8481C246.304 39.994 248.754 40.0968 250.916 39.1849C251.321 39.0402 251.685 38.799 251.977 38.482C252.361 38.0079 252.437 37.3646 252.593 36.7744C252.898 35.6206 253.548 34.596 254.016 33.4985C254.807 31.6443 255.072 29.6081 254.782 27.6132C254.72 27.0017 254.518 26.4127 254.191 25.8923C253.568 25.0004 252.431 24.639 251.605 23.9294C250.78 23.2199 250.249 22.1356 249.284 21.6084C248.416 21.1243 247.351 21.184 246.373 21.3498C244.449 21.6765 242.606 22.3687 240.942 23.389C240.382 23.7205 239.768 24.1284 239.125 24.0057C238.562 23.8996 238.15 23.4254 237.799 22.9811C237.347 24.0422 237.157 25.1966 237.245 26.3466C237.27 26.5153 237.264 26.6871 237.229 26.8539C237.148 27.0555 237.024 27.2375 236.867 27.3877C236.287 28.0508 235.926 29.1284 236.499 29.8115C236.748 30.1066 237.133 30.269 237.375 30.5708C237.809 31.1112 237.663 31.897 237.653 32.5867C237.629 32.8275 237.69 33.0691 237.826 33.2697C237.951 33.3867 238.104 33.4692 238.271 33.5093C238.438 33.5494 238.612 33.5457 238.777 33.4985C239.106 33.3996 239.45 33.3669 239.792 33.4024C240.151 33.5193 240.462 33.7526 240.674 34.0655C241.745 35.4614 242.169 36.98 242.627 38.6445Z" fill="#2D293D"/>
<g opacity="0.1">
<path opacity="0.1" d="M252.252 37.8951C251.96 38.2121 251.596 38.4533 251.191 38.5981C249.016 39.5032 246.569 39.4005 244.228 39.2612C243.977 39.2637 243.728 39.2081 243.502 39.0987C243.144 38.8898 243.008 38.4522 242.898 38.0543C242.441 36.3964 242.02 34.8745 240.932 33.4919C240.723 33.173 240.412 32.9336 240.05 32.8122C239.709 32.78 239.365 32.8126 239.036 32.9083C238.871 32.9559 238.697 32.9601 238.53 32.9206C238.364 32.8811 238.21 32.7992 238.084 32.6829C237.949 32.4822 237.888 32.2406 237.912 31.9998C237.912 31.3035 238.068 30.5243 237.633 29.9839C237.391 29.6821 237.007 29.5197 236.758 29.2213C236.596 29.0013 236.496 28.7414 236.47 28.4693C236.444 28.1972 236.492 27.9231 236.609 27.6761C236.194 28.3393 236.019 29.1715 236.499 29.7418C236.748 30.0369 237.133 30.1994 237.375 30.5011C237.809 31.0449 237.663 31.8274 237.653 32.5171C237.628 32.7575 237.687 32.9993 237.822 33.2001C237.948 33.3176 238.102 33.4004 238.269 33.4405C238.437 33.4806 238.612 33.4766 238.777 33.4289C239.106 33.3299 239.45 33.2973 239.792 33.3327C240.151 33.4496 240.461 33.683 240.674 33.9959C241.758 35.3785 242.182 36.8971 242.64 38.5616C242.693 38.9712 242.898 39.346 243.213 39.6127C243.441 39.7222 243.691 39.7767 243.943 39.7718C246.294 39.9177 248.744 40.0238 250.906 39.1087C251.312 38.9649 251.676 38.7235 251.967 38.4057C252.113 38.219 252.225 38.008 252.298 37.7824C252.301 37.8255 252.278 37.862 252.252 37.8951Z" fill="black"/>
<path opacity="0.1" d="M237.245 26.6516C237.349 26.5385 237.43 26.4054 237.481 26.2604C237.511 26.0926 237.511 25.9208 237.481 25.7531C237.416 24.8077 237.539 23.8589 237.842 22.9612L237.799 22.9115C237.345 23.971 237.155 25.1246 237.245 26.2736C237.255 26.3994 237.255 26.5258 237.245 26.6516V26.6516Z" fill="black"/>
</g>
<path opacity="0.1" d="M241.251 43.3196C241.251 43.3196 250.889 44.5995 251.754 43.1505Z" fill="black"/>
<path opacity="0.1" d="M259.987 39.3308C259.987 39.3308 265.345 39.3308 266.522 41.3468Z" fill="black"/>
<path d="M289.964 218.428C288.374 219.849 286.309 220.621 284.178 220.59C283.634 220.59 282.881 220.693 282.878 221.237C282.891 221.396 282.946 221.549 283.037 221.681C283.71 222.803 284.772 223.637 286.021 224.025C287.182 224.377 288.422 224.317 289.632 224.254L293.163 224.072C293.826 224.035 294.489 224.002 295.153 223.919C295.816 223.836 296.538 223.7 297.231 223.588C298.934 223.345 300.656 223.266 302.374 223.349C302.831 223.365 303.369 223.349 303.641 223.017C303.912 222.686 303.773 222.052 303.67 221.555C303.458 220.53 303.67 219.456 303.475 218.428C303.143 216.625 301.582 215.242 299.871 214.589C298.279 213.985 295.461 213.292 293.956 214.3C292.367 215.358 291.396 217.125 289.964 218.428Z" fill="#3F3D56"/>
<path d="M293.471 157.996C293.783 159.478 295.219 160.612 295.259 162.124C295.295 163.338 294.43 164.356 293.806 165.394C293.219 166.469 292.723 167.591 292.324 168.749C291.151 171.765 289.694 174.662 287.974 177.403C287.145 178.729 286.217 180.145 286.406 181.687C286.538 182.408 286.792 183.101 287.158 183.736L289.645 188.676C290.19 189.663 290.616 190.71 290.915 191.797C291.131 192.735 291.151 193.706 291.276 194.661C291.668 197.692 293.09 200.742 292.248 203.68C292.175 203.932 291.916 204.237 291.714 204.061C292.536 205.596 293.196 207.142 293.133 208.882C293.1 209.794 292.822 210.746 293.156 211.595C293.299 211.949 293.548 212.281 293.544 212.662C293.544 212.914 293.428 213.15 293.402 213.395C293.332 214.095 293.975 214.678 294.642 214.9C295.308 215.123 296.034 215.106 296.707 215.308C298.001 215.696 298.926 216.81 300.023 217.583C301.149 218.358 302.476 218.79 303.843 218.826C304.038 218.847 304.234 218.808 304.406 218.713C304.504 218.628 304.582 218.523 304.636 218.405C304.689 218.288 304.717 218.16 304.718 218.03C304.778 217.411 304.685 216.787 304.447 216.212C304.208 215.637 303.832 215.13 303.352 214.735C303.141 214.603 302.967 214.42 302.845 214.204C302.783 214.013 302.767 213.809 302.798 213.611C302.998 210.893 302.95 208.163 302.652 205.454C302.518 204.595 302.475 203.725 302.523 202.858C302.593 202.135 302.811 201.419 302.732 200.699C302.652 199.98 302.284 199.323 302.069 198.63C301.684 197.397 301.79 196.07 301.737 194.781C301.671 192.539 301.157 190.338 300.646 188.149C300.444 187.291 300.222 186.392 299.615 185.755C299.098 185.215 298.262 184.698 298.458 183.978C298.566 183.713 298.728 183.473 298.932 183.272C299.172 182.971 299.349 182.623 299.45 182.252C299.551 181.88 299.576 181.492 299.522 181.11C299.741 181.166 299.971 181.144 300.175 181.048C300.379 180.953 300.543 180.789 300.64 180.586C304.678 178.68 307.934 174.867 309.386 170.639C309.472 170.325 309.604 170.026 309.778 169.75C310.152 169.227 310.802 169.001 311.379 168.713C313.189 167.801 314.439 166.093 315.587 164.422C316.25 163.454 316.913 162.453 317.211 161.312C317.368 160.574 317.443 159.821 317.433 159.067L317.536 155.171C317.559 154.915 317.534 154.656 317.463 154.409C317.365 154.177 317.222 153.968 317.042 153.792C315.939 152.626 314.491 151.845 312.911 151.564C311.85 151.375 310.766 151.411 309.691 151.322C307.609 151.149 305.553 150.503 303.471 150.659C300.199 150.901 297.284 153.169 295.743 156.067C295.202 157.088 294.632 157.976 293.471 157.996Z" fill="#464353"/>
<path d="M275.302 132.664C275.346 133.266 275.265 133.87 275.063 134.438C274.808 134.982 274.168 135.406 273.608 135.184C273.777 134.803 273.329 134.369 272.911 134.415C272.706 134.462 272.515 134.559 272.355 134.696C272.195 134.834 272.071 135.008 271.993 135.204C271.716 135.761 271.623 136.392 271.728 137.005C271.86 137.767 272.301 138.5 272.185 139.266C272.092 139.903 271.625 140.536 271.874 141.126C272.035 141.396 272.237 141.638 272.474 141.846C272.801 142.249 272.962 142.763 272.922 143.281C272.881 143.799 272.644 144.282 272.258 144.631L278.531 144.757C278.303 145.804 278.773 146.875 279.311 147.807C280.815 150.369 282.892 152.547 285.38 154.171C287.867 155.795 290.697 156.821 293.647 157.167C293.488 157.261 293.351 157.388 293.247 157.54C293.142 157.693 293.073 157.867 293.044 158.049C293.016 158.232 293.028 158.418 293.08 158.595C293.132 158.773 293.223 158.936 293.346 159.074C293.856 159.581 294.722 159.518 295.361 159.19C296.001 158.862 296.502 158.318 297.086 157.897C298.116 157.167 299.372 156.828 300.63 156.942C301.416 157.018 302.178 157.273 302.967 157.313C305.288 157.436 307.278 155.765 309.512 155.082C311.14 154.581 312.987 154.581 314.353 153.563C314.943 153.126 315.428 152.406 315.255 151.696C315.112 151.289 314.887 150.915 314.592 150.599C313.806 149.581 313.342 148.358 312.778 147.2C311.662 144.909 310.124 142.849 308.246 141.126C306.828 139.887 305.326 138.748 303.75 137.718C303.369 137.436 302.963 137.191 302.536 136.985C301.986 136.743 301.376 136.627 300.879 136.322C300.143 135.857 299.718 135.038 299.151 134.379C297.908 132.926 295.998 132.26 294.466 131.119C293.438 130.353 292.53 129.345 291.303 128.977C290.706 128.795 290.073 128.782 289.476 128.603C288.12 128.192 287.132 126.988 285.803 126.501C284.751 126.116 283.591 126.215 282.487 126.079C281.242 125.926 280.053 125.473 279.022 124.76C278.69 124.489 278.317 124.272 277.918 124.117C276.237 123.606 276.101 126.736 275.929 127.82C275.706 129.432 275.302 131.033 275.302 132.664Z" fill="#00B0FF"/>
<path d="M276.94 143.162C277.222 146.219 274.914 149.18 275.587 152.174C275.73 152.811 276.005 153.417 276.104 154.064C276.386 155.838 275.325 157.519 274.314 159.004L265.627 171.753C265.278 172.313 264.862 172.827 264.387 173.285C262.729 174.76 260.236 174.611 258.054 175.049C256.521 175.364 255.074 176.004 253.81 176.926C253.753 176.97 253.716 177.034 253.706 177.105C253.696 177.177 253.714 177.249 253.757 177.307C254.117 177.797 254.594 178.19 255.145 178.449C255.696 178.708 256.303 178.825 256.91 178.789C257.139 179.087 256.91 179.532 256.595 179.747C256.131 180.079 255.488 180.155 255.395 180.948C255.364 181.223 255.419 181.501 255.554 181.743C255.905 182.278 256.449 182.655 257.073 182.798C260.08 183.719 263.329 182.101 265.58 179.903C267.832 177.705 269.446 174.93 271.655 172.695C272.878 171.455 274.267 170.397 275.527 169.197C278.041 166.799 279.997 163.892 281.88 160.977C282.447 160.098 283.021 159.197 283.256 158.179C283.491 157.161 283.382 156.13 283.651 155.145C284.002 153.855 284.947 152.824 285.733 151.743C287.275 149.621 288.306 147.025 288.1 144.409C287.895 141.792 286.277 139.213 283.81 138.324C283.045 138.02 282.202 137.969 281.406 138.178C280.395 138.49 279.649 139.326 278.959 140.128L277.301 142.031C276.898 142.453 276.581 142.95 276.369 143.493C276.263 143.767 276.237 144.066 276.296 144.355C276.355 144.643 276.495 144.908 276.701 145.118" fill="#FBBEBE"/>
<path d="M281.343 130.622C280.202 130.688 278.946 130.801 278.14 131.617C277.802 131.991 277.529 132.419 277.331 132.883C276.549 134.478 275.786 136.146 275.73 137.923C275.683 139.342 276.094 140.732 276.31 142.134C276.489 143.301 276.035 144.492 275.948 145.672C277.364 145.238 279.234 144.647 280.517 143.915C281.393 143.414 282.238 142.844 283.193 142.525C284.556 142.071 286.84 142.857 288.137 143.487C288.206 142.578 287.523 140.994 287.596 140.082C287.606 139.698 287.674 139.318 287.798 138.954C287.992 138.57 288.222 138.205 288.485 137.864C288.978 137.061 289.205 136.123 289.133 135.184C289.061 134.245 288.694 133.352 288.083 132.635C286.933 131.342 285.133 130.857 283.415 130.645C282.334 130.52 281.244 130.482 280.156 130.532" fill="#00B0FF"/>
</g>
<defs>
<linearGradient id="paint0_linear" x1="234.155" y1="181.097" x2="234.155" y2="19.0719" gradientUnits="userSpaceOnUse">
<stop stop-color="#808080" stop-opacity="0.25"/>
<stop offset="0.54" stop-color="#808080" stop-opacity="0.12"/>
<stop offset="1" stop-color="#808080" stop-opacity="0.1"/>
</linearGradient>
<clipPath id="clip0">
<rect width="348" height="225" fill="white"/>
</clipPath>
</defs>
</svg>
