<svg width="388" height="405" viewBox="0 0 388 405" fill="none" xmlns="http://www.w3.org/2000/svg">
<path d="M194.867 299.531L223.92 281.953H387.494V299.531H194.867ZM137.25 334.688L166.791 317.109H387.494V334.688H137.25ZM78.9004 369.844L108.686 352.266H387.494V369.844H78.9004ZM192.914 106.172L163.861 123.75H0.287109V106.172H192.914ZM250.531 71.0156L220.99 88.5938H0.287109V71.0156H250.531ZM308.881 35.8594L279.096 53.4375H0.287109V35.8594H308.881ZM387.494 41.9629V62.4707L0.287109 322.725V302.217L387.494 41.9629ZM387.494 83.4668V104.219L0.287109 364.229V343.232L387.494 83.4668ZM387.494 124.727V145.234L26.4102 387.422H387.494V405H0.287109C0.287109 405 0.287109 398.083 0.287109 384.248L387.494 124.727ZM361.371 18.2812H0.287109V0.703125H387.494C387.494 0.703125 387.494 7.70182 387.494 21.6992L0.287109 281.221V260.957L361.371 18.2812Z" fill="black"/>
</svg>
