<svg id="Layer_1" data-name="Layer 1" xmlns="http://www.w3.org/2000/svg" xmlns:xlink="http://www.w3.org/1999/xlink" viewBox="0 0 387.21 404.3"><defs><linearGradient id="linear-gradient" x1="194.58" y1="290.04" x2="387.21" y2="290.04" gradientUnits="userSpaceOnUse"><stop offset="0" stop-color="#e19822"/><stop offset="1" stop-color="#ff6f61"/></linearGradient><linearGradient id="linear-gradient-2" x1="0" y1="114.26" x2="192.63" y2="114.26" xlink:href="#linear-gradient"/><linearGradient id="linear-gradient-3" x1="0.29" y1="264.86" x2="387.49" y2="264.86" xlink:href="#linear-gradient"/><linearGradient id="linear-gradient-4" x1="0.29" y1="140.96" x2="387.49" y2="140.96" xlink:href="#linear-gradient"/></defs><title>zunde-logo</title><polygon points="194.58 298.83 223.63 281.25 387.21 281.25 387.21 298.83 194.58 298.83" style="fill:url(#linear-gradient)"/><polygon points="136.96 333.99 166.5 316.41 387.21 316.41 387.21 333.99 136.96 333.99" style="fill:#020202"/><polygon points="78.61 369.14 108.4 351.56 387.21 351.56 387.21 369.14 78.61 369.14" style="fill:#020202"/><polygon points="192.63 105.47 163.57 123.05 0 123.05 0 105.47 192.63 105.47" style="fill:url(#linear-gradient-2)"/><polygon points="250.24 70.31 220.7 87.89 0 87.89 0 70.31 250.24 70.31" style="fill:#020202"/><polygon points="308.59 35.16 278.81 52.73 0 52.73 0 35.16 308.59 35.16" style="fill:#020202"/><polygon points="387.21 41.26 387.21 61.77 0 322.02 0 301.51 387.21 41.26" style="fill:#020202"/><polygon points="387.21 82.76 387.21 103.52 0 363.53 0 342.53 387.21 82.76" style="fill:#020202"/><path d="M387.49,124.73v20.5L26.41,387.42H387.49V405H.29V384.25Z" transform="translate(-0.29 -0.7)" style="fill:url(#linear-gradient-3)"/><path d="M361.37,18.28H.29V.7h387.2v21L.29,281.22V261Z" transform="translate(-0.29 -0.7)" style="fill:url(#linear-gradient-4)"/></svg>