<?xml version="1.0" standalone="no"?>
<!DOCTYPE svg PUBLIC "-//W3C//DTD SVG 20010904//EN"
 "http://www.w3.org/TR/2001/REC-SVG-20010904/DTD/svg10.dtd">
<svg version="1.0" xmlns="http://www.w3.org/2000/svg"
 width="808.000000pt" height="808.000000pt" viewBox="0 0 808.000000 808.000000"
 preserveAspectRatio="xMidYMid meet">
<metadata>
Created by potrace 1.11, written by Peter Selinger 2001-2013
</metadata>
<g transform="translate(0.000000,808.000000) scale(0.100000,-0.100000)"
fill="#000000" stroke="none">
<path d="M170 7905 l0 -175 58 0 c31 0 1654 -1 3606 -1 l3549 0 -49 -36 c-27
-19 -59 -40 -71 -46 -13 -5 -23 -14 -23 -18 0 -4 -9 -11 -20 -14 -11 -3 -26
-12 -32 -18 -7 -7 -35 -27 -63 -44 -27 -18 -54 -36 -60 -40 -5 -5 -91 -62
-190 -128 -99 -66 -182 -122 -185 -125 -6 -6 -349 -237 -386 -260 -38 -24
-858 -574 -864 -580 -3 -3 -13 -9 -22 -15 -10 -5 -154 -102 -320 -214 -352
-238 -847 -570 -1168 -785 -124 -83 -226 -154 -228 -158 -2 -5 -10 -8 -18 -8
-8 0 -14 -4 -14 -10 0 -5 -4 -10 -9 -10 -7 0 -192 -120 -226 -147 -5 -5 -154
-104 -330 -222 -176 -118 -323 -219 -327 -225 -5 -7 -8 -7 -8 -1 0 7 -3 6 -8
0 -6 -9 -487 -335 -530 -360 -9 -5 -19 -12 -22 -15 -3 -3 -122 -83 -265 -179
-143 -96 -262 -177 -265 -180 -3 -3 -17 -13 -32 -21 -49 -27 -203 -133 -206
-141 -2 -5 -8 -9 -13 -9 -11 0 -163 -102 -167 -112 -2 -5 -10 -8 -18 -8 -8 0
-14 -3 -14 -8 0 -4 -9 -12 -20 -17 -11 -6 -120 -77 -243 -160 -122 -82 -226
-152 -232 -154 -5 -2 -12 -7 -15 -11 -3 -4 -95 -67 -205 -140 -110 -74 -233
-156 -272 -183 l-73 -48 0 -200 c0 -109 2 -199 4 -199 6 0 310 202 316 211 3
3 10 8 15 10 6 2 57 36 113 74 57 39 111 75 120 80 9 6 87 57 172 115 85 58
160 107 165 109 6 2 12 7 15 10 9 12 132 91 141 91 5 0 9 5 9 10 0 6 6 10 14
10 8 0 16 3 18 8 2 4 152 106 333 227 182 121 332 222 335 225 3 3 73 50 155
105 83 55 152 103 153 107 2 5 8 8 14 8 12 0 102 61 106 72 2 4 7 8 12 8 5 0
129 81 276 180 146 99 270 180 275 180 4 0 9 3 11 8 5 10 66 52 77 52 5 0 11
3 13 8 2 4 158 111 348 237 190 127 347 232 350 235 3 3 30 21 60 40 30 19 57
37 60 40 5 5 527 356 558 375 28 17 435 289 452 302 8 6 125 85 260 174 135
90 247 166 250 169 3 4 10 9 15 11 19 8 250 164 253 172 2 4 9 7 16 7 7 0 21
8 32 18 17 15 169 119 216 147 43 26 884 591 896 603 7 6 17 12 22 12 5 0 15
6 22 13 7 6 128 89 268 182 140 93 285 191 323 217 37 27 67 45 67 42 0 -3 7
1 15 9 8 8 31 25 52 38 21 13 40 25 43 28 3 4 71 50 153 104 l147 98 0 209 0
210 -3870 0 -3870 0 0 -175z"/>
<path d="M175 7372 c-3 -3 -5 -82 -5 -176 l0 -171 2787 1 2788 0 40 25 c23 13
50 29 60 36 11 6 56 33 100 59 257 151 371 218 378 224 5 4 -1376 7 -3067 7
-1692 0 -3078 -2 -3081 -5z"/>
<path d="M7730 7135 c-91 -63 -175 -120 -188 -127 -45 -26 -347 -232 -350
-240 -2 -4 -8 -8 -14 -8 -6 0 -26 -11 -44 -25 -18 -14 -37 -25 -43 -25 -6 0
-11 -4 -11 -8 0 -5 -16 -17 -35 -28 -19 -10 -35 -22 -35 -26 0 -5 -4 -8 -9 -8
-8 0 -201 -127 -228 -150 -7 -5 -16 -10 -22 -10 -5 0 -11 -3 -13 -7 -5 -11
-66 -53 -77 -53 -5 0 -11 -3 -13 -7 -5 -11 -66 -53 -77 -53 -5 0 -11 -4 -13
-8 -1 -4 -97 -70 -213 -147 -115 -77 -214 -143 -220 -148 -49 -37 -156 -107
-164 -107 -6 0 -14 -6 -18 -14 -4 -7 -12 -15 -18 -17 -19 -8 -220 -144 -223
-151 -2 -5 -10 -8 -18 -8 -8 0 -14 -3 -14 -7 0 -5 -27 -24 -60 -43 -33 -19
-60 -38 -60 -42 0 -5 -6 -8 -14 -8 -8 0 -16 -3 -18 -7 -4 -11 -97 -73 -107
-73 -5 0 -11 -3 -13 -7 -4 -11 -217 -153 -228 -153 -5 0 -10 -4 -12 -8 -1 -5
-73 -55 -158 -112 -85 -57 -156 -107 -158 -112 -2 -4 -8 -8 -14 -8 -11 0 -221
-141 -226 -152 -2 -5 -7 -8 -11 -8 -5 0 -102 -63 -216 -140 -114 -77 -211
-140 -216 -140 -4 0 -9 -3 -11 -7 -1 -5 -59 -45 -128 -91 -69 -45 -129 -86
-135 -90 -12 -9 -274 -186 -324 -218 -20 -13 -45 -30 -56 -38 -11 -9 -69 -48
-130 -88 -60 -40 -114 -76 -120 -81 -5 -4 -44 -30 -85 -57 -41 -27 -82 -55
-91 -61 -8 -6 -47 -32 -86 -57 -39 -26 -105 -71 -148 -99 -42 -29 -80 -53 -85
-53 -5 0 -10 -3 -12 -7 -5 -12 -155 -113 -166 -113 -6 0 -12 -4 -14 -8 -1 -5
-93 -69 -203 -142 -110 -73 -202 -136 -205 -139 -3 -3 -17 -12 -32 -20 -15 -8
-37 -22 -47 -33 -11 -10 -24 -18 -29 -18 -4 0 -17 -8 -28 -17 -11 -10 -28 -22
-37 -28 -9 -5 -170 -113 -357 -240 -188 -126 -349 -235 -358 -240 -30 -18
-137 -90 -142 -95 -3 -3 -29 -21 -58 -39 -30 -19 -59 -39 -65 -45 -7 -6 -24
-17 -39 -25 -15 -8 -37 -23 -48 -33 -11 -10 -20 -15 -20 -11 0 4 -5 0 -11 -9
-5 -10 -14 -18 -18 -18 -4 0 -122 -77 -262 -171 -140 -93 -296 -198 -347 -232
l-92 -62 0 -203 c0 -192 1 -202 18 -193 10 5 105 69 212 141 107 72 281 188
385 258 105 70 195 130 200 135 10 8 214 144 243 162 9 6 25 18 36 28 11 9 25
17 32 17 7 0 14 4 16 8 3 7 119 86 803 543 127 85 232 156 235 159 3 3 147
100 320 215 173 116 321 216 328 223 7 6 17 12 22 12 5 0 15 6 22 13 7 6 81
57 163 112 83 55 152 103 153 107 2 5 8 8 13 8 11 0 72 42 77 53 2 4 8 7 13 7
11 0 72 42 77 53 2 4 8 7 13 7 6 0 15 5 22 10 27 23 220 150 228 150 5 0 9 4
9 8 0 5 12 15 28 23 15 8 29 16 32 19 3 3 46 32 95 65 50 33 92 63 93 68 2 4
8 7 13 7 7 0 95 56 109 70 3 3 100 68 215 145 116 77 212 142 215 145 3 3 13
10 22 15 10 6 205 136 434 290 228 154 426 287 439 295 61 38 471 316 483 327
7 7 17 13 22 13 5 0 15 6 22 13 7 6 72 50 143 97 72 47 132 87 135 90 3 3 52
37 110 75 58 39 107 73 108 78 2 4 7 7 12 7 5 0 93 57 197 128 584 394 694
468 713 477 11 5 20 13 20 17 0 5 6 8 14 8 8 0 16 3 18 8 5 10 66 52 77 52 5
0 11 3 13 8 2 4 74 54 160 112 l158 105 0 203 c0 111 -3 202 -7 201 -5 0 -82
-52 -173 -114z"/>
<path d="M174 6671 c-2 -2 -4 -81 -4 -175 l0 -171 2208 1 c2205 0 2207 0 2242
21 19 11 138 81 263 157 126 75 232 136 236 136 4 0 15 8 24 18 15 16 -104 17
-2475 17 -1369 0 -2492 -2 -2494 -4z"/>
<path d="M7480 6140 c-228 -154 -419 -283 -425 -287 -14 -11 -271 -184 -310
-208 -18 -11 -153 -102 -301 -201 -148 -100 -397 -267 -554 -372 -157 -106
-292 -196 -300 -202 -19 -13 -764 -512 -1360 -911 -245 -164 -449 -302 -455
-306 -26 -21 -697 -469 -715 -478 -11 -5 -20 -13 -20 -17 0 -5 -5 -8 -11 -8
-6 0 -28 -12 -48 -27 -20 -16 -43 -32 -52 -38 -62 -38 -165 -110 -167 -117 -2
-4 -7 -8 -12 -8 -9 0 -248 -157 -268 -177 -6 -6 -21 -15 -32 -18 -11 -3 -20
-11 -20 -16 0 -5 -6 -9 -13 -9 -7 0 -22 -8 -33 -19 -11 -10 -31 -24 -44 -31
-13 -7 -29 -17 -34 -22 -26 -22 -399 -268 -406 -268 -5 0 -10 -3 -12 -8 -2 -4
-97 -70 -213 -147 -115 -77 -212 -142 -215 -145 -3 -3 -99 -68 -215 -145 -115
-76 -211 -142 -213 -147 -2 -4 -8 -8 -14 -8 -11 0 -101 -61 -106 -72 -2 -5 -7
-8 -11 -8 -4 0 -95 -58 -202 -130 -107 -71 -201 -134 -209 -140 -8 -5 -41 -28
-73 -50 -32 -22 -62 -40 -67 -40 -4 0 -10 -3 -12 -7 -2 -5 -40 -33 -85 -63
l-83 -55 0 -209 0 -208 28 18 c106 69 348 230 352 234 5 6 53 37 82 55 9 5 72
48 140 94 68 46 245 165 393 264 149 100 275 185 280 189 6 5 46 32 90 60 44
29 85 56 90 61 6 4 33 22 60 39 28 18 52 35 55 38 3 3 104 70 225 150 121 80
222 148 225 151 12 13 191 129 199 129 5 0 11 4 13 8 2 5 100 73 218 152 118
79 217 147 218 152 2 4 7 8 11 8 6 0 647 424 676 447 6 5 53 36 105 70 52 34
102 69 111 78 9 8 18 15 22 15 3 0 38 23 79 50 40 28 80 55 88 60 8 5 41 28
73 50 32 22 61 40 66 40 4 0 16 8 27 18 10 9 44 33 74 52 30 19 59 40 63 47 4
7 12 13 17 13 11 0 284 182 288 193 2 4 8 7 14 7 5 0 15 6 23 13 7 6 39 29 71
49 33 20 119 78 193 127 74 50 138 91 142 91 4 0 9 4 11 8 2 5 127 91 278 192
329 219 334 223 338 233 2 4 8 7 13 7 7 0 253 162 344 226 79 56 289 194 296
194 4 0 9 3 11 8 2 4 98 70 213 147 584 391 850 570 855 575 3 3 30 21 60 40
30 19 60 38 65 43 6 4 107 72 225 151 l215 143 3 207 c1 113 -1 206 -5 205 -5
0 -195 -126 -423 -279z"/>
<path d="M243 5972 l-73 -3 0 -174 0 -174 1375 0 c756 0 1380 -3 1385 -6 6 -3
10 -3 10 2 0 4 112 7 249 6 l249 -2 234 141 c128 78 242 146 253 153 40 22 90
55 85 55 -28 3 -3714 4 -3767 2z"/>
<path d="M7680 5448 c-124 -83 -467 -313 -763 -512 -295 -198 -545 -365 -555
-371 -9 -5 -19 -12 -22 -15 -14 -14 -70 -50 -79 -50 -5 0 -11 -3 -13 -7 -5
-11 -66 -53 -77 -53 -5 0 -11 -3 -13 -7 -4 -11 -216 -153 -227 -153 -5 0 -11
-3 -13 -7 -5 -12 -95 -73 -106 -73 -5 0 -13 -7 -16 -16 -3 -8 -10 -13 -15 -10
-5 4 -11 3 -13 -2 -3 -8 -136 -102 -144 -102 -5 0 -64 -40 -74 -50 -6 -6 -116
-80 -142 -95 -33 -19 -163 -109 -168 -115 -3 -4 -10 -9 -16 -11 -10 -4 -455
-300 -464 -309 -3 -3 -201 -135 -440 -295 -239 -159 -438 -294 -442 -300 -5
-6 -8 -6 -8 0 0 6 -3 6 -8 -1 -4 -6 -97 -71 -207 -144 -110 -74 -274 -184
-364 -245 -213 -144 -212 -143 -238 -156 -13 -7 -23 -16 -23 -21 0 -4 -7 -8
-15 -8 -8 0 -15 -4 -15 -10 0 -5 -4 -10 -8 -10 -6 0 -288 -185 -472 -310 -175
-119 -253 -170 -260 -170 -5 0 -10 -4 -12 -8 -1 -4 -46 -36 -98 -70 -52 -34
-99 -65 -105 -70 -5 -4 -37 -26 -70 -47 -33 -22 -64 -43 -70 -48 -13 -10 -129
-88 -160 -107 -81 -50 -711 -476 -713 -482 -2 -5 -8 -8 -13 -8 -10 0 -103 -62
-107 -72 -2 -5 -8 -8 -13 -8 -6 0 -34 -18 -64 -40 -30 -22 -56 -40 -58 -40 -3
0 -78 -49 -167 -110 -89 -60 -166 -110 -170 -110 -5 0 -10 -3 -12 -7 -1 -5
-60 -46 -131 -92 l-127 -85 0 -208 0 -208 3870 0 3870 0 -2 176 -3 175 -3603
0 c-2770 0 -3599 3 -3590 12 15 14 158 110 173 116 6 2 12 7 15 10 5 6 430
293 475 321 14 8 156 104 317 212 831 559 1160 778 1169 778 5 0 9 3 9 8 0 4
28 25 63 47 34 22 64 43 65 47 2 5 8 8 14 8 6 0 27 14 48 30 21 17 40 30 43
30 2 0 71 45 152 100 81 55 151 100 155 100 5 0 10 3 12 8 2 4 30 25 63 47 33
21 62 42 63 47 2 4 7 8 12 8 6 0 412 267 460 303 9 7 184 125 390 262 206 138
377 252 380 255 6 6 61 43 75 50 31 15 231 153 233 161 2 5 8 9 13 9 5 0 38
20 73 45 36 25 69 45 75 45 5 0 11 4 13 8 2 5 64 49 138 98 74 48 137 91 140
95 3 3 16 12 29 19 14 7 30 17 35 22 24 20 400 268 407 268 4 0 9 4 11 8 4 10
157 112 168 112 5 0 10 4 12 8 4 11 155 112 167 112 5 0 11 4 13 8 2 5 278
192 613 417 336 225 637 427 671 449 33 23 67 46 76 51 8 6 47 32 87 58 l71
48 0 204 c0 113 -1 205 -2 204 -2 0 -104 -68 -228 -151z"/>
<path d="M4887 2464 c-3 -3 -60 -5 -127 -5 -107 2 -124 -1 -149 -19 -16 -11
-32 -20 -36 -20 -4 0 -30 -15 -58 -34 -29 -19 -71 -45 -93 -58 -101 -57 -353
-212 -350 -215 2 -3 3379 -5 3794 -3 l42 0 0 174 0 175 -111 0 c-62 0 -114 3
-116 5 -3 3 -16 1 -29 -4 -14 -6 -26 -6 -29 1 -4 5 -11 7 -16 3 -11 -6 -400
-7 -407 0 -2 3 -15 1 -28 -4 -14 -6 -26 -6 -29 1 -4 5 -10 7 -15 4 -11 -7
-881 -7 -888 -1 -2 3 -15 1 -28 -4 -14 -6 -26 -6 -29 1 -4 5 -11 7 -16 3 -11
-6 -400 -7 -407 0 -2 3 -15 1 -28 -4 -14 -6 -26 -6 -29 1 -4 5 -11 7 -16 3
-11 -6 -400 -7 -407 0 -2 3 -15 1 -28 -4 -14 -6 -26 -6 -29 1 -4 5 -11 6 -17
3 -11 -7 -239 -7 -246 0 -2 3 -14 1 -27 -4 -13 -5 -26 -5 -32 1 -5 5 -12 7
-16 3z"/>
<path d="M3417 1708 c-43 -26 -83 -48 -88 -48 -5 0 -9 -4 -9 -10 0 -5 -4 -10
-9 -10 -6 0 -38 -17 -73 -37 -35 -21 -71 -42 -80 -48 -135 -78 -237 -144 -231
-147 4 -2 1126 -4 2493 -3 l2485 0 0 175 0 175 -2205 1 -2205 0 -78 -48z"/>
<path d="M2251 1003 c-47 -28 -110 -64 -138 -79 -29 -16 -53 -32 -53 -36 0 -4
-4 -8 -10 -8 -5 0 -44 -21 -87 -46 -110 -65 -144 -85 -175 -101 -15 -8 -30
-18 -32 -22 -3 -4 1381 -8 3074 -8 l3080 0 0 174 c0 131 -3 173 -12 174 -7 1
-1261 2 -2787 3 l-2773 1 -87 -52z"/>
</g>
</svg>
